<?xml version="1.0" encoding="utf-8"?>
<!-- Generator: Adobe Illustrator 18.0.0, SVG Export Plug-In . SVG Version: 6.00 Build 0)  -->
<!DOCTYPE svg PUBLIC "-//W3C//DTD SVG 1.1//EN" "http://www.w3.org/Graphics/SVG/1.1/DTD/svg11.dtd">
<svg version="1.1" id="Layer_1" xmlns="http://www.w3.org/2000/svg" xmlns:xlink="http://www.w3.org/1999/xlink" x="0px" y="0px"
	 viewBox="0 61.5 245 152" style="enable-background:new 0 61.5 245 152;" xml:space="preserve">
<path d="M72,63.5c25.4,0,47.4,7.2,47.4,36.7c0,14.9-6.9,24.6-20.2,30.9c18.2,5.2,27,18.9,27,37.5c0,30.1-25.3,43-52.1,43H2.2v-148
	H72z M67.7,123.3c11.6,0,19.9-5.1,19.9-17.6C87.6,92,77,88.7,65.3,88.7H34.7v34.6C34.7,123.3,67.7,123.3,67.7,123.3z M69.5,186.4
	c13.3,0,24.1-4.7,24.1-19.6c0-15.2-9.1-21.2-23.4-21.2H34.7v40.8H69.5z M214.9,175.4h26c-8,24.6-24.6,36-50.2,36
	c-33.8,0-54.9-22.9-54.9-56.3c0-32.2,22.2-56.8,54.9-56.8c33.6,0,52.1,26.5,52.1,58.2c0,1.9-0.1,3.8-0.2,5.5h-77.3
	c0,17.2,9.1,27.3,26.3,27.3C200.5,189.4,212,184.5,214.9,175.4z M159.3,73.5v14.6h60V73.5L159.3,73.5L159.3,73.5z M165.3,143.5h47.9
	c-1.3-14.2-8.7-22.9-23.5-22.9C175.6,120.6,166.2,129.5,165.3,143.5z"/>
</svg>
