<?xml version="1.0" standalone="no"?>
<!DOCTYPE svg PUBLIC "-//W3C//DTD SVG 20010904//EN"
 "http://www.w3.org/TR/2001/REC-SVG-20010904/DTD/svg10.dtd">
<svg version="1.0" xmlns="http://www.w3.org/2000/svg"
 width="245.000000pt" height="275.000000pt" viewBox="0 0 245.000000 275.000000"
 preserveAspectRatio="xMidYMid meet">
<metadata>
Created by potrace 1.13, written by Peter Selinger 2001-2015
</metadata>
<g transform="translate(0.000000,275.000000) scale(0.100000,-0.100000)"
fill="#000000" stroke="none">
<path d="M1315 2738 c-2 -7 -90 -412 -194 -900 -213 -992 -213 -988 -162
-1093 33 -70 68 -106 131 -134 39 -18 66 -21 212 -21 l166 0 12 52 c6 29 108
508 226 1063 118 556 217 1018 220 1028 5 16 -14 17 -301 17 -236 0 -307 -3
-310 -12z"/>
<path d="M466 2146 c-3 -14 -107 -492 -231 -1063 -124 -571 -227 -1049 -230
-1061 l-6 -24 168 4 168 3 78 37 c132 63 245 190 280 315 14 48 397 1796 397
1809 0 2 -139 4 -309 4 l-309 0 -6 -24z"/>
<path d="M1732 1382 c-90 -433 -163 -790 -162 -794 0 -5 63 -8 141 -8 124 0
149 3 216 25 140 47 236 130 306 262 31 60 46 119 123 483 73 343 88 431 88
505 1 113 -24 175 -95 239 -73 65 -114 76 -298 76 l-156 0 -163 -788z"/>
</g>
</svg>
