<?xml version="1.0" encoding="utf-8"?>
<!-- Generator: Adobe Illustrator 18.0.0, SVG Export Plug-In . SVG Version: 6.00 Build 0)  -->
<!DOCTYPE svg PUBLIC "-//W3C//DTD SVG 1.1//EN" "http://www.w3.org/Graphics/SVG/1.1/DTD/svg11.dtd">
<svg version="1.1" id="Layer_1" xmlns="http://www.w3.org/2000/svg" xmlns:xlink="http://www.w3.org/1999/xlink" x="0px" y="0px"
	 viewBox="-0.9 19.5 246.9 236" style="enable-background:new -0.9 19.5 246.9 236;" xml:space="preserve">
<path d="M30.8,75.9h-0.3C13.1,75.9,1.9,64,1.9,49.1c0-15.2,11.6-26.9,29.2-26.9c17.8,0,28.7,11.6,28.9,26.9
	C60.2,64,48.9,75.9,30.8,75.9z M56.7,252.8H4.9V97.1h51.8V252.8z M243.1,252.8h-51.7v-83.2c0-20.9-7.6-35.2-26.2-35.2
	c-14.3,0-22.8,9.6-26.5,18.9c-1.3,3.5-1.7,8-1.7,12.7v86.9H85.3c0.6-141,0-155.7,0-155.7h51.7v22.6h-0.3c6.7-10.7,19-26.2,46.9-26.2
	c34.1,0,59.5,22.3,59.5,70V252.8z"/>
</svg>
