<?xml version="1.0" encoding="utf-8"?>
<!-- Generator: Adobe Illustrator 18.0.0, SVG Export Plug-In . SVG Version: 6.00 Build 0)  -->
<!DOCTYPE svg PUBLIC "-//W3C//DTD SVG 1.1//EN" "http://www.w3.org/Graphics/SVG/1.1/DTD/svg11.dtd">
<svg version="1.1" id="Layer_1" xmlns="http://www.w3.org/2000/svg" xmlns:xlink="http://www.w3.org/1999/xlink" x="0px" y="0px"
	 viewBox="0 0 500 500" style="enable-background:new 0 0 500 500;" xml:space="preserve">
<path d="M375,407.3h-52.1c-2.1,0-4.2-2.1-4.2-4.2v-12.5c0-2.1-2.1-4.2-4.2-4.2h-70.8c-2.1,0-4.2,2.1-4.2,4.2v12.5
	c0,2.1-2.1,4.2-4.2,4.2H200c-2.1,0-4.2,2.1-4.2,4.2V424c0,2.1,2.1,4.2,4.2,4.2h175c2.1,0,4.2-2.1,4.2-4.2v-14.6
	C379.2,409.4,377.1,407.3,375,407.3z"/>
<path d="M462.5,69.8H95.8c-12.5,0-22.9,10.4-22.9,22.9c0,0,0,43.8,0,60.4c0,8.3,0,8.3,4.2,8.3c2.1,0,6.3,0,8.3,0
	c4.2,0,4.2-2.1,4.2-8.3c0-16.7,0-60.4,0-60.4c0-2.1,2.1-6.3,6.3-6.3h364.6c2.1,0,6.3,2.1,6.3,6.3v225H206.3c0,0-8.3,0-8.3,12.5
	c0,6.3,0,20.8,0,29.2c0,12.5,10.4,12.5,10.4,12.5h254.2c12.5,0,22.9-10.4,22.9-22.9V92.7C485.4,80.2,475,69.8,462.5,69.8z
	 M279.2,351c-6.3,0-10.4-4.2-10.4-10.4c0-6.3,4.2-10.4,10.4-10.4s10.4,4.2,10.4,10.4C289.6,344.8,285.4,351,279.2,351z"/>
<path d="M162.5,182.3H29.2c-8.3,0-14.6,6.3-14.6,14.6v216.7c0,8.3,6.3,14.6,14.6,14.6h131.3c8.3,0,14.6-6.2,14.6-14.6V196.9
	C177.1,188.5,170.8,182.3,162.5,182.3z M79.2,196.9h33.3c2.1,0,2.1,2.1,2.1,2.1c0,2.1-2.1,2.1-2.1,2.1H79.2c-2.1,0-2.1-2.1-2.1-2.1
	L79.2,196.9z M95.8,419.8c-4.2,0-8.3-4.2-8.3-8.3c0-4.2,4.2-8.3,8.3-8.3c4.2,0,8.3,4.2,8.3,8.3C104.2,415.6,100,419.8,95.8,419.8z
	 M164.6,396.9c0,2.1-2.1,4.2-4.2,4.2H31.3c-2.1,0-4.2-2.1-4.2-4.2V215.6c0-2.1,2.1-4.2,4.2-4.2h129.2c2.1,0,4.2,2.1,4.2,4.2
	C164.6,215.6,164.6,396.9,164.6,396.9z"/>
</svg>
