<?xml version="1.0" encoding="utf-8"?>
<!-- Generator: Adobe Illustrator 18.0.0, SVG Export Plug-In . SVG Version: 6.00 Build 0)  -->
<!DOCTYPE svg PUBLIC "-//W3C//DTD SVG 1.1//EN" "http://www.w3.org/Graphics/SVG/1.1/DTD/svg11.dtd">
<svg version="1.1" id="Layer_1" xmlns="http://www.w3.org/2000/svg" xmlns:xlink="http://www.w3.org/1999/xlink" x="0px" y="0px"
	 viewBox="0 0 500 500" style="enable-background:new 0 0 500 500;" xml:space="preserve">
<path d="M354.2,301c-20.8,0-39.6,10.4-50,25l-97.9-54.2c2.1-6.3,4.2-14.6,4.2-20.8c0-8.3-2.1-14.6-4.2-20.8l97.9-56.3
	c10.4,14.6,29.2,25,50,25c35.4,0,62.5-29.2,62.5-64.6s-27.1-64.6-62.5-64.6s-62.5,29.2-62.5,64.6c0,8.3,2.1,14.6,4.2,20.8l-100,56.3
	c-10.4-16.7-29.2-27.1-50-27.1c-35.4,0-62.5,29.2-62.5,64.6s29.2,64.6,64.6,64.6c20.8,0,39.6-10.4,50-25l97.9,56.3
	c-2.1,6.3-4.2,14.6-4.2,20.8c0,35.4,29.2,64.6,62.5,64.6s62.5-29.2,62.5-64.6S389.6,301,354.2,301z M354.2,90.6
	c25,0,43.8,20.8,43.8,43.7c0,25-18.8,43.8-43.8,43.8s-43.8-20.8-43.8-43.8C310.4,109.4,329.2,90.6,354.2,90.6z M145.8,294.8
	c-25,0-43.8-20.8-43.8-43.8c0-25,18.8-43.8,43.8-43.8s43.8,20.8,43.8,43.8S170.8,294.8,145.8,294.8z M354.2,409.4
	c-25,0-43.8-20.8-43.8-43.8c0-25,18.8-43.8,43.8-43.8c25,0,43.8,20.8,43.8,43.8C397.9,390.6,377.1,409.4,354.2,409.4z"/>
</svg>
