
<?xml version="1.0" standalone="no"?>
<!DOCTYPE svg PUBLIC "-//W3C//DTD SVG 1.1//EN" "http://www.w3.org/Graphics/SVG/1.1/DTD/svg11.dtd" >
<svg xmlns="http://www.w3.org/2000/svg">
	<metadata></metadata>
	<defs>
		<font id="VanitasStencilItalic" horiz-adv-x="1639" >
			<font-face units-per-em="2048" ascent="1638" descent="-410" />
			<missing-glyph horiz-adv-x="467" />
			<glyph unicode="AE" horiz-adv-x="1640" d="M-79 0l1165 1391h586l-5 -29h-462l-125 -638h363l-5 -29h-363l-130 -666h462l-5 -29h-586l258 1331l-633 -754h387l-5 -29h-406l-459 -548h-37z" />
			<glyph unicode="ae" horiz-adv-x="1505" d="M-12 194q0 42 11 77.5t28.5 63t49.5 53t62.5 44t81 40t91 36t105.5 36.5q150 50 203 89.5t53 118.5q0 62 -40 99t-122 37q-51 0 -102 -15t-87.5 -36t-65.5 -42.5t-44 -36.5l-14 -15l14 76q4 4 12.5 10.5t38 23t62.5 29.5t85.5 23.5t108.5 10.5q210 0 246 -152 q134 152 324 152q138 0 217.5 -89.5t79.5 -237.5q0 -26 -2.5 -53t-5.5 -42l-2 -14h-549l7 29h429q14 64 14 137q0 113 -49 177.5t-147 64.5q-71 0 -133.5 -37.5t-105.5 -98.5t-74.5 -138t-46 -156.5t-14.5 -153.5q0 -62 12.5 -112.5t39 -91.5t72.5 -63.5t109 -22.5 q56 0 109 17.5t88.5 43t63.5 50.5t41 43l13 17l-15 -76q-4 -5 -12.5 -13.5t-38 -29.5t-62.5 -37t-85 -29.5t-107 -13.5q-141 0 -233 83.5t-92 248.5q0 83 25 205q6 28 13.5 57.5t10.5 44t3 30.5q-26 -42 -74 -68t-172 -74q-83 -32 -133 -57t-95 -61.5t-65 -83.5t-20 -110 q0 -82 51 -134.5t132 -52.5q73 0 139.5 35t115.5 98l9 -22q-109 -139 -301 -139q-120 0 -190.5 55t-70.5 153z" />
			<glyph unicode="OE" horiz-adv-x="2282" d="M71 553q0 170 73.5 330.5t193 276.5t279.5 186.5t326 70.5q195 0 338 -88.5t209 -242.5l59 305h765l-5 -29h-641l-265 -1362h-124l54 279q-121 -142 -288 -224t-349 -82q-83 0 -173 20l16 30q79 -21 160 -21q144 0 279.5 72t235 191.5t159.5 282.5t60 336 q0 238 -135.5 371.5t-357.5 133.5q-116 0 -227 -46.5t-201.5 -130t-159.5 -193t-107 -243t-38 -271.5q0 -161 62 -274.5t174 -171.5l-18 -35q-163 67 -258.5 205.5t-95.5 323.5zM1501 0l5 29h543l-5 -29h-543zM1636 695l5 29h444l-5 -29h-444z" />
			<glyph unicode="oe" horiz-adv-x="1614" d="M31 348q0 142 66 272.5t184 213t256 82.5q67 0 120 -20t86 -54t52.5 -66.5t32.5 -70.5q66 100 161.5 155.5t208.5 55.5q138 0 218 -89.5t80 -237.5q0 -26 -2.5 -53t-5.5 -42l-2 -14h-549l6 29h429q14 64 14 137q0 113 -48.5 177.5t-146.5 64.5q-89 0 -162.5 -56.5 t-118.5 -145t-69.5 -188.5t-24.5 -194q0 -84 21.5 -146.5t75.5 -103t137 -40.5q55 0 108 17.5t88.5 43t63.5 50.5t42 43l13 17l-15 -76q-4 -5 -13 -13.5t-38.5 -29.5t-62.5 -37t-85 -29.5t-107 -13.5q-141 0 -232.5 83.5t-91.5 248.5q0 72 19 176q9 58 9 107 q0 150 -52 218.5t-159 68.5q-114 0 -207 -91t-140.5 -223.5t-47.5 -268.5q0 -147 59.5 -219t164.5 -72q81 0 152.5 40.5t124.5 112.5l8 -28q-114 -153 -291 -153q-145 0 -237 97.5t-92 264.5z" />
			<glyph unicode="&#xfb01;" horiz-adv-x="1004" d="M85 0l169 870h-154l6 29h153l21 105q20 103 54.5 178.5t73 118.5t89 68.5t94 33t96.5 7.5q108 0 181 -54q-17 -18 -31 -36q-7 7 -20 17t-54.5 27t-85.5 17q-40 0 -77 -12.5t-75 -42t-68 -86t-45 -135.5l-40 -206h322l-5 -29h-323l-169 -870h-112zM620 0l174 899h112 l-175 -899h-111z" />
			<glyph unicode="&#xfb02;" horiz-adv-x="990" d="M85 0l169 870h-154l6 29h153l21 105q16 79 40 142t50 105t61.5 72.5t66.5 46.5t72 25.5t71.5 12t70.5 2.5q76 0 145 -20.5t100 -41.5l31 -20l-258 -1328h-112l264 1354q-76 27 -157 27q-40 0 -74 -5.5t-73.5 -23t-70 -46.5t-56.5 -80.5t-39 -120.5l-40 -206h251l-7 -29 h-250l-169 -870h-112z" />
			<glyph unicode="&#xfb03;" horiz-adv-x="1539" d="M85 0l169 870h-154l6 29h153l21 105q20 103 54.5 178.5t73 118.5t89 68.5t94 33t96.5 7.5q108 0 181 -54q-17 -18 -31 -36q-7 7 -20 17t-54.5 27t-85.5 17q-40 0 -77 -12.5t-75 -42t-68 -86t-45 -135.5l-40 -206h323l-6 -29h-323l-169 -870h-112zM620 0l194 1004 q20 103 54.5 178.5t73 118.5t89 68.5t94.5 33t97 7.5q108 0 181 -54q-18 -18 -32 -36q-7 7 -20 17t-54.5 27t-85.5 17q-40 0 -77 -12.5t-75 -42t-68 -86t-45 -135.5l-40 -206h324l-6 -29h-324l-169 -870h-111zM1154 0l174 899h113l-175 -899h-112z" />
			<glyph unicode="&#xfb04;" horiz-adv-x="1524" d="M85 0l169 870h-154l6 29h153l21 105q20 103 54.5 178.5t73 118.5t89 68.5t94 33t96.5 7.5q108 0 181 -54q-17 -18 -31 -36q-7 7 -20 17t-54.5 27t-85.5 17q-40 0 -77 -12.5t-75 -42t-68 -86t-45 -135.5l-40 -206h323l-6 -29h-323l-169 -870h-112zM620 0l194 1004 q15 79 39 142t50.5 105t61.5 72.5t66.5 46.5t72 25.5t71.5 12t71 2.5q76 0 145.5 -20.5t100.5 -41.5l31 -20l-258 -1328h-112l263 1354q-76 27 -156 27q-40 0 -74.5 -5.5t-74 -23t-70 -46.5t-56.5 -80.5t-39 -120.5l-40 -206h251l-6 -29h-251l-169 -870h-111z" />
			<glyph horiz-adv-x="0" />
			<glyph horiz-adv-x="2048" />
			<glyph unicode="&#xd;" horiz-adv-x="682" />
			<glyph unicode=" "  horiz-adv-x="467" />
			<glyph unicode="&#x09;" horiz-adv-x="467" />
			<glyph unicode="&#xa0;" horiz-adv-x="467" />
			<glyph unicode="!" horiz-adv-x="390" d="M-14 54q0 40 29 68.5t69 28.5q33 0 54 -20t21 -53q0 -39 -29.5 -67.5t-69.5 -28.5q-33 0 -53.5 19.5t-20.5 52.5zM105 312l153 1036q10 69 64 69q30 0 45.5 -18t15.5 -41q0 -16 -4 -33l-244 -1013h-30z" />
			<glyph unicode="&#x22;" horiz-adv-x="529" d="M181 957l45 417q6 54 53 54q23 0 36.5 -14t13.5 -36q0 -9 -5 -29l-112 -392h-31zM415 957l45 417q6 54 52 54q23 0 36.5 -14t13.5 -36q0 -9 -5 -29l-112 -392h-30z" />
			<glyph unicode="#" horiz-adv-x="1191" d="M-42 -68l283 483h-227l75 128h226l121 207h33l-121 -207h576l-75 -128h-226l-283 -483h-33l283 483h-317l-282 -483h-33zM268 848l75 128h226l283 482h33l-283 -482h317l282 482h33l-283 -482h227l-75 -128h-227l-121 -207h-33l121 207h-575z" />
			<glyph unicode="$" horiz-adv-x="1009" d="M-9 109l13 68q4 -5 11.5 -13.5t34 -32t56 -43t76.5 -39.5t95 -30l168 579l24 -18l-164 -565q29 -4 59 -4q102 0 190.5 41t142.5 116t54 167q0 34 -7 64.5t-23.5 59t-35.5 53.5t-50 53.5t-60.5 53t-73.5 57.5q-35 27 -53 41t-48.5 38.5t-47 39.5t-40 39t-36 41.5t-28 42 t-23 46.5t-12.5 48.5t-5 53.5q0 76 35.5 141.5t96 109.5t140.5 68.5t168 24.5q16 0 33 -1l50 175h30l-52 -177q54 -5 103 -18.5t71 -24.5l23 -11l-12 -63q-3 3 -8.5 7.5t-24 17.5t-39.5 23.5t-54 21.5t-68 17l-133 -458l-23 17l128 444q-16 1 -33 1q-86 0 -162.5 -30.5 t-127.5 -92.5t-51 -142q0 -35 11.5 -66.5t28 -56.5t52.5 -57t67.5 -56t89.5 -65q54 -38 84 -60.5t72 -58t65 -65t46.5 -68t33.5 -81.5t10 -92q0 -98 -43.5 -177.5t-115 -128t-158 -74.5t-177.5 -26q-33 0 -67 4l-52 -181h-29l53 184q-35 6 -69.5 15.5t-61 20t-51 22 t-41.5 22.5t-30 19.5t-19 13.5z" />
			<glyph unicode="%" horiz-adv-x="1587" d="M130 1006q0 157 120 280t282 123q124 0 202 -77t78 -200q0 -102 -53.5 -195t-147 -150.5t-200.5 -57.5q-31 0 -52 4l14 26q18 -3 39 -3q88 0 156 63.5t101 154t33 185.5q0 97 -40.5 160t-130.5 63q-88 0 -156 -64t-101 -154.5t-33 -185.5q0 -109 45 -166l-25 -47 q-62 35 -96.5 97.5t-34.5 143.5zM188 -100l1178 1592h33l-1178 -1592h-33zM775 258q0 157 120.5 280.5t282.5 123.5q124 0 201.5 -77.5t77.5 -200.5q0 -102 -53.5 -195t-147 -150t-200.5 -57q-30 0 -51 4l13 25q18 -3 39 -3q88 0 156.5 63.5t101.5 154.5t33 186 q0 97 -40.5 160t-130.5 63q-88 0 -156.5 -64t-101.5 -155t-33 -186q0 -108 45 -165l-25 -48q-62 35 -96.5 97.5t-34.5 143.5z" />
			<glyph unicode="&#x26;" horiz-adv-x="1284" d="M-33 300q0 71 21 133t57.5 113t100.5 104.5t134 99t175 105.5l-23 37q-71 117 -71 243q0 123 80 202.5t204 79.5q106 0 162 -49.5t56 -133.5q0 -87 -52.5 -156t-150.5 -134l-15 27q141 111 141 258q0 73 -34.5 116.5t-102.5 43.5q-83 0 -133 -62t-50 -153q0 -111 70 -226 l420 -690q145 175 196 407h28q-57 -253 -208 -433l143 -232h-137l-508 829q-192 -119 -283 -240.5t-91 -277.5q0 -66 17.5 -119.5t55.5 -97t105 -68t159 -24.5q192 0 353 104l16 -23q-174 -110 -385 -110q-215 0 -332.5 84.5t-117.5 242.5z" />
			<glyph unicode="'" horiz-adv-x="290" d="M181 957l45 417q6 54 53 54q23 0 36.5 -14t13.5 -36q0 -9 -5 -29l-112 -392h-31z" />
			<glyph unicode="(" horiz-adv-x="585" d="M35 227q0 130 20 253.5t54.5 221.5t78.5 187.5t93 157.5t98 125.5t93 97t78.5 67.5t54.5 41l20 13h42q-11 -7 -30 -22t-73 -68.5t-103.5 -116t-110 -168t-103.5 -221.5t-73 -278.5t-30 -337.5q0 -137 16.5 -254t40 -186t47 -119t40.5 -70l16 -19h-41q-9 9 -24.5 27 t-55 82.5t-69.5 138.5t-54.5 195t-24.5 253z" />
			<glyph unicode=")" horiz-adv-x="585" d="M-172 -469q11 7 29.5 21.5t73 68t104 116.5t109.5 168t103.5 221t73 278.5t29.5 337.5q0 137 -16.5 254t-40 186.5t-47 119.5t-40.5 70l-16 19h41q9 -9 24.5 -27t55 -83t69.5 -139t55 -195t25 -253q0 -130 -20 -253.5t-54.5 -221.5t-78.5 -187.5t-93 -157t-98 -125.5 t-93 -97.5t-78.5 -67t-54.5 -40.5l-20 -13h-42z" />
			<glyph unicode="*" horiz-adv-x="897" d="M158 985q0 39 37 47l307 68l-259 180q-21 15 -21 39q0 20 14 33.5t34 13.5t34 -14l213 -234l26 315q1 19 15 31t32 12q23 0 35.5 -14t12.5 -32q0 -9 -2 -16l-96 -301l285 136q10 5 22 5q16 0 31 -12.5t15 -34.5q0 -39 -37 -47l-308 -69l260 -179q20 -14 20 -39 q0 -20 -14 -33.5t-34 -13.5q-19 0 -34 15l-214 233l-24 -314q-1 -19 -15 -31t-32 -12q-23 0 -35.5 14t-12.5 32q0 8 2 15l94 300l-284 -135q-10 -5 -21 -5q-16 0 -31 12.5t-15 34.5z" />
			<glyph unicode="+" horiz-adv-x="1122" d="M67 466l5 29h434l85 436h30l-85 -436h435l-5 -29h-436l-84 -434h-29l84 434h-434z" />
			<glyph unicode="," horiz-adv-x="423" d="M-15 51q0 43 28.5 72.5t80.5 29.5q49 0 78.5 -35.5t29.5 -90.5q0 -58 -20 -109.5t-49 -84t-58 -56.5t-49 -35l-20 -10l2 14q5 4 14.5 10.5t32.5 30t40.5 49.5t32 67t14.5 83q0 13 -2 23t-4 13l-1 4q-2 -5 -7.5 -12.5t-26 -19.5t-46.5 -12q-32 0 -51 18.5t-19 50.5z" />
			<glyph unicode="-" horiz-adv-x="830" d="M60 434l6 29h607l-5 -29h-608z" />
			<glyph unicode="." horiz-adv-x="390" d="M-14 52q0 42 29 70.5t70 28.5q32 0 53 -20t21 -51q0 -41 -29.5 -69.5t-70.5 -28.5q-32 0 -52.5 19.5t-20.5 50.5z" />
			<glyph unicode="/" horiz-adv-x="832" d="M-96 -152l991 1695h34l-991 -1695h-34z" />
			<glyph unicode="0" horiz-adv-x="1178" d="M78 489q0 138 36 276.5t100 254t145.5 205.5t178.5 141t192 51q160 0 266 -136.5t106 -380.5q0 -173 -57 -343.5t-147.5 -298t-209.5 -206.5t-238 -79q-67 0 -135 29l17 29q50 -29 111 -29q110 0 213 90t173.5 230.5t113 313.5t42.5 339q0 208 -65.5 311t-183.5 103 q-112 0 -214.5 -91t-173 -232.5t-112 -314.5t-41.5 -337q0 -204 65 -309l-29 -48q-153 138 -153 432z" />
			<glyph unicode="1" horiz-adv-x="1053" d="M-108 0l6 29h447l246 1262l-335 -212l7 37l476 301l-270 -1388h447l-5 -29h-1019z" />
			<glyph unicode="2" horiz-adv-x="1007" d="M-95 0q65 42 157 113h780l-65 -113h-872zM185 211q86 72 162.5 144.5t159 169.5t141.5 190.5t97.5 202t38.5 209.5q0 127 -53.5 194.5t-160.5 67.5q-63 0 -123 -25t-100.5 -60t-72 -70.5t-46.5 -60.5l-15 -25l17 100q5 7 14 18.5t41.5 40.5t70.5 51t101.5 40.5 t132.5 18.5q162 0 241 -88t79 -225q0 -103 -48 -215.5t-117.5 -205.5t-165.5 -189t-173 -159.5t-159 -123.5h-62z" />
			<glyph unicode="3" horiz-adv-x="1060" d="M-16 104l13 64q4 -7 13 -18t41 -39.5t70 -50.5t102.5 -40t135.5 -18q200 0 323 121t123 338q0 177 -88 256q29 9 71 29q73 -49 112 -128t39 -175q0 -93 -36.5 -176.5t-105.5 -149.5t-179 -105t-246 -39q-78 0 -147 13.5t-111 32.5t-73 38.5t-44 32.5zM244 1149l18 91 q4 7 12 19t39 42.5t69 54t102.5 42.5t137.5 19q151 0 226 -69t75 -185q0 -186 -167 -307t-429 -121l20 29q9 5 26 13t76 21t126 13q106 50 170.5 142.5t64.5 214.5q0 107 -52 164t-146 57q-67 0 -130 -24.5t-104.5 -60t-73 -71t-46.5 -59.5z" />
			<glyph unicode="4" horiz-adv-x="1223" d="M-2 429l979 989l-187 -960h324l-5 -29h-325l-83 -429h-123l235 1212l-750 -754h504l-5 -29h-564z" />
			<glyph unicode="5" horiz-adv-x="1064" d="M-1 98l13 67q4 -7 11.5 -18t35.5 -39t61.5 -49.5t90 -39t120.5 -17.5q141 0 253 78.5t173 213t61 298.5q0 346 -304 346q-112 0 -212 -51l11 33q99 47 217 47q188 0 301 -109t113 -287q0 -81 -24.5 -164.5t-75 -161.5t-120 -138.5t-169 -97t-212.5 -36.5q-67 0 -127.5 13 t-98.5 31.5t-66 36.5t-40 31zM132 775l210 615h663l-62 -113h-612l-168 -502h-31z" />
			<glyph unicode="6" horiz-adv-x="1119" d="M31 421q0 114 34.5 226.5t92.5 206t134 179t160.5 151t170.5 116t164 80t142 37.5l-6 -28q-96 -22 -202.5 -83.5t-208.5 -159t-184 -214t-132 -262t-50 -291.5q0 -175 72 -276t210 -101q82 0 156.5 34t130 92.5t96.5 135t62 163.5t21 176q0 163 -71 249t-201 86 q-113 0 -213 -65q28 50 31 55q86 39 189 39q168 0 278.5 -104.5t110.5 -292.5q0 -122 -50 -233.5t-131 -190.5t-187 -126t-216 -47q-83 0 -154.5 27.5t-127.5 81t-88.5 140.5t-32.5 199z" />
			<glyph unicode="7" horiz-adv-x="1045" d="M94 0l894 1391h130l-892 -1391h-132zM221 1362l5 29h664l-19 -29h-650z" />
			<glyph unicode="8" horiz-adv-x="1145" d="M-6 294q0 269 380 440l30 -22q-137 -71 -220.5 -174.5t-83.5 -238.5q0 -61 19 -111.5t51.5 -84.5t77 -57t94 -33.5t104.5 -10.5q188 0 322.5 110t134.5 256q0 60 -27 112.5t-71.5 90t-101 75t-115 67.5t-115 68.5t-101 78t-71.5 94.5t-27 119q0 148 125.5 246t300.5 98 q151 0 236 -74.5t85 -181.5q0 -168 -224 -294l-34 20q184 111 184 282q0 103 -65.5 161.5t-181.5 58.5q-137 0 -230.5 -76t-93.5 -185q0 -63 35.5 -114.5t92 -89t125.5 -73t137.5 -75.5t125 -86.5t92 -115.5t35.5 -154q0 -189 -158.5 -318t-421.5 -129q-205 0 -325 83.5 t-120 237.5z" />
			<glyph unicode="9" horiz-adv-x="1119" d="M101 820q0 122 50 233.5t131 190.5t187 126t216 47q83 0 154.5 -27.5t128 -80.5t89 -140t32.5 -199q0 -133 -46 -262.5t-122 -233.5t-171.5 -195t-196.5 -154t-194.5 -102.5t-168.5 -49.5l7 29q83 21 174.5 71t183.5 125t175.5 182.5t139.5 230.5q-20 -24 -42.5 -47 t-59 -49.5t-76 -45.5t-92.5 -32t-110 -13q-168 0 -278.5 104t-110.5 292zM225 787q0 -163 71.5 -248.5t201.5 -85.5q131 0 241.5 84t172 220t61.5 289q0 164 -74 253.5t-208 89.5q-82 0 -156.5 -34t-130 -93t-96.5 -135t-62 -163.5t-21 -176.5z" />
			<glyph unicode=":" horiz-adv-x="390" d="M-14 52q0 42 29 70.5t70 28.5q32 0 53 -20t21 -51q0 -41 -29.5 -69.5t-70.5 -28.5q-32 0 -52.5 19.5t-20.5 50.5zM134 818q0 42 29 70t70 28q32 0 53 -19.5t21 -50.5q0 -42 -29 -70t-70 -28q-32 0 -53 19.5t-21 50.5z" />
			<glyph unicode=";" horiz-adv-x="423" d="M-15 51q0 43 28.5 72.5t80.5 29.5q49 0 78.5 -35.5t29.5 -90.5q0 -58 -20 -109.5t-49 -84t-58 -56.5t-49 -35l-20 -10l2 14q5 4 14.5 10.5t32.5 30t40.5 49.5t32 67t14.5 83q0 13 -2 23t-4 13l-1 4q-2 -5 -7.5 -12.5t-26 -19.5t-46.5 -12q-32 0 -51 18.5t-19 50.5z M134 818q0 42 29 70t70 28q32 0 53 -19.5t21 -50.5q0 -42 -29 -70t-70 -28q-32 0 -53 19.5t-21 50.5z" />
			<glyph unicode="&#x3c;" horiz-adv-x="1084" d="M36 465l6 30l967 387l-7 -33l-931 -371l787 -373l-5 -27z" />
			<glyph unicode="=" horiz-adv-x="1115" d="M37 308l5 29h892l-5 -29h-892zM98 625l6 28h892l-6 -28h-892z" />
			<glyph unicode="&#x3e;" horiz-adv-x="1084" d="M-8 78l6 33l932 370l-788 373l5 28l818 -387l-7 -30z" />
			<glyph unicode="?" horiz-adv-x="948" d="M148 52q0 42 29.5 70.5t70.5 28.5q32 0 53 -20t21 -51q0 -41 -29.5 -69.5t-70.5 -28.5q-32 0 -53 19.5t-21 50.5zM153 1148l17 92q5 7 15.5 19t47.5 42.5t78.5 54t108.5 42.5t139 19q97 0 174.5 -29t126 -79t74 -115t25.5 -138q0 -85 -31.5 -162t-78.5 -133t-113.5 -106 t-124 -81t-124 -58t-98.5 -37t-61 -18l-29 -149h-31l34 172q11 3 29.5 9t73 29t104 51.5t109.5 78.5t103.5 107.5t73 140.5t29.5 175q0 65 -14.5 119.5t-45 99.5t-84 70t-126.5 25q-76 0 -145.5 -25t-114 -60t-78 -70.5t-48.5 -60.5z" />
			<glyph unicode="@" horiz-adv-x="1637" d="M85 434q0 167 65.5 321.5t176.5 268t266.5 181.5t326.5 68q191 0 336.5 -83t220.5 -222t75 -311q0 -139 -49 -253t-139 -180.5t-204 -66.5q-90 0 -138 41t-48 120q0 52 29 175.5t29 186.5q0 71 -32 119.5t-101 48.5q-78 0 -145.5 -64t-105.5 -163t-38 -203 q0 -95 35.5 -148t105.5 -53q74 0 139 70l5 -47q-85 -83 -195 -83q-90 0 -147 66.5t-57 189.5t57 235.5t148 179.5t187 67q52 0 89 -19.5t54.5 -52t24.5 -64.5t7 -67l55 182h107l-122 -398q-37 -122 -37 -170q0 -102 114 -102q96 0 172 66.5t115.5 172.5t39.5 228 q0 167 -76.5 297.5t-210.5 202t-301 71.5q-203 0 -371 -105t-264.5 -286t-96.5 -397q0 -136 40.5 -250.5t117 -200.5t197 -134t271.5 -48q93 0 184 18t155 43.5t114.5 51.5t75.5 44l25 18l14 -22q-10 -8 -29 -21.5t-81 -47.5t-128 -59.5t-165 -47t-198 -21.5q-198 0 -355 78 t-248.5 229t-91.5 350z" />
			<glyph unicode="A" horiz-adv-x="1257" d="M-67 0l838 1426l283 -1426h-125l-244 1225l-446 -762h497l5 -29h-520l-254 -434h-34z" />
			<glyph unicode="B" horiz-adv-x="1082" d="M-5 0l269 1391h272q183 0 286.5 -65t103.5 -193q0 -118 -87 -207.5t-230 -127.5q160 -21 258 -109.5t98 -234.5q0 -136 -85.5 -241t-223 -159t-299.5 -54h-141l5 29h123q217 0 352 123t135 318q0 149 -86 227t-256 78h-122l6 29h65q172 0 274 91t102 241 q0 113 -64.5 169.5t-202.5 56.5h-165l-264 -1362h-123z" />
			<glyph unicode="C" horiz-adv-x="1390" d="M71 547q0 179 70 340.5t188 277.5t279.5 184t338.5 68q238 0 407 -98l-15 -73q-72 68 -174 105.5t-220 37.5q-141 0 -274 -62.5t-235.5 -172.5t-164 -272.5t-61.5 -349.5q0 -167 61 -289t171 -184l-20 -41q-163 64 -257 204.5t-94 324.5zM521 -10l16 30q65 -18 139 -18 q133 0 262 50.5t233 135.5l-15 -78q-210 -137 -482 -137q-71 0 -153 17z" />
			<glyph unicode="D" horiz-adv-x="1312" d="M-5 0l270 1391h317q147 0 272.5 -45t212 -123.5t135.5 -186.5t49 -231q0 -115 -34 -221.5t-95 -195t-147.5 -161t-190 -122.5t-223.5 -77.5t-247 -27.5h-97l5 29h105q116 0 229.5 33t214.5 100t178.5 159t123 220t45.5 273q0 258 -144 403t-388 145h-203l-264 -1362h-124 z" />
			<glyph unicode="E" horiz-adv-x="998" d="M-5 0l270 1391h765l-5 -29h-641l-265 -1362h-124zM217 0l5 29h543l-5 -29h-543zM352 695l5 29h444l-5 -29h-444z" />
			<glyph unicode="F" horiz-adv-x="967" d="M-5 0l270 1391h765l-5 -29h-641l-265 -1362h-124zM352 695l5 29h444l-5 -29h-444z" />
			<glyph unicode="G" horiz-adv-x="1483" d="M71 547q0 179 70 340.5t188 277.5t279.5 184t338.5 68q130 0 249.5 -30.5t200.5 -83.5l-15 -73q-70 75 -188 117t-249 42q-142 0 -275 -62t-235.5 -171.5t-164.5 -272.5t-62 -351q0 -168 61.5 -289.5t172.5 -183.5l-20 -41q-163 64 -257 204.5t-94 324.5zM521 -10l16 30 q65 -18 139 -18q146 0 246.5 30t196.5 81l116 597h123l-114 -584q-230 -153 -570 -153q-71 0 -153 17z" />
			<glyph unicode="H" horiz-adv-x="1369" d="M-5 0l270 1391h124l-270 -1391h-124zM352 695l5 29h763l130 667h124l-270 -1391h-124l135 695h-763z" />
			<glyph unicode="I" horiz-adv-x="406" d="M6 0l270 1391h124l-270 -1391h-124z" />
			<glyph unicode="J" horiz-adv-x="406" d="M-366 -496l6 29q56 33 95 62t89.5 83.5t87 121t73 171.5t62.5 238l229 1182h124l-215 -1106q-21 -110 -53.5 -207.5t-69.5 -168.5t-79 -131.5t-83 -101t-80 -72.5t-72.5 -50.5t-59 -30t-40.5 -15.5z" />
			<glyph unicode="K" horiz-adv-x="1206" d="M-5 0l270 1391h125l-270 -1391h-125zM325 544l9 50l772 797h39l-529 -545l421 -846h-134l-376 754z" />
			<glyph unicode="L" horiz-adv-x="901" d="M-5 0l270 1391h124l-270 -1391h-124zM217 0l5 29h470l-5 -29h-470z" />
			<glyph unicode="M" horiz-adv-x="1891" d="M-26 0l484 1414l386 -1306l-91 -132l-351 1186l-396 -1162h-32zM908 255l804 1159l-65 -1414h-127l54 1164l-654 -946z" />
			<glyph unicode="N" horiz-adv-x="1315" d="M-5 0l274 1414l811 -1261l-33 -177l-790 1225l-232 -1201h-30zM1086 341l205 1050h30l-211 -1086z" />
			<glyph unicode="O" d="M71 553q0 170 73.5 330.5t193 276.5t279.5 186.5t326 70.5q178 0 320.5 -74t224 -208t81.5 -302q0 -115 -34 -226.5t-93.5 -205t-143 -174t-179.5 -136t-205 -87t-218 -31.5q-83 0 -173 20l16 30q79 -21 160 -21q144 0 279.5 72t235 191.5t159.5 282.5t60 336 q0 238 -135.5 371.5t-357.5 133.5q-116 0 -227 -46.5t-201.5 -130t-159.5 -193t-107 -243t-38 -271.5q0 -161 62 -274.5t174 -171.5l-18 -35q-163 67 -258.5 205.5t-95.5 323.5z" />
			<glyph unicode="P" horiz-adv-x="1028" d="M-5 0l270 1391h350q88 0 161.5 -18.5t132 -56t91.5 -101t33 -148.5q0 -100 -45.5 -182t-123 -135.5t-179 -82.5t-215.5 -29h-129l5 29h111q205 0 325 114t120 305q0 140 -74 208t-236 68h-208l-265 -1362h-124z" />
			<glyph unicode="Q" d="M71 553q0 170 73.5 330.5t193 276.5t279.5 186.5t326 70.5q178 0 320.5 -74t224 -208t81.5 -302q0 -172 -74 -332t-199 -277.5t-281 -183.5q36 0 70 -13l538 -217h-85l-466 190q-43 17 -89 17q-27 0 -53 -8q-114 -36 -234 -36q-83 0 -173 20l16 30q79 -21 160 -21 q144 0 279.5 72t235 191.5t159.5 282.5t60 336q0 238 -135.5 371.5t-357.5 133.5q-116 0 -227 -46.5t-201.5 -130t-159.5 -193t-107 -243t-38 -271.5q0 -161 62 -274.5t174 -171.5l-18 -35q-163 67 -258.5 205.5t-95.5 323.5z" />
			<glyph unicode="R" horiz-adv-x="1105" d="M-5 0l270 1391h366q88 0 161.5 -18.5t132 -56t91.5 -101t33 -148.5q0 -100 -45.5 -182t-123.5 -135.5t-179.5 -82.5t-215.5 -29h-84l-31 29h102q205 0 325.5 114t120.5 305q0 140 -74 208t-237 68h-223l-138 -712l699 -650h-41l-664 616l-121 -616h-124z" />
			<glyph unicode="S" horiz-adv-x="1005" d="M-24 109l14 68q5 -7 15.5 -18t46 -39.5t75.5 -50.5t104.5 -40t132.5 -18q100 0 189 40.5t145.5 116t56.5 167.5q0 93 -60 166.5t-197 174.5q-65 48 -97 73t-78.5 68t-68.5 76t-39 78.5t-17 94.5q0 101 62.5 181t164.5 121.5t224 41.5q69 0 134.5 -14t96.5 -28l31 -15 l-12 -63q-4 4 -11.5 10t-32.5 21.5t-53 27.5t-72 22t-89 10q-90 0 -169 -30.5t-131.5 -92.5t-52.5 -142q0 -35 12 -66.5t29 -56.5t54.5 -57t69 -55.5t92.5 -65.5q55 -38 84 -59.5t73 -57.5t67 -65t47.5 -68t35 -82.5t10.5 -92.5q0 -79 -29 -146t-78.5 -114t-114.5 -80.5 t-137 -49.5t-146 -16q-65 0 -128.5 13t-107 31t-78 36.5t-51.5 31.5z" />
			<glyph unicode="T" horiz-adv-x="1176" d="M215 1362l5 29h1007l-5 -29h-442l-265 -1362h-123l265 1362h-442z" />
			<glyph unicode="U" horiz-adv-x="1207" d="M72 386q0 126 32 285l141 720h124l-152 -777q-38 -191 -38 -298q0 -149 80.5 -230t236.5 -81q195 0 331 116q91 78 138 188.5t76 257.5l161 824h31l-161 -827q-32 -166 -81 -274.5t-144 -190.5q-142 -123 -354 -123q-203 0 -312 102t-109 308z" />
			<glyph unicode="V" horiz-adv-x="1241" d="M196 1391h126l251 -1257l-92 -158zM644 310l639 1081h33l-664 -1125z" />
			<glyph unicode="W" horiz-adv-x="2039" d="M206 1391h125l217 -1241l-95 -174zM624 349l590 1065l219 -1262l-95 -176l-212 1222l-494 -896zM1504 346l568 1045h32l-592 -1093z" />
			<glyph unicode="X" horiz-adv-x="1200" d="M-60 0l528 618l13 -28l-504 -590h-37zM214 1391h137l281 -580l494 580h38l-519 -609l379 -782h-137z" />
			<glyph unicode="Y" horiz-adv-x="1191" d="M198 1391h129l309 -788l-117 -603h-124l116 594zM703 719l525 672h37l-549 -704z" />
			<glyph unicode="Z" horiz-adv-x="1059" d="M-69 0l1014 1362h-665l5 29h817l-1036 -1391h-135zM174 0l21 29h662l-5 -29h-678z" />
			<glyph unicode="[" horiz-adv-x="542" d="M-115 -469l362 1860h377l-6 -29h-265l-351 -1802h265l-5 -29h-377z" />
			<glyph unicode="\" horiz-adv-x="832" d="M193 1543h29l336 -1695h-30z" />
			<glyph unicode="]" horiz-adv-x="542" d="M-172 -469l5 29h265l352 1802h-266l5 29h377l-361 -1860h-377z" />
			<glyph unicode="^" horiz-adv-x="588" d="M119 881l315 533l108 -533h-109l-72 353l-209 -353h-33z" />
			<glyph unicode="_" horiz-adv-x="1172" d="M-13 0l5 29h929l-6 -29h-928z" />
			<glyph unicode="`" horiz-adv-x="544" d="M226 1286q0 21 13 34.5t34 13.5q33 0 58 -38l178 -259l-32 -5l-223 202q-28 26 -28 52z" />
			<glyph unicode="a" horiz-adv-x="987" d="M-12 194q0 42 11 77.5t28.5 63t49.5 53t62.5 44t81 40t91 36t105.5 36.5q150 50 203 89.5t53 118.5q0 62 -40 99t-122 37q-51 0 -102 -15t-87.5 -36t-65.5 -42.5t-44 -36.5l-14 -15l14 76q4 4 12.5 10.5t38 23t62.5 29.5t85.5 23.5t108.5 10.5q74 0 126 -19t78.5 -52 t37.5 -68.5t11 -77.5q0 -47 -13 -112l-64 -329q-14 -73 -14 -124q0 -59 20 -82t48 -23q13 0 25.5 4t18.5 8l6 4l-4 -25q-24 -20 -72 -20q-70 0 -104.5 51.5t-34.5 131.5q0 79 23 195l40 200q12 59 15 77q-26 -42 -74 -68t-172 -74q-82 -32 -132 -57t-95.5 -61.5t-65.5 -83.5 t-20 -110q0 -82 51 -134.5t132 -52.5q119 0 218 96l6 -26q-104 -98 -261 -98q-120 0 -190.5 55t-70.5 153z" />
			<glyph unicode="b" horiz-adv-x="1050" d="M-9 0l270 1391h112l-127 -653q135 178 341 178q159 0 253 -99t94 -259q0 -149 -69 -281t-189.5 -211.5t-261.5 -79.5q-127 0 -202 70l11 57q66 -99 189 -99q116 0 211.5 82.5t146.5 212.5t51 275q0 143 -60.5 223.5t-180.5 80.5q-138 0 -244.5 -124.5t-142.5 -307.5 l-91 -456h-111z" />
			<glyph unicode="c" horiz-adv-x="927" d="M22 368q0 145 72.5 271t199 201.5t275.5 75.5q79 0 144.5 -22t91.5 -44l26 -21l-15 -73q-2 5 -7.5 14t-25.5 32t-45.5 40t-69 31.5t-94.5 14.5q-94 0 -177.5 -47t-140.5 -124t-89.5 -176t-32.5 -201q0 -165 83 -251l-26 -49q-82 47 -125.5 132t-43.5 196zM287 1l16 32 q52 -19 116 -19q55 0 106.5 15t81.5 31.5t61.5 43t36.5 32.5l15 18l-18 -87q-13 -9 -36.5 -22.5t-99.5 -36t-154 -22.5q-62 0 -125 15z" />
			<glyph unicode="d" horiz-adv-x="1050" d="M22 344q0 149 69 281t189.5 211.5t261.5 79.5q212 0 276 -193l130 668h112l-270 -1391h-112l86 450q16 85 16 156q0 126 -62.5 204t-173.5 78q-116 0 -211.5 -82.5t-147 -212.5t-51.5 -275q0 -143 61 -223.5t181 -80.5q128 0 228 106l-14 -69q-100 -65 -221 -65 q-159 0 -253 99t-94 259z" />
			<glyph unicode="e" horiz-adv-x="962" d="M22 353q0 110 41.5 213.5t111 180t165 123t197.5 46.5q151 0 232 -96t81 -252l-6 -88h-590l5 29h471q8 53 8 113q0 125 -51 195.5t-157 70.5q-107 0 -199.5 -82.5t-144.5 -213.5t-52 -274q0 -138 62.5 -221t179.5 -83q62 0 120 17.5t96.5 43t68.5 51t44 42.5l14 18 l-16 -77q-5 -5 -14 -13.5t-40 -29.5t-66 -37t-90.5 -29.5t-114.5 -13.5q-158 0 -257 104t-99 263z" />
			<glyph unicode="f" horiz-adv-x="678" d="M85 0l169 870h-154l6 29h153l29 149q17 91 45.5 157.5t60 105.5t73 61.5t79 30t83.5 7.5q41 0 82.5 -9t62.5 -17l21 -9l-12 -61q-2 3 -6 7.5t-18 16t-31 20.5t-45.5 16t-59.5 7q-77 0 -128 -54.5t-79 -201.5l-44 -226h269l-6 -29h-269l-169 -870h-112z" />
			<glyph unicode="g" horiz-adv-x="1026" d="M-140 -256q0 63 51 116t134 90l71 -18q-150 -72 -150 -188q0 -93 94 -146t231 -53q160 0 281 69.5t121 176.5q0 53 -38 92t-99 60.5t-135 36.5t-147.5 26t-134.5 23t-99 32.5t-38 50.5q0 78 322 106q-109 24 -173 101t-64 186q0 108 61 202.5t167 151.5t229 57 q20 0 56 -4l-14 -27q-18 3 -40 3q-103 0 -183.5 -59t-120.5 -150.5t-40 -194.5q0 -113 53 -179t161 -66q100 0 179.5 57.5t121.5 150t42 199.5q0 141 -78 201l20 40q78 -35 123 -101q67 47 85 147h115q-11 -54 -65.5 -102.5t-119.5 -68.5q32 -64 32 -141 q0 -125 -75.5 -223.5t-191.5 -145.5q-78 -32 -221 -51q-36 -5 -60.5 -8.5t-59 -9.5t-57 -12.5t-44.5 -15t-32.5 -19.5t-10.5 -24q0 -24 37.5 -41.5t97.5 -29t132.5 -22.5t145.5 -28t133 -40.5t97.5 -64t37.5 -94.5q0 -78 -74 -142t-190.5 -98.5t-245.5 -34.5 q-176 0 -303 63.5t-127 163.5z" />
			<glyph unicode="h" horiz-adv-x="1003" d="M-9 0l270 1391h112l-271 -1391h-111zM345 742l7 44q123 130 281 130q118 0 177 -69.5t59 -170.5q0 -58 -14 -133l-106 -543h-112l112 573q16 87 16 141q0 81 -33.5 127.5t-116.5 46.5q-143 0 -270 -146z" />
			<glyph unicode="i" horiz-adv-x="387" d="M3 0l175 899h112l-175 -899h-112zM200 1156q0 42 28.5 69.5t69.5 27.5q32 0 53 -19.5t21 -50.5q0 -42 -29 -70t-70 -28q-32 0 -52.5 20t-20.5 51z" />
			<glyph unicode="j" horiz-adv-x="387" d="M-312 -469l4 23q89 67 128 109q124 134 197 425q17 69 32 148l129 663h112l-115 -588q-24 -123 -56.5 -226.5t-64.5 -175.5t-74.5 -132.5t-75 -96.5t-77.5 -68t-72 -47t-67 -34zM200 1156q0 42 28.5 69.5t69.5 27.5q32 0 53 -19.5t21 -50.5q0 -42 -29 -70t-70 -28 q-32 0 -52.5 20t-20.5 51z" />
			<glyph unicode="k" horiz-adv-x="949" d="M-9 0l270 1391h112l-271 -1391h-111zM270 353l10 46l524 500h40l-363 -345l307 -554h-124l-264 476z" />
			<glyph unicode="l" horiz-adv-x="387" d="M3 0l270 1391h112l-270 -1391h-112z" />
			<glyph unicode="m" horiz-adv-x="1579" d="M-9 0l175 899h112l-176 -899h-111zM347 757l8 42q112 117 250 117q108 0 169 -67.5t61 -173.5q0 -40 -10 -95l-112 -580h-112l113 580q15 80 15 136q0 172 -141 172q-128 0 -241 -131zM927 753q126 163 290 163q107 0 168 -67t61 -174q0 -45 -9 -95l-113 -580h-112 l113 580q15 80 15 136q0 172 -141 172q-143 0 -268 -166z" />
			<glyph unicode="n" horiz-adv-x="1003" d="M-9 0l175 899h112l-176 -899h-111zM345 742l7 44q123 130 281 130q118 0 177 -69.5t59 -170.5q0 -58 -14 -133l-106 -543h-112l112 573q16 87 16 141q0 81 -33.5 127.5t-116.5 46.5q-143 0 -270 -146z" />
			<glyph unicode="o" horiz-adv-x="1015" d="M22 353q0 147 70 277t190.5 208t259.5 78q158 0 257 -104t99 -263q0 -147 -70 -277t-190.5 -208t-259.5 -78q-47 0 -94 11l13 27q33 -10 79 -10q116 0 211.5 83t146.5 213t51 274q0 138 -62 221t-179 83q-88 0 -165.5 -49t-130.5 -129t-83.5 -182.5t-30.5 -209.5 q0 -158 78 -239l-23 -44q-78 47 -122.5 130.5t-44.5 187.5z" />
			<glyph unicode="p" horiz-adv-x="1050" d="M-100 -469l266 1368h112l-32 -161q135 178 341 178q159 0 253 -99t94 -259q0 -149 -69 -281t-189.5 -211.5t-261.5 -79.5q-127 0 -202 70l11 57q66 -99 189 -99q116 0 211.5 82.5t146.5 212.5t51 275q0 143 -60.5 223.5t-180.5 80.5q-138 0 -244.5 -124.5t-142.5 -307.5 l-182 -925h-111z" />
			<glyph unicode="q" horiz-adv-x="1050" d="M22 344q0 149 69 281t189.5 211.5t261.5 79.5q212 0 276 -193l35 176h112l-267 -1368h-111l177 919q16 85 16 156q0 126 -62.5 204t-173.5 78q-116 0 -211.5 -82.5t-147 -212.5t-51.5 -275q0 -143 61 -223.5t181 -80.5q128 0 228 106l-14 -69q-98 -65 -221 -65 q-159 0 -253 99t-94 259z" />
			<glyph unicode="r" horiz-adv-x="665" d="M-9 0l175 899h112l-64 -324q49 115 141 211q127 132 287 132l-18 -95q-163 0 -286 -121t-160 -314l-76 -388h-111z" />
			<glyph unicode="s" horiz-adv-x="867" d="M-32 91l15 70q3 -4 9.5 -11t28 -26.5t46 -36t62.5 -34t78 -27.5l-16 -30q-69 12 -125 35.5t-77 41.5zM97 677q0 108 102.5 173.5t246.5 65.5q80 0 150.5 -18t100.5 -36l30 -18l-13 -63q-4 4 -11 11.5t-31.5 26t-52 32.5t-73 25.5t-93.5 11.5q-66 0 -125 -17.5 t-101.5 -58.5t-42.5 -98q0 -55 44 -90.5t161 -87.5q46 -20 72 -32t63.5 -31.5t59 -34.5t46.5 -36.5t37.5 -43t21.5 -48.5t9 -58q0 -51 -20.5 -96t-63 -84.5t-119.5 -62.5t-180 -23h-15l14 28q136 1 206 52t70 139q0 23 -7.5 44.5t-16.5 37t-30.5 34t-36 29t-47.5 28.5 t-50 26t-58 28q-51 24 -80 39.5t-65.5 39.5t-55.5 46t-32.5 53t-13.5 67z" />
			<glyph unicode="t" horiz-adv-x="651" d="M100 870l5 29h154l49 249l127 79l-64 -328h259l-5 -29h-259l-85 -432q-43 -217 -43 -290q0 -128 123 -128q15 0 29 3t20 7l7 3l-6 -31q-18 -10 -67 -10q-105 0 -153 62.5t-48 150.5q0 108 36 285l75 380h-154z" />
			<glyph unicode="u" horiz-adv-x="1003" d="M39 223q0 58 14 133l107 543h111l-111 -573q-17 -92 -17 -141q0 -81 33.5 -126t116.5 -45q145 0 270 143l-7 -44q-120 -127 -281 -127q-118 0 -177 68t-59 169zM631 0l175 899h112l-176 -899h-111z" />
			<glyph unicode="v" horiz-adv-x="929" d="M100 899h113l195 -791l-82 -130zM474 270l400 629h35l-426 -672z" />
			<glyph unicode="w" horiz-adv-x="1526" d="M109 899h112l148 -788l-85 -133zM442 279l417 642l187 -803l-81 -140l-181 776l-333 -517zM1112 288l353 611h33l-377 -650z" />
			<glyph unicode="x" horiz-adv-x="927" d="M-73 0l364 379l14 -25l-340 -354h-38zM100 899h126l213 -364l351 364h37l-373 -389l299 -510h-127z" />
			<glyph unicode="y" horiz-adv-x="933" d="M16 -469l309 486l-215 882h112l194 -793l-365 -575h-35zM479 260l406 639h34l-431 -678z" />
			<glyph unicode="z" horiz-adv-x="825" d="M-67 0l704 870h-491l7 29h629l-728 -899h-121zM180 0l23 29h428l-5 -29h-446z" />
			<glyph unicode="{" horiz-adv-x="539" d="M-61 -206q0 67 24 138t58.5 130t69 115t58.5 112t24 102q0 42 -20 59q-21 -6 -42 -6q-15 0 -26.5 2t-15.5 4l-4 3l3 16q18 8 47 8q23 0 41 -7q54 24 54 139q0 66 -21 205.5t-21 212.5q0 364 398 364h55l-6 -28q-87 0 -144 -15.5t-102 -57.5t-65.5 -120.5t-20.5 -200.5 q0 -21 1 -90.5t1 -91.5q0 -273 -109 -328q40 -31 40 -110q0 -61 -25.5 -139t-56 -142t-56 -146.5t-25.5 -150.5q0 -96 49.5 -155.5t161.5 -59.5l-5 -25q-49 0 -92 7t-86 26t-73.5 48t-49.5 75.5t-19 106.5z" />
			<glyph unicode="|" horiz-adv-x="354" d="M-55 -427l387 1990h29l-387 -1990h-29z" />
			<glyph unicode="}" horiz-adv-x="539" d="M-172 -469l5 28q87 0 144 15.5t102 57.5t66 120.5t21 200.5q0 21 -1 90t-1 91q0 273 108 329q-40 28 -40 109q0 61 25.5 139t56 142.5t56 147t25.5 150.5q0 96 -49.5 155.5t-161.5 59.5l5 25q48 0 92 -7.5t86.5 -26t73.5 -47.5t50 -76t19 -107q0 -67 -24 -138t-59 -130 t-69.5 -115t-58.5 -112t-24 -102q0 -41 20 -58q17 5 43 5q15 0 26.5 -2t15.5 -4l4 -2l-3 -16q-18 -9 -47 -9q-21 0 -42 8q-53 -25 -53 -140q0 -66 21 -205t21 -212q0 -364 -399 -364h-54z" />
			<glyph unicode="~" horiz-adv-x="1178" d="M51 385q9 21 19.5 39.5t34 47t51.5 48t73 34.5t97 15q55 0 120.5 -23.5t116 -51t111.5 -51t107 -23.5q49 0 92 17t70.5 44t44 50t25.5 44h30q-79 -184 -274 -184q-55 0 -120.5 23.5t-116 51.5t-111.5 51.5t-107 23.5q-49 0 -91.5 -17t-70 -45t-43.5 -50t-27 -44h-31z" />
			<glyph unicode="&#xa1;" horiz-adv-x="390" d="M-85 -436q0 16 4 33l244 1012h30l-153 -1035q-10 -70 -64 -70q-30 0 -45.5 18.5t-15.5 41.5zM139 844q0 39 29.5 67.5t69.5 28.5q33 0 53.5 -20t20.5 -53q0 -40 -29 -68t-69 -28q-33 0 -54 20t-21 53z" />
			<glyph unicode="&#xa2;" horiz-adv-x="927" d="M22 368q0 145 72.5 271t199 201.5t275.5 75.5q26 0 38 -1l-17 -27h-16q-94 0 -177.5 -47t-140.5 -124t-89.5 -176t-32.5 -201q0 -150 68 -235l593 925h31l-92 -143q29 -11 53.5 -25.5t34.5 -23.5l9 -9l-15 -73q-3 7 -10 18t-33.5 37.5t-58.5 43.5l-631 -985h-32l118 184 q-71 50 -109 130.5t-38 183.5zM287 1l19 31q48 -18 113 -18q55 0 106.5 15t81.5 31.5t61.5 43t36.5 32.5l15 18l-18 -87q-13 -9 -36.5 -22.5t-99.5 -36t-154 -22.5q-62 0 -125 15z" />
			<glyph unicode="&#xa3;" horiz-adv-x="1167" d="M-89 0q93 35 190 113h876l-65 -113h-1001zM117 681l6 29h180q-4 26 -13.5 76t-15 81.5t-10 74.5t-4.5 78q0 99 32.5 177t88.5 125t125 71t146 24q69 0 129 -19.5t95.5 -46.5t61.5 -54.5t36 -46.5l10 -20l-13 -82q-3 10 -9 26t-31 57.5t-57 73.5t-90 58t-127 26 q-125 0 -203.5 -83t-78.5 -256q0 -57 12.5 -180.5t14.5 -159.5h389l-7 -29h-380q2 -19 2 -35q0 -251 -163 -435h-41q120 145 120 330q0 44 -14 140h-191z" />
			<glyph unicode="&#xa4;" horiz-adv-x="894" d="M122 391l153 153q-57 63 -57 151q0 87 56 151l-152 153l21 21l153 -153q66 58 151 58q84 0 152 -58l153 153l21 -21l-153 -153q57 -63 57 -151q0 -86 -57 -151l153 -153l-21 -20l-153 152q-65 -57 -152 -57q-38 0 -74 12l18 19q25 -9 56 -9q84 0 142.5 61.5t58.5 145.5 t-58.5 145.5t-142.5 61.5t-142 -61.5t-58 -145.5q0 -93 67 -154l-171 -170z" />
			<glyph unicode="&#xa5;" horiz-adv-x="1130" d="M101 482l5 29h359l17 92l-57 163h-268l5 29h253l-217 596h130l280 -773l-19 -107h368l-5 -29h-368l-95 -482h-123l94 482h-359zM673 721l495 670h35l-440 -596h250l-5 -29h-267l-57 -77z" />
			<glyph unicode="&#xa6;" horiz-adv-x="354" d="M-55 -427l157 813h30l-158 -813h-29zM171 735l161 828h29l-160 -828h-30z" />
			<glyph unicode="&#xa7;" horiz-adv-x="985" d="M-23 -426l13 62q4 -4 11 -10t31.5 -21.5t51 -27.5t69 -22t86.5 -10q134 0 231 78.5t97 197.5q0 39 -13.5 78t-31.5 69.5t-59 75.5t-70.5 74.5t-92.5 88.5q-68 64 -108.5 106.5t-82.5 98t-61.5 110t-19.5 112.5q0 148 126 254q8 -20 27 -52q-43 -61 -43 -144 q0 -34 6.5 -64t24.5 -61.5t34 -55t50.5 -59t59 -59t73.5 -68.5q52 -49 84.5 -81t72.5 -80t62 -88.5t37.5 -92.5t15.5 -106q0 -162 -116.5 -261t-307.5 -99q-72 0 -136 14.5t-92 28.5zM214 1066q0 156 115 250t307 94q73 0 138 -14t93 -28l28 -15l-12 -63q-4 4 -10.5 10 t-31 21.5t-51.5 27.5t-71 22t-91 10q-131 0 -227 -67t-96 -182q0 -38 13.5 -76t32 -68.5t58 -74t71 -74t92.5 -86.5q145 -134 209 -226t64 -198q0 -154 -126 -258q-12 23 -31 55q46 57 46 140q0 27 -6 53t-12.5 46t-27.5 49.5t-33 46t-48 53.5t-53.5 54.5t-67.5 66.5 q-64 63 -93.5 93t-72 79.5t-60.5 83.5t-32 80t-14 95z" />
			<glyph unicode="&#xa8;" horiz-adv-x="707" d="M209 1149q0 39 27 65.5t66 26.5q30 0 49.5 -18.5t19.5 -46.5q0 -39 -27 -66t-66 -27q-30 0 -49.5 18.5t-19.5 47.5zM518 1149q0 39 27 65.5t66 26.5q30 0 49.5 -18.5t19.5 -46.5q0 -39 -27 -66t-66 -27q-30 0 -49.5 18.5t-19.5 47.5z" />
			<glyph unicode="&#xa9;" horiz-adv-x="1652" d="M85 695q0 205 99.5 371t269 258.5t372.5 92.5t373 -92.5t269.5 -258.5t99.5 -371t-99.5 -371t-269.5 -258.5t-373 -92.5t-372.5 92.5t-269 258.5t-99.5 371zM115 695q0 -196 96 -358t258.5 -253t356.5 -91t356.5 91t258.5 253t96 358t-96 358.5t-259 253.5t-356 91 t-356 -91t-259 -253.5t-96 -358.5zM384 695q0 191 128 314.5t324 123.5q152 0 269 -68v-47q-50 45 -123 70.5t-146 25.5q-161 0 -265 -117.5t-104 -301.5q0 -183 104 -301.5t265 -118.5q81 0 161 31.5t129 87.5v-42q-52 -45 -129 -70t-162 -25q-194 0 -322.5 123.5 t-128.5 314.5z" />
			<glyph unicode="&#xaa;" horiz-adv-x="727" d="M122 925q0 31 8.5 56.5t30 47t42.5 37t62.5 32.5t72 28t87.5 30q89 30 117.5 52.5t28.5 72.5q0 112 -112 112q-54 0 -101.5 -25.5t-68.5 -50.5l-21 -25l12 62q7 7 20 17.5t61.5 28t105.5 17.5q56 0 97 -16t62 -43t30.5 -56.5t9.5 -62.5t-8 -79l-40 -206q-10 -51 -10 -85 q0 -72 52 -72q8 0 15.5 2.5t10.5 4.5l4 2l-3 -16q-14 -14 -54 -14q-54 0 -85 38t-31 117q0 44 10 97l35 181q-18 -22 -40 -34.5t-94 -40.5q-113 -44 -162.5 -88.5t-49.5 -115.5q0 -67 37 -101.5t91 -34.5q49 0 93 26l8 -17q-61 -34 -137 -34q-90 0 -138 42.5t-48 113.5z" />
			<glyph unicode="&#xab;" horiz-adv-x="925" d="M34 454l391 327l16 -21l-369 -309l246 -307l-21 -18zM419 454l391 327l16 -21l-369 -309l246 -307l-21 -18z" />
			<glyph unicode="&#xac;" horiz-adv-x="1122" d="M67 466l5 29h899l-68 -350h-30l63 321h-869z" />
			<glyph unicode="&#xad;" horiz-adv-x="830" d="M60 434l6 29h607l-5 -29h-608z" />
			<glyph unicode="&#xae;" horiz-adv-x="731" d="M167 1141q0 115 80.5 195.5t195.5 80.5q116 0 196.5 -79.5t80.5 -196.5q0 -115 -81 -196t-196 -81t-195.5 81t-80.5 196zM194 1141q0 -106 73 -182.5t176 -76.5t176.5 76.5t73.5 182.5q0 103 -74 180.5t-176 77.5q-103 0 -176 -76t-73 -182zM355 990v305h84 q48 0 77 -23.5t29 -60.5q0 -36 -29 -59t-77 -23h-47l172 -139h-18l-161 130v-130h-30zM385 1142h50q75 0 75 69q0 72 -75 72h-50v-141z" />
			<glyph unicode="&#xaf;" horiz-adv-x="707" d="M183 1098l11 54h496l-10 -54h-497z" />
			<glyph unicode="&#xb0;" horiz-adv-x="646" d="M182 1169q0 101 74 172.5t186 71.5q100 0 158 -48.5t58 -137.5q0 -101 -76.5 -172.5t-187.5 -71.5l-21 1l12 25q80 0 138 63t58 169q0 67 -37 107.5t-95 40.5q-77 0 -133.5 -64.5t-56.5 -170.5q0 -60 33 -103l-21 -40q-89 49 -89 158z" />
			<glyph unicode="&#xb1;" horiz-adv-x="1135" d="M-13 0l5 29h892l-5 -29h-892zM95 560l6 29h430l83 430h31l-83 -430h431l-6 -29h-431l-73 -374h-30l72 374h-430z" />
			<glyph unicode="&#xb2;" horiz-adv-x="552" d="M96 983q46 30 105 80h378l-44 -80h-439zM248 1546l11 60q2 4 6.5 10t20 21t34 27t49.5 21.5t66 9.5q83 0 124.5 -48t41.5 -119q0 -55 -26.5 -114.5t-71.5 -113t-87.5 -94t-90.5 -78.5h-51q233 220 233 416q0 61 -17.5 93.5t-69.5 32.5q-48 0 -91 -31t-62 -62z" />
			<glyph unicode="&#xb3;" horiz-adv-x="608" d="M165 1032l9 45q2 -3 6.5 -9t20.5 -20t35 -25t49.5 -20t63.5 -9q84 0 143 60.5t59 155.5q0 68 -29 114q31 10 65 30q58 -49 58 -137q0 -104 -78 -175.5t-210 -71.5q-58 0 -106 15.5t-67 30.5zM295 1549l10 62q2 3 7 9t21.5 20.5t35.5 25.5t51.5 20t67.5 9 q76 0 112.5 -36.5t36.5 -92.5q0 -67 -48.5 -118.5t-115 -75.5t-136.5 -26l11 27q44 23 106 24q48 23 77.5 71t29.5 101q0 101 -89 101q-32 0 -62.5 -12.5t-50.5 -30t-35 -35.5t-22 -30z" />
			<glyph unicode="&#xb4;" horiz-adv-x="544" d="M169 1037l271 266q31 31 61 31q47 0 47 -45q0 -34 -47 -63l-302 -194z" />
			<glyph unicode="&#xb6;" horiz-adv-x="1293" d="M119 981q0 199 152.5 304.5t400.5 105.5h304l-350 -1798l-137 -62l357 1831h-150q-225 0 -335 -107.5t-110 -301.5q0 -121 78 -200t228 -89l-20 -26q-118 4 -210.5 42.5t-150 116t-57.5 184.5zM812 -321l332 1712h228l-24 -29h-85l-316 -1620z" />
			<glyph unicode="&#xb7;" horiz-adv-x="390" d="M60 434q0 41 29.5 69.5t70.5 28.5q32 0 52.5 -19.5t20.5 -50.5q0 -42 -29 -70t-70 -28q-32 0 -53 19.5t-21 50.5z" />
			<glyph unicode="&#xb8;" horiz-adv-x="510" d="M-106 -355q44 -18 98 -18q70 1 112.5 39.5t42.5 95.5q0 58 -44 88t-111 30l173 128h38l-120 -105q54 0 98 -36t44 -97q0 -76 -62 -122.5t-161 -46.5q-33 0 -60 4.5t-37 9.5l-10 5z" />
			<glyph unicode="&#xb9;" horiz-adv-x="648" d="M135 983l5 25h205l113 579l-146 -92l6 34l261 166l-134 -687h206l-5 -25h-511z" />
			<glyph unicode="&#xba;" horiz-adv-x="717" d="M128 1016q0 159 108.5 280t255.5 121q110 0 179 -70.5t69 -183.5q0 -160 -107.5 -280t-256.5 -120q-21 0 -31 1l12 23h18q80 0 141 66.5t89.5 157.5t28.5 185q0 197 -141 197q-61 0 -111.5 -39t-82 -100.5t-49 -132.5t-17.5 -140q0 -97 35 -144l-21 -42q-57 31 -88 88.5 t-31 132.5z" />
			<glyph unicode="&#xbb;" horiz-adv-x="925" d="M5 147l370 310l-247 306l22 18l263 -327l-391 -328zM390 147l370 310l-247 306l22 18l263 -327l-391 -328z" />
			<glyph unicode="&#xbc;" horiz-adv-x="1594" d="M79 694l5 25h205l112 579l-145 -92l6 34l260 166l-133 -687h206l-5 -25h-511zM274 -100l1175 1592h36l-1176 -1592h-35zM868 179l528 534l-99 -509h140l-5 -25h-140l-35 -179h-99l106 544l-338 -340h206l-6 -25h-258z" />
			<glyph unicode="&#xbd;" horiz-adv-x="1616" d="M79 694l5 25h205l112 579l-145 -92l6 34l260 166l-133 -687h206l-5 -25h-511zM274 -100l1175 1592h36l-1176 -1592h-35zM969 0q45 30 104 80h378l-44 -80h-438zM1120 563l12 60q2 4 6.5 10t20 21t34 27t49.5 21.5t66 9.5q83 0 124.5 -48t41.5 -119q0 -55 -27 -114.5 t-72 -113t-87.5 -94t-90.5 -78.5h-50q232 219 232 416q0 61 -17.5 93.5t-69.5 32.5q-48 0 -91 -31t-62 -62z" />
			<glyph unicode="&#xbe;" horiz-adv-x="1460" d="M109 743l9 45q2 -3 6.5 -8.5t20.5 -20t35 -25t49.5 -19.5t63.5 -9q84 0 143 60.5t59 155.5q0 67 -29 113q29 10 64 30q59 -49 59 -137q0 -104 -78 -175.5t-210 -71.5q-58 0 -106 15.5t-67 31.5zM140 -100l1175 1592h36l-1176 -1592h-35zM239 1261l10 61q2 3 7 9 t21.5 20.5t35.5 25.5t51.5 20t67.5 9q76 0 112.5 -36.5t36.5 -92.5q0 -67 -48.5 -118.5t-115 -75.5t-136.5 -26l11 27q43 23 105 24q48 23 78 71.5t30 100.5q0 101 -89 101q-32 0 -62.5 -12.5t-50.5 -30t-35 -35t-22 -29.5zM734 179l528 534l-99 -509h140l-6 -25h-139 l-35 -179h-99l105 544l-337 -340h205l-5 -25h-258z" />
			<glyph unicode="&#xbf;" horiz-adv-x="948" d="M-102 -134q0 85 31.5 162t78.5 133t113.5 106t124 81t124 58t98.5 37t61 18l29 148h31l-34 -172q-11 -3 -29.5 -9t-73 -29t-104 -51.5t-109.5 -78.5t-103.5 -107.5t-73 -140.5t-29.5 -175q0 -65 14.5 -119.5t45 -99t84 -69.5t126.5 -25q76 0 145.5 25t114 60t78.5 70.5 t49 60.5l15 25l-18 -92q-5 -7 -15.5 -19t-47.5 -43t-78.5 -54.5t-108.5 -42.5t-139 -19q-97 0 -174.5 29t-126 79.5t-74 115.5t-25.5 138zM536 842q0 42 29 70t70 28q32 0 53 -20t21 -51q0 -41 -29.5 -69.5t-70.5 -28.5q-32 0 -52.5 20t-20.5 51z" />
			<glyph unicode="&#xc0;" horiz-adv-x="1257" d="M-67 0l838 1426l283 -1426h-125l-244 1225l-446 -762h497l5 -29h-520l-254 -434h-34zM609 1757q0 21 13 34.5t34 13.5q33 0 58 -38l178 -259l-32 -5l-223 202q-28 26 -28 52z" />
			<glyph unicode="&#xc1;" horiz-adv-x="1257" d="M-67 0l838 1426l283 -1426h-125l-244 1225l-446 -762h497l5 -29h-520l-254 -434h-34zM683 1508l271 266q31 31 61 31q47 0 47 -45q0 -34 -47 -63l-302 -194z" />
			<glyph unicode="&#xc2;" horiz-adv-x="1257" d="M-67 0l838 1426l283 -1426h-125l-244 1225l-446 -762h497l5 -29h-520l-254 -434h-34zM557 1508l283 287l176 -287l-26 -5l-168 152l-236 -152z" />
			<glyph unicode="&#xc3;" horiz-adv-x="1257" d="M-67 0l838 1426l283 -1426h-125l-244 1225l-446 -762h497l5 -29h-520l-254 -434h-34zM508 1530q17 166 184 166q60 0 149 -34.5t139 -34.5q35 0 64.5 23.5t41.5 63.5h23q-8 -78 -53.5 -124t-132.5 -46q-59 0 -149 34.5t-132 34.5q-87 0 -112 -83h-22z" />
			<glyph unicode="&#xc4;" horiz-adv-x="1257" d="M-67 0l838 1426l283 -1426h-125l-244 1225l-446 -762h497l5 -29h-520l-254 -434h-34zM577 1620q0 39 27 65.5t66 26.5q30 0 49 -18t19 -47q0 -39 -27 -66t-66 -27q-30 0 -49 18.5t-19 47.5zM886 1620q0 39 27 65.5t66 26.5q30 0 49.5 -18.5t19.5 -46.5q0 -39 -27.5 -66 t-66.5 -27q-30 0 -49 18.5t-19 47.5z" />
			<glyph unicode="&#xc5;" horiz-adv-x="1257" d="M-67 0l838 1426l283 -1426h-125l-244 1225l-446 -762h497l5 -29h-520l-254 -434h-34zM642 1616q0 68 56.5 111t135.5 43q66 0 108 -28t42 -79q0 -68 -55 -111t-135 -43q-65 0 -108.5 28.5t-43.5 78.5zM722 1607q0 -37 19.5 -56t51.5 -19q45 0 78 38.5t33 100.5 q0 37 -19 56t-50 19q-45 0 -79 -38.5t-34 -100.5z" />
			<glyph unicode="&#xc7;" horiz-adv-x="1390" d="M71 547q0 179 70 340.5t188 277.5t279.5 184t338.5 68q238 0 407 -98l-15 -73q-72 68 -174 105.5t-220 37.5q-141 0 -274 -62.5t-235.5 -172.5t-164 -272.5t-61.5 -349.5q0 -200 85.5 -333t235.5 -177l-36 -27q-194 50 -309 199.5t-115 352.5zM404 -355q45 -18 99 -18 q70 1 112.5 39.5t42.5 95.5q0 58 -44 88t-111 30l164 122h9q133 0 262 50.5t233 135.5l-15 -78q-210 -137 -482 -137l-80 -70q54 0 98 -36t44 -97q0 -76 -62 -122.5t-161 -46.5q-33 0 -60 4.5t-37 9.5l-10 5z" />
			<glyph unicode="&#xc8;" horiz-adv-x="998" d="M-5 0l270 1391h765l-5 -29h-641l-265 -1362h-124zM217 0l5 29h543l-5 -29h-543zM352 695l5 29h444l-5 -29h-444zM502 1757q0 21 13 34.5t34 13.5q32 0 57 -38l178 -259l-31 -5l-224 202q-27 25 -27 52z" />
			<glyph unicode="&#xc9;" horiz-adv-x="998" d="M-5 0l270 1391h765l-5 -29h-641l-265 -1362h-124zM217 0l5 29h543l-5 -29h-543zM352 695l5 29h444l-5 -29h-444zM522 1508l272 266q31 31 60 31q47 0 47 -45q0 -34 -47 -63l-302 -194z" />
			<glyph unicode="&#xca;" horiz-adv-x="998" d="M-5 0l270 1391h765l-5 -29h-641l-265 -1362h-124zM217 0l5 29h543l-5 -29h-543zM352 695l5 29h444l-5 -29h-444zM460 1508l282 287l177 -287l-26 -5l-168 152l-237 -152z" />
			<glyph unicode="&#xcb;" horiz-adv-x="998" d="M-5 0l270 1391h765l-5 -29h-641l-265 -1362h-124zM217 0l5 29h543l-5 -29h-543zM352 695l5 29h444l-5 -29h-444zM479 1620q0 39 27 65.5t66 26.5q30 0 49.5 -18.5t19.5 -46.5q0 -39 -27 -66t-66 -27q-30 0 -49.5 18.5t-19.5 47.5zM788 1620q0 39 27.5 65.5t66.5 26.5 q30 0 49 -18t19 -47q0 -39 -27 -66t-66 -27q-30 0 -49.5 18.5t-19.5 47.5z" />
			<glyph unicode="&#xcc;" horiz-adv-x="406" d="M6 0l270 1391h124l-270 -1391h-124zM179 1757q0 21 13 34.5t34 13.5q33 0 58 -38l178 -259l-32 -5l-223 202q-28 26 -28 52z" />
			<glyph unicode="&#xcd;" horiz-adv-x="406" d="M6 0l270 1391h124l-270 -1391h-124zM261 1508l271 266q31 31 61 31q47 0 47 -45q0 -34 -47 -63l-302 -194z" />
			<glyph unicode="&#xce;" horiz-adv-x="406" d="M6 0l270 1391h124l-270 -1391h-124zM131 1508l283 287l176 -287l-26 -5l-168 152l-236 -152z" />
			<glyph unicode="&#xcf;" horiz-adv-x="406" d="M6 0l270 1391h124l-270 -1391h-124zM151 1620q0 39 27 65.5t66 26.5q30 0 49 -18t19 -47q0 -39 -27 -66t-66 -27q-30 0 -49 18.5t-19 47.5zM460 1620q0 39 27 65.5t66 26.5q30 0 49.5 -18.5t19.5 -46.5q0 -39 -27.5 -66t-66.5 -27q-30 0 -49 18.5t-19 47.5z" />
			<glyph unicode="&#xd0;" horiz-adv-x="1323" d="M-2 695l5 29h142l130 667h317q196 0 349.5 -77t237 -210.5t83.5 -298.5q0 -115 -34 -221.5t-95 -195t-147.5 -161t-190 -122.5t-223.5 -77.5t-247 -27.5h-98l5 29h105q116 0 229.5 33t214.5 100t178.5 159t123 220t45.5 273q0 258 -144 403t-388 145h-203l-124 -638h434 l-5 -29h-435l-134 -695h-124l135 695h-142z" />
			<glyph unicode="&#xd1;" horiz-adv-x="1315" d="M-5 0l274 1414l811 -1261l-33 -177l-790 1225l-232 -1201h-30zM553 1530q17 166 184 166q60 0 149 -34.5t139 -34.5q35 0 65 23.5t42 63.5h22q-8 -78 -53.5 -124t-132.5 -46q-59 0 -149 34.5t-132 34.5q-87 0 -112 -83h-22zM1086 341l205 1050h30l-211 -1086z" />
			<glyph unicode="&#xd2;" d="M71 553q0 170 73.5 330.5t193 276.5t279.5 186.5t326 70.5q178 0 320.5 -74t224 -208t81.5 -302q0 -115 -34 -226.5t-93.5 -205t-143 -174t-179.5 -136t-205 -87t-218 -31.5q-83 0 -173 20l16 30q79 -21 160 -21q144 0 279.5 72t235 191.5t159.5 282.5t60 336 q0 238 -135.5 371.5t-357.5 133.5q-116 0 -227 -46.5t-201.5 -130t-159.5 -193t-107 -243t-38 -271.5q0 -161 62 -274.5t174 -171.5l-18 -35q-163 67 -258.5 205.5t-95.5 323.5zM826 1757q0 21 13 34.5t34 13.5q33 0 58 -38l178 -259l-32 -5l-223 202q-28 26 -28 52z" />
			<glyph unicode="&#xd3;" d="M71 553q0 170 73.5 330.5t193 276.5t279.5 186.5t326 70.5q178 0 320.5 -74t224 -208t81.5 -302q0 -115 -34 -226.5t-93.5 -205t-143 -174t-179.5 -136t-205 -87t-218 -31.5q-83 0 -173 20l16 30q79 -21 160 -21q144 0 279.5 72t235 191.5t159.5 282.5t60 336 q0 238 -135.5 371.5t-357.5 133.5q-116 0 -227 -46.5t-201.5 -130t-159.5 -193t-107 -243t-38 -271.5q0 -161 62 -274.5t174 -171.5l-18 -35q-163 67 -258.5 205.5t-95.5 323.5zM847 1508l271 266q31 31 61 31q47 0 47 -45q0 -34 -47 -63l-302 -194z" />
			<glyph unicode="&#xd4;" d="M71 553q0 170 73.5 330.5t193 276.5t279.5 186.5t326 70.5q178 0 320.5 -74t224 -208t81.5 -302q0 -115 -34 -226.5t-93.5 -205t-143 -174t-179.5 -136t-205 -87t-218 -31.5q-83 0 -173 20l16 30q79 -21 160 -21q144 0 279.5 72t235 191.5t159.5 282.5t60 336 q0 238 -135.5 371.5t-357.5 133.5q-116 0 -227 -46.5t-201.5 -130t-159.5 -193t-107 -243t-38 -271.5q0 -161 62 -274.5t174 -171.5l-18 -35q-163 67 -258.5 205.5t-95.5 323.5zM748 1508l282 287l176 -287l-25 -5l-168 152l-237 -152z" />
			<glyph unicode="&#xd5;" d="M71 553q0 170 73.5 330.5t193 276.5t279.5 186.5t326 70.5q178 0 320.5 -74t224 -208t81.5 -302q0 -115 -34 -226.5t-93.5 -205t-143 -174t-179.5 -136t-205 -87t-218 -31.5q-83 0 -173 20l16 30q79 -21 160 -21q144 0 279.5 72t235 191.5t159.5 282.5t60 336 q0 238 -135.5 371.5t-357.5 133.5q-116 0 -227 -46.5t-201.5 -130t-159.5 -193t-107 -243t-38 -271.5q0 -161 62 -274.5t174 -171.5l-18 -35q-163 67 -258.5 205.5t-95.5 323.5zM699 1530q8 77 53 121.5t132 44.5q60 0 148 -34.5t139 -34.5q35 0 65 23.5t42 63.5h22 q-8 -78 -53.5 -124t-132.5 -46q-59 0 -148.5 34.5t-131.5 34.5q-87 0 -112 -83h-23z" />
			<glyph unicode="&#xd6;" d="M71 553q0 170 73.5 330.5t193 276.5t279.5 186.5t326 70.5q178 0 320.5 -74t224 -208t81.5 -302q0 -115 -34 -226.5t-93.5 -205t-143 -174t-179.5 -136t-205 -87t-218 -31.5q-83 0 -173 20l16 30q79 -21 160 -21q144 0 279.5 72t235 191.5t159.5 282.5t60 336 q0 238 -135.5 371.5t-357.5 133.5q-116 0 -227 -46.5t-201.5 -130t-159.5 -193t-107 -243t-38 -271.5q0 -161 62 -274.5t174 -171.5l-18 -35q-163 67 -258.5 205.5t-95.5 323.5zM767 1620q0 39 27 65.5t66 26.5q30 0 49.5 -18.5t19.5 -46.5q0 -39 -27 -66t-66 -27 q-30 0 -49.5 18.5t-19.5 47.5zM1076 1620q0 39 27 65.5t66 26.5q30 0 49.5 -18.5t19.5 -46.5q0 -39 -27 -66t-66 -27q-30 0 -49.5 18.5t-19.5 47.5z" />
			<glyph unicode="&#xd7;" horiz-adv-x="952" d="M3 135l412 347l-276 346l21 19l276 -346l411 346l19 -20l-412 -348l276 -345l-21 -19l-277 346l-410 -346z" />
			<glyph unicode="&#xd8;" d="M71 553q0 170 73.5 330.5t193 276.5t279.5 186.5t326 70.5q78 0 156 -16l-17 -29q-77 17 -142 17q-116 0 -227 -46.5t-201.5 -130t-159.5 -193t-107 -243t-38 -271.5q0 -159 60 -271.5t170 -171.5l868 1482h31l-108 -185q157 -69 249 -208t92 -318q0 -115 -34 -226.5 t-93.5 -205t-143 -174t-179.5 -136t-205 -87t-218 -31.5q-73 0 -158 17l17 28q64 -16 144 -16q144 0 279.5 72t235 191.5t159.5 282.5t60 336q0 154 -60 265.5t-167 173.5l-862 -1474h-32l104 178q-159 68 -252 206t-93 320z" />
			<glyph unicode="&#xd9;" horiz-adv-x="1207" d="M72 386q0 126 32 285l141 720h124l-152 -777q-38 -191 -38 -298q0 -149 80.5 -230t236.5 -81q195 0 331 116q91 78 138 188.5t76 257.5l161 824h31l-161 -827q-32 -166 -81 -274.5t-144 -190.5q-142 -123 -354 -123q-203 0 -312 102t-109 308zM586 1757q0 21 13 34.5 t34 13.5q32 0 57 -38l178 -259l-31 -5l-224 202q-27 25 -27 52z" />
			<glyph unicode="&#xda;" horiz-adv-x="1207" d="M72 386q0 126 32 285l141 720h124l-152 -777q-38 -191 -38 -298q0 -149 80.5 -230t236.5 -81q195 0 331 116q91 78 138 188.5t76 257.5l161 824h31l-161 -827q-32 -166 -81 -274.5t-144 -190.5q-142 -123 -354 -123q-203 0 -312 102t-109 308zM654 1508l272 266 q31 31 60 31q47 0 47 -45q0 -34 -47 -63l-302 -194z" />
			<glyph unicode="&#xdb;" horiz-adv-x="1207" d="M72 386q0 126 32 285l141 720h124l-152 -777q-38 -191 -38 -298q0 -149 80.5 -230t236.5 -81q195 0 331 116q91 78 138 188.5t76 257.5l161 824h31l-161 -827q-32 -166 -81 -274.5t-144 -190.5q-142 -123 -354 -123q-203 0 -312 102t-109 308zM571 1508l283 287l176 -287 l-25 -5l-168 152l-237 -152z" />
			<glyph unicode="&#xdc;" horiz-adv-x="1207" d="M72 386q0 126 32 285l141 720h124l-152 -777q-38 -191 -38 -298q0 -149 80.5 -230t236.5 -81q195 0 331 116q91 78 138 188.5t76 257.5l161 824h31l-161 -827q-32 -166 -81 -274.5t-144 -190.5q-142 -123 -354 -123q-203 0 -312 102t-109 308zM590 1620q0 39 27 65.5 t66 26.5q30 0 49.5 -18.5t19.5 -46.5q0 -39 -27.5 -66t-66.5 -27q-30 0 -49 18.5t-19 47.5zM899 1620q0 39 27 65.5t66 26.5q30 0 49.5 -18.5t19.5 -46.5q0 -39 -27 -66t-66 -27q-30 0 -49.5 18.5t-19.5 47.5z" />
			<glyph unicode="&#xdd;" horiz-adv-x="1191" d="M198 1391h129l309 -788l-117 -603h-124l116 594zM703 719l525 672h37l-549 -704zM711 1508l271 266q31 31 60 31q23 0 35.5 -12t12.5 -33q0 -20 -11.5 -34t-36.5 -29l-302 -194z" />
			<glyph unicode="&#xde;" horiz-adv-x="1028" d="M-5 0l270 1391h124l-50 -255h187q208 0 333 -89t125 -255q0 -79 -31 -146.5t-84.5 -115t-125 -81.5t-152.5 -50t-168 -16h-131l5 29h114q212 0 326.5 108.5t114.5 297.5q0 152 -82 220.5t-248 68.5h-188l-215 -1107h-124z" />
			<glyph unicode="&#xdf;" horiz-adv-x="1043" d="M-9 0l180 925q44 229 171 357t322 128q113 0 167.5 -53t54.5 -136q0 -56 -21.5 -101.5t-53 -74.5t-69 -58.5t-69 -52.5t-53 -56.5t-21.5 -71.5q0 -40 30.5 -82.5t74 -84.5t87 -89t74 -114t30.5 -142q0 -148 -101 -230t-260 -82q-56 0 -104.5 11.5t-77 28t-49.5 33 t-29 27.5l-8 12l15 76q2 -7 6.5 -17.5t24 -38t44 -48.5t69 -38.5t97.5 -17.5q109 0 178 71t69 188q0 57 -19.5 109.5t-48.5 89.5t-63.5 76.5t-63.5 71t-48.5 71.5t-19.5 80q0 44 19.5 80.5t50.5 62.5t68 50t74.5 49t68.5 53t50.5 68t19.5 89q0 76 -45.5 119t-134.5 43 q-46 0 -88.5 -11t-89.5 -41t-86 -77t-72.5 -125t-53.5 -178l-185 -949h-111z" />
			<glyph unicode="&#xe0;" horiz-adv-x="987" d="M-12 194q0 42 11 77.5t28.5 63t49.5 53t62.5 44t81 40t91 36t105.5 36.5q150 50 203 89.5t53 118.5q0 62 -40 99t-122 37q-51 0 -102 -15t-87.5 -36t-65.5 -42.5t-44 -36.5l-14 -15l14 76q4 4 12.5 10.5t38 23t62.5 29.5t85.5 23.5t108.5 10.5q74 0 126 -19t78.5 -52 t37.5 -68.5t11 -77.5q0 -47 -13 -112l-64 -329q-14 -73 -14 -124q0 -59 20 -82t48 -23q13 0 25.5 4t18.5 8l6 4l-4 -25q-24 -20 -72 -20q-70 0 -104.5 51.5t-34.5 131.5q0 79 23 195l40 200q12 59 15 77q-26 -42 -74 -68t-172 -74q-82 -32 -132 -57t-95.5 -61.5t-65.5 -83.5 t-20 -110q0 -82 51 -134.5t132 -52.5q119 0 218 96l6 -26q-104 -98 -261 -98q-120 0 -190.5 55t-70.5 153zM392 1286q0 21 13 34.5t34 13.5q33 0 58 -38l178 -259l-32 -5l-223 202q-28 26 -28 52z" />
			<glyph unicode="&#xe1;" horiz-adv-x="987" d="M-12 194q0 42 11 77.5t28.5 63t49.5 53t62.5 44t81 40t91 36t105.5 36.5q150 50 203 89.5t53 118.5q0 62 -40 99t-122 37q-51 0 -102 -15t-87.5 -36t-65.5 -42.5t-44 -36.5l-14 -15l14 76q4 4 12.5 10.5t38 23t62.5 29.5t85.5 23.5t108.5 10.5q74 0 126 -19t78.5 -52 t37.5 -68.5t11 -77.5q0 -47 -13 -112l-64 -329q-14 -73 -14 -124q0 -59 20 -82t48 -23q13 0 25.5 4t18.5 8l6 4l-4 -25q-24 -20 -72 -20q-70 0 -104.5 51.5t-34.5 131.5q0 79 23 195l40 200q12 59 15 77q-26 -42 -74 -68t-172 -74q-82 -32 -132 -57t-95.5 -61.5t-65.5 -83.5 t-20 -110q0 -82 51 -134.5t132 -52.5q119 0 218 96l6 -26q-104 -98 -261 -98q-120 0 -190.5 55t-70.5 153zM404 1037l272 266q31 31 60 31q47 0 47 -45q0 -34 -47 -63l-302 -194z" />
			<glyph unicode="&#xe2;" horiz-adv-x="987" d="M-12 194q0 42 11 77.5t28.5 63t49.5 53t62.5 44t81 40t91 36t105.5 36.5q150 50 203 89.5t53 118.5q0 62 -40 99t-122 37q-51 0 -102 -15t-87.5 -36t-65.5 -42.5t-44 -36.5l-14 -15l14 76q4 4 12.5 10.5t38 23t62.5 29.5t85.5 23.5t108.5 10.5q74 0 126 -19t78.5 -52 t37.5 -68.5t11 -77.5q0 -47 -13 -112l-64 -329q-14 -73 -14 -124q0 -59 20 -82t48 -23q13 0 25.5 4t18.5 8l6 4l-4 -25q-24 -20 -72 -20q-70 0 -104.5 51.5t-34.5 131.5q0 79 23 195l40 200q12 59 15 77q-26 -42 -74 -68t-172 -74q-82 -32 -132 -57t-95.5 -61.5t-65.5 -83.5 t-20 -110q0 -82 51 -134.5t132 -52.5q119 0 218 96l6 -26q-104 -98 -261 -98q-120 0 -190.5 55t-70.5 153zM310 1037l283 287l176 -287l-26 -5l-168 152l-236 -152z" />
			<glyph unicode="&#xe3;" horiz-adv-x="987" d="M-12 194q0 42 11 77.5t28.5 63t49.5 53t62.5 44t81 40t91 36t105.5 36.5q150 50 203 89.5t53 118.5q0 62 -40 99t-122 37q-51 0 -102 -15t-87.5 -36t-65.5 -42.5t-44 -36.5l-14 -15l14 76q4 4 12.5 10.5t38 23t62.5 29.5t85.5 23.5t108.5 10.5q74 0 126 -19t78.5 -52 t37.5 -68.5t11 -77.5q0 -47 -13 -112l-64 -329q-14 -73 -14 -124q0 -59 20 -82t48 -23q13 0 25.5 4t18.5 8l6 4l-4 -25q-24 -20 -72 -20q-70 0 -104.5 51.5t-34.5 131.5q0 79 23 195l40 200q12 59 15 77q-26 -42 -74 -68t-172 -74q-82 -32 -132 -57t-95.5 -61.5t-65.5 -83.5 t-20 -110q0 -82 51 -134.5t132 -52.5q119 0 218 96l6 -26q-104 -98 -261 -98q-120 0 -190.5 55t-70.5 153zM278 1059q17 166 184 166q60 0 148.5 -34.5t139.5 -34.5q35 0 64.5 23.5t41.5 63.5h23q-8 -77 -54 -123.5t-133 -46.5q-59 0 -148.5 34.5t-131.5 34.5 q-87 0 -112 -83h-22z" />
			<glyph unicode="&#xe4;" horiz-adv-x="987" d="M-12 194q0 42 11 77.5t28.5 63t49.5 53t62.5 44t81 40t91 36t105.5 36.5q150 50 203 89.5t53 118.5q0 62 -40 99t-122 37q-51 0 -102 -15t-87.5 -36t-65.5 -42.5t-44 -36.5l-14 -15l14 76q4 4 12.5 10.5t38 23t62.5 29.5t85.5 23.5t108.5 10.5q74 0 126 -19t78.5 -52 t37.5 -68.5t11 -77.5q0 -47 -13 -112l-64 -329q-14 -73 -14 -124q0 -59 20 -82t48 -23q13 0 25.5 4t18.5 8l6 4l-4 -25q-24 -20 -72 -20q-70 0 -104.5 51.5t-34.5 131.5q0 79 23 195l40 200q12 59 15 77q-26 -42 -74 -68t-172 -74q-82 -32 -132 -57t-95.5 -61.5t-65.5 -83.5 t-20 -110q0 -82 51 -134.5t132 -52.5q119 0 218 96l6 -26q-104 -98 -261 -98q-120 0 -190.5 55t-70.5 153zM329 1149q0 39 27 65.5t66 26.5q30 0 49 -18t19 -47q0 -39 -27 -66t-66 -27q-30 0 -49 18.5t-19 47.5zM638 1149q0 39 27 65.5t66 26.5q30 0 49.5 -18.5t19.5 -46.5 q0 -39 -27 -66t-66 -27q-30 0 -49.5 18.5t-19.5 47.5z" />
			<glyph unicode="&#xe5;" horiz-adv-x="987" d="M-12 194q0 42 11 77.5t28.5 63t49.5 53t62.5 44t81 40t91 36t105.5 36.5q150 50 203 89.5t53 118.5q0 62 -40 99t-122 37q-51 0 -102 -15t-87.5 -36t-65.5 -42.5t-44 -36.5l-14 -15l14 76q4 4 12.5 10.5t38 23t62.5 29.5t85.5 23.5t108.5 10.5q74 0 126 -19t78.5 -52 t37.5 -68.5t11 -77.5q0 -47 -13 -112l-64 -329q-14 -73 -14 -124q0 -59 20 -82t48 -23q13 0 25.5 4t18.5 8l6 4l-4 -25q-24 -20 -72 -20q-70 0 -104.5 51.5t-34.5 131.5q0 79 23 195l40 200q12 59 15 77q-26 -42 -74 -68t-172 -74q-82 -32 -132 -57t-95.5 -61.5t-65.5 -83.5 t-20 -110q0 -82 51 -134.5t132 -52.5q119 0 218 96l6 -26q-104 -98 -261 -98q-120 0 -190.5 55t-70.5 153zM394 1145q0 68 56.5 111t135.5 43q66 0 108 -28t42 -79q0 -68 -55 -111t-135 -43h-15l12 23q50 0 81.5 40t31.5 99q0 37 -19 56t-50 19q-45 0 -79 -38.5t-34 -100.5 q0 -34 13 -50l-18 -35q-75 27 -75 94z" />
			<glyph unicode="&#xe7;" horiz-adv-x="927" d="M22 368q0 145 72.5 271t199 201.5t275.5 75.5q79 0 144.5 -22t91.5 -44l26 -21l-15 -73q-2 5 -7.5 14t-25.5 32t-45.5 40t-69 31.5t-94.5 14.5q-94 0 -177.5 -47t-140.5 -124t-89.5 -176t-32.5 -201q0 -220 140 -294l-38 -29q-102 42 -158 134t-56 217zM115 -355 q44 -18 98 -18q70 1 113 39.5t43 95.5q0 58 -44.5 88t-111.5 30l181 134h25q56 0 107.5 14.5t85 35t59.5 41t37 35.5l12 14l-18 -87q-13 -9 -36.5 -22.5t-99.5 -36t-154 -22.5h-14l-94 -83q54 0 98 -36t44 -97q0 -76 -62 -122.5t-161 -46.5q-33 0 -60 4.5t-37 9.5l-10 5z " />
			<glyph unicode="&#xe8;" horiz-adv-x="962" d="M22 353q0 110 41.5 213.5t111 180t165 123t197.5 46.5q151 0 232 -96t81 -252l-6 -88h-590l5 29h471q8 53 8 113q0 125 -51 195.5t-157 70.5q-107 0 -199.5 -82.5t-144.5 -213.5t-52 -274q0 -138 62.5 -221t179.5 -83q62 0 120 17.5t96.5 43t68.5 51t44 42.5l14 18 l-16 -77q-5 -5 -14 -13.5t-40 -29.5t-66 -37t-90.5 -29.5t-114.5 -13.5q-158 0 -257 104t-99 263zM410 1286q0 21 13 34.5t34 13.5q32 0 57 -38l178 -259l-32 -5l-223 202q-27 25 -27 52z" />
			<glyph unicode="&#xe9;" horiz-adv-x="962" d="M22 353q0 110 41.5 213.5t111 180t165 123t197.5 46.5q151 0 232 -96t81 -252l-6 -88h-590l5 29h471q8 53 8 113q0 125 -51 195.5t-157 70.5q-107 0 -199.5 -82.5t-144.5 -213.5t-52 -274q0 -138 62.5 -221t179.5 -83q62 0 120 17.5t96.5 43t68.5 51t44 42.5l14 18 l-16 -77q-5 -5 -14 -13.5t-40 -29.5t-66 -37t-90.5 -29.5t-114.5 -13.5q-158 0 -257 104t-99 263zM416 1037l271 266q31 31 61 31q47 0 47 -45q0 -34 -47 -63l-303 -194z" />
			<glyph unicode="&#xea;" horiz-adv-x="962" d="M22 353q0 110 41.5 213.5t111 180t165 123t197.5 46.5q151 0 232 -96t81 -252l-6 -88h-590l5 29h471q8 53 8 113q0 125 -51 195.5t-157 70.5q-107 0 -199.5 -82.5t-144.5 -213.5t-52 -274q0 -138 62.5 -221t179.5 -83q62 0 120 17.5t96.5 43t68.5 51t44 42.5l14 18 l-16 -77q-5 -5 -14 -13.5t-40 -29.5t-66 -37t-90.5 -29.5t-114.5 -13.5q-158 0 -257 104t-99 263zM326 1037l282 287l176 -287l-25 -5l-168 152l-237 -152z" />
			<glyph unicode="&#xeb;" horiz-adv-x="962" d="M22 353q0 110 41.5 213.5t111 180t165 123t197.5 46.5q151 0 232 -96t81 -252l-6 -88h-590l5 29h471q8 53 8 113q0 125 -51 195.5t-157 70.5q-107 0 -199.5 -82.5t-144.5 -213.5t-52 -274q0 -138 62.5 -221t179.5 -83q62 0 120 17.5t96.5 43t68.5 51t44 42.5l14 18 l-16 -77q-5 -5 -14 -13.5t-40 -29.5t-66 -37t-90.5 -29.5t-114.5 -13.5q-158 0 -257 104t-99 263zM344 1149q0 39 27 65.5t66 26.5q30 0 49.5 -18.5t19.5 -46.5q0 -39 -27 -66t-66 -27q-30 0 -49.5 18.5t-19.5 47.5zM653 1149q0 39 27 65.5t66 26.5q30 0 49.5 -18.5 t19.5 -46.5q0 -39 -27 -66t-66 -27q-30 0 -49.5 18.5t-19.5 47.5z" />
			<glyph unicode="&#xec;" horiz-adv-x="387" d="M3 0l175 899h112l-175 -899h-112zM116 1286q0 21 13 34.5t34 13.5q32 0 57 -38l178 -259l-31 -5l-224 202q-27 25 -27 52z" />
			<glyph unicode="&#xed;" horiz-adv-x="387" d="M3 0l175 899h112l-175 -899h-112zM122 1037l271 266q31 31 61 31q47 0 47 -45q0 -34 -47 -63l-302 -194z" />
			<glyph unicode="&#xee;" horiz-adv-x="387" d="M3 0l175 899h112l-175 -899h-112zM31 1037l282 287l176 -287l-25 -5l-168 152l-237 -152z" />
			<glyph unicode="&#xef;" horiz-adv-x="387" d="M3 0l175 899h112l-175 -899h-112zM49 1149q0 39 27 65.5t66 26.5q30 0 49.5 -18.5t19.5 -46.5q0 -39 -27 -66t-66 -27q-30 0 -49.5 18.5t-19.5 47.5zM358 1149q0 39 27.5 65.5t66.5 26.5q30 0 49 -18t19 -47q0 -39 -27 -66t-66 -27q-30 0 -49.5 18.5t-19.5 47.5z" />
			<glyph unicode="&#xf0;" horiz-adv-x="1012" d="M22 353q0 147 70 277t190.5 208t259.5 78q50 0 96 -13l15 -40q-52 25 -109 25q-88 0 -165.5 -49t-130.5 -129t-83.5 -182.5t-30.5 -209.5q0 -138 62.5 -221t179.5 -83q77 0 150 41t131 116t93 192.5t35 259.5q0 320 -190 553l-300 -145l-11 28l291 140q-48 55 -102.5 99 t-84.5 60l-31 17l24 15q14 -5 39 -16t92.5 -52.5t124.5 -92.5l333 161l11 -28l-321 -155q241 -231 241 -565q0 -186 -66.5 -335.5t-186.5 -235t-270 -85.5q-158 0 -257 104t-99 263z" />
			<glyph unicode="&#xf1;" horiz-adv-x="1003" d="M-9 0l175 899h112l-176 -899h-111zM302 1059q17 166 184 166q60 0 149 -34.5t139 -34.5q35 0 65 23.5t42 63.5h22q-8 -78 -53.5 -124t-132.5 -46q-59 0 -149 34.5t-132 34.5q-86 0 -111 -83h-23zM345 742l7 44q123 130 281 130q118 0 177 -69.5t59 -170.5q0 -58 -14 -133 l-106 -543h-112l112 573q16 87 16 141q0 81 -33.5 127.5t-116.5 46.5q-143 0 -270 -146z" />
			<glyph unicode="&#xf2;" horiz-adv-x="1015" d="M22 353q0 147 70 277t190.5 208t259.5 78q158 0 257 -104t99 -263q0 -147 -70 -277t-190.5 -208t-259.5 -78q-47 0 -94 11l13 27q33 -10 79 -10q116 0 211.5 83t146.5 213t51 274q0 138 -62 221t-179 83q-88 0 -165.5 -49t-130.5 -129t-83.5 -182.5t-30.5 -209.5 q0 -158 78 -239l-23 -44q-78 47 -122.5 130.5t-44.5 187.5zM454 1286q0 21 13 34.5t34 13.5q32 0 57 -38l178 -259l-31 -5l-224 202q-27 25 -27 52z" />
			<glyph unicode="&#xf3;" horiz-adv-x="1015" d="M22 353q0 147 70 277t190.5 208t259.5 78q158 0 257 -104t99 -263q0 -147 -70 -277t-190.5 -208t-259.5 -78q-47 0 -94 11l13 27q33 -10 79 -10q116 0 211.5 83t146.5 213t51 274q0 138 -62 221t-179 83q-88 0 -165.5 -49t-130.5 -129t-83.5 -182.5t-30.5 -209.5 q0 -158 78 -239l-23 -44q-78 47 -122.5 130.5t-44.5 187.5zM403 1037l272 266q31 31 60 31q47 0 47 -45q0 -34 -47 -63l-302 -194z" />
			<glyph unicode="&#xf4;" horiz-adv-x="1015" d="M22 353q0 147 70 277t190.5 208t259.5 78q158 0 257 -104t99 -263q0 -147 -70 -277t-190.5 -208t-259.5 -78q-47 0 -94 11l13 27q33 -10 79 -10q116 0 211.5 83t146.5 213t51 274q0 138 -62 221t-179 83q-88 0 -165.5 -49t-130.5 -129t-83.5 -182.5t-30.5 -209.5 q0 -158 78 -239l-23 -44q-78 47 -122.5 130.5t-44.5 187.5zM345 1037l283 287l176 -287l-26 -5l-168 152l-236 -152z" />
			<glyph unicode="&#xf5;" horiz-adv-x="1015" d="M22 353q0 147 70 277t190.5 208t259.5 78q158 0 257 -104t99 -263q0 -147 -70 -277t-190.5 -208t-259.5 -78q-47 0 -94 11l13 27q33 -10 79 -10q116 0 211.5 83t146.5 213t51 274q0 138 -62 221t-179 83q-88 0 -165.5 -49t-130.5 -129t-83.5 -182.5t-30.5 -209.5 q0 -158 78 -239l-23 -44q-78 47 -122.5 130.5t-44.5 187.5zM302 1059q17 166 184 166q60 0 149 -34.5t139 -34.5q35 0 65 23.5t42 63.5h22q-8 -78 -53.5 -124t-132.5 -46q-59 0 -149 34.5t-132 34.5q-86 0 -111 -83h-23z" />
			<glyph unicode="&#xf6;" horiz-adv-x="1015" d="M22 353q0 147 70 277t190.5 208t259.5 78q158 0 257 -104t99 -263q0 -147 -70 -277t-190.5 -208t-259.5 -78q-47 0 -94 11l13 27q33 -10 79 -10q116 0 211.5 83t146.5 213t51 274q0 138 -62 221t-179 83q-88 0 -165.5 -49t-130.5 -129t-83.5 -182.5t-30.5 -209.5 q0 -158 78 -239l-23 -44q-78 47 -122.5 130.5t-44.5 187.5zM364 1149q0 39 27 65.5t66 26.5q30 0 49 -18t19 -47q0 -39 -27 -66t-66 -27q-30 0 -49 18.5t-19 47.5zM673 1149q0 39 27 65.5t66 26.5q30 0 49.5 -18.5t19.5 -46.5q0 -39 -27.5 -66t-66.5 -27q-30 0 -49 18.5 t-19 47.5z" />
			<glyph unicode="&#xf7;" horiz-adv-x="1122" d="M67 466l5 29h899l-5 -29h-899zM362 144q0 45 31.5 76t76.5 31q34 0 56.5 -21.5t22.5 -54.5q0 -45 -31.5 -75.5t-75.5 -30.5q-35 0 -57.5 21t-22.5 54zM487 786q0 45 31.5 76t76.5 31q34 0 56.5 -21.5t22.5 -54.5q0 -45 -31.5 -75.5t-75.5 -30.5q-35 0 -57.5 21t-22.5 54z " />
			<glyph unicode="&#xf8;" horiz-adv-x="1015" d="M-4 -130l150 196q-124 104 -124 287q0 147 70 277t190.5 208t259.5 78q63 0 123 -19l-23 -30q-47 21 -98 21q-88 0 -165.5 -49t-130.5 -129t-83.5 -182.5t-30.5 -209.5q0 -126 50 -204l706 916h34l-151 -195q125 -104 125 -286q0 -147 -70 -277t-190.5 -208t-259.5 -78 q-61 0 -122 18l22 30q48 -20 98 -20q116 0 211.5 83t146.5 213t51 274q0 126 -50 202l-705 -916h-34z" />
			<glyph unicode="&#xf9;" horiz-adv-x="1003" d="M39 223q0 58 14 133l107 543h111l-111 -573q-17 -92 -17 -141q0 -81 33.5 -126t116.5 -45q145 0 270 143l-7 -44q-120 -127 -281 -127q-118 0 -177 68t-59 169zM462 1286q0 21 13 34.5t34 13.5q32 0 57 -38l178 -259l-31 -5l-224 202q-27 25 -27 52zM631 0l175 899h112 l-176 -899h-111z" />
			<glyph unicode="&#xfa;" horiz-adv-x="1003" d="M39 223q0 58 14 133l107 543h111l-111 -573q-17 -92 -17 -141q0 -81 33.5 -126t116.5 -45q145 0 270 143l-7 -44q-120 -127 -281 -127q-118 0 -177 68t-59 169zM415 1037l271 266q31 31 60 31q23 0 35.5 -12t12.5 -33q0 -20 -11.5 -34t-36.5 -29l-302 -194zM631 0 l175 899h112l-176 -899h-111z" />
			<glyph unicode="&#xfb;" horiz-adv-x="1003" d="M39 223q0 58 14 133l107 543h111l-111 -573q-17 -92 -17 -141q0 -81 33.5 -126t116.5 -45q145 0 270 143l-7 -44q-120 -127 -281 -127q-118 0 -177 68t-59 169zM336 1037l282 287l177 -287l-26 -5l-168 152l-236 -152zM631 0l175 899h112l-176 -899h-111z" />
			<glyph unicode="&#xfc;" horiz-adv-x="1003" d="M39 223q0 58 14 133l107 543h111l-111 -573q-17 -92 -17 -141q0 -81 33.5 -126t116.5 -45q145 0 270 143l-7 -44q-120 -127 -281 -127q-118 0 -177 68t-59 169zM355 1149q0 39 27.5 65.5t66.5 26.5q30 0 49 -18t19 -47q0 -39 -27 -66t-66 -27q-30 0 -49.5 18.5 t-19.5 47.5zM631 0l175 899h112l-176 -899h-111zM665 1149q0 39 27 65.5t66 26.5q30 0 49 -18t19 -47q0 -39 -27 -66t-66 -27q-30 0 -49 18.5t-19 47.5z" />
			<glyph unicode="&#xfd;" horiz-adv-x="933" d="M16 -469l309 486l-215 882h112l194 -793l-365 -575h-35zM474 1037l271 266q31 31 61 31q47 0 47 -45q0 -34 -47 -63l-302 -194zM479 260l406 639h34l-431 -678z" />
			<glyph unicode="&#xfe;" horiz-adv-x="1050" d="M-100 -469l361 1860h112l-127 -653q135 178 341 178q159 0 253 -99t94 -259q0 -149 -69 -281t-189.5 -211.5t-261.5 -79.5q-127 0 -202 70l11 57q66 -99 189 -99q116 0 211.5 82.5t146.5 212.5t51 275q0 143 -60.5 223.5t-180.5 80.5q-138 0 -244.5 -124.5t-142.5 -307.5 l-182 -925h-111z" />
			<glyph unicode="&#xff;" horiz-adv-x="933" d="M16 -469l309 486l-215 882h112l194 -793l-365 -575h-35zM361 1149q0 39 27.5 65.5t66.5 26.5q30 0 49 -18t19 -47q0 -39 -27 -66t-66 -27q-30 0 -49.5 18.5t-19.5 47.5zM479 260l406 639h34l-431 -678zM671 1149q0 39 27 65.5t66 26.5q30 0 49.5 -18.5t19.5 -46.5 q0 -39 -27.5 -66t-66.5 -27q-30 0 -49 18.5t-19 47.5z" />
			<glyph unicode="&#x178;" horiz-adv-x="1191" d="M198 1391h129l309 -788l-117 -603h-124l116 594zM571 1620q0 39 27.5 65.5t66.5 26.5q30 0 49 -18t19 -47q0 -39 -27 -66t-66 -27q-30 0 -49.5 18.5t-19.5 47.5zM703 719l525 672h37l-549 -704zM881 1620q0 39 27 65.5t66 26.5q30 0 49 -18t19 -47q0 -39 -27 -66t-66 -27 q-30 0 -49 18.5t-19 47.5z" />
			<glyph unicode="&#x2c6;" horiz-adv-x="669" d="M172 1037l283 287l176 -287l-26 -5l-168 152l-236 -152z" />
			<glyph unicode="&#x2dc;" horiz-adv-x="776" d="M176 1059q17 166 184 166q60 0 149 -34.5t139 -34.5q35 0 65 23.5t42 63.5h22q-8 -78 -53.5 -124t-132.5 -46q-59 0 -149 34.5t-132 34.5q-86 0 -111 -83h-23z" />
			<glyph unicode="&#x2000;" horiz-adv-x="902" />
			<glyph unicode="&#x2001;" horiz-adv-x="1805" />
			<glyph unicode="&#x2002;" horiz-adv-x="902" />
			<glyph unicode="&#x2003;" horiz-adv-x="1805" />
			<glyph unicode="&#x2004;" horiz-adv-x="601" />
			<glyph unicode="&#x2005;" horiz-adv-x="451" />
			<glyph unicode="&#x2006;" horiz-adv-x="300" />
			<glyph unicode="&#x2007;" horiz-adv-x="300" />
			<glyph unicode="&#x2008;" horiz-adv-x="225" />
			<glyph unicode="&#x2009;" horiz-adv-x="361" />
			<glyph unicode="&#x200a;" horiz-adv-x="100" />
			<glyph unicode="&#x2010;" horiz-adv-x="830" d="M60 434l6 29h607l-5 -29h-608z" />
			<glyph unicode="&#x2011;" horiz-adv-x="830" d="M60 434l6 29h607l-5 -29h-608z" />
			<glyph unicode="&#x2012;" horiz-adv-x="830" d="M60 434l6 29h607l-5 -29h-608z" />
			<glyph unicode="&#x2013;" horiz-adv-x="1152" d="M60 434l6 29h928l-5 -29h-929z" />
			<glyph unicode="&#x2014;" horiz-adv-x="1730" d="M60 434l6 29h1507l-5 -29h-1508z" />
			<glyph unicode="&#x2018;" horiz-adv-x="416" d="M170 1095q0 73 28 134t68 96.5t80.5 60.5t68.5 34l28 10l-3 -14q-8 -3 -22 -9t-49.5 -28.5t-62.5 -50t-49.5 -75.5t-22.5 -102q0 -18 4 -32t8 -19l4 -5q2 4 7 10t24.5 16.5t45.5 10.5q32 0 51 -20.5t19 -51.5q0 -41 -28 -71.5t-84 -30.5q-49 0 -82 38t-33 99z" />
			<glyph unicode="&#x2019;" horiz-adv-x="416" d="M167 958l3 14q8 3 22 9t49.5 28.5t62.5 50t49.5 75.5t22.5 102q0 18 -4 32t-8 19l-4 5q-2 -4 -6.5 -10t-24 -16.5t-45.5 -10.5q-32 0 -51.5 20.5t-19.5 51.5q0 41 28.5 71.5t84.5 30.5q48 0 81 -37.5t33 -99.5q0 -73 -28 -134t-68 -96.5t-80.5 -60.5t-68.5 -34z" />
			<glyph unicode="&#x201a;" horiz-adv-x="416" d="M-81 -316l3 13q8 3 22 9t49.5 28.5t62.5 50t49.5 75.5t22.5 102q0 18 -4 32t-8 19l-3 5q-2 -4 -7 -10t-24.5 -16t-45.5 -10q-32 0 -51.5 20t-19.5 51q0 41 28.5 71.5t84.5 30.5q49 0 82 -38t33 -99q0 -53 -15 -100t-39.5 -80t-53.5 -60.5t-58 -44t-53.5 -28.5t-39.5 -17z " />
			<glyph unicode="&#x201c;" horiz-adv-x="719" d="M170 1095q0 73 28 134t68 96.5t80.5 60.5t68.5 34l28 10l-3 -14q-8 -3 -22 -9t-49.5 -28.5t-62.5 -50t-49.5 -75.5t-22.5 -102q0 -18 4 -32t8 -19l4 -5q2 4 7 10t24.5 16.5t45.5 10.5q32 0 51 -20.5t19 -51.5q0 -41 -28 -71.5t-84 -30.5q-49 0 -82 38t-33 99zM473 1095 q0 53 15 100t39 80t53.5 60.5t58.5 44.5t53 29t39 17l15 4l-3 -14q-4 -1 -11.5 -4t-29 -14.5t-40.5 -25t-43 -36t-41 -48t-28.5 -61.5t-11.5 -76q0 -18 4 -32t8 -19l3 -5q2 4 7 10t24.5 16.5t45.5 10.5q32 0 51 -20.5t19 -51.5q0 -41 -28 -71.5t-84 -30.5q-49 0 -82 38 t-33 99z" />
			<glyph unicode="&#x201d;" horiz-adv-x="719" d="M167 958l3 14q8 3 22 9t49.5 28.5t62.5 50t49.5 75.5t22.5 102q0 18 -4 32t-8 19l-4 5q-2 -4 -6.5 -10t-24 -16.5t-45.5 -10.5q-32 0 -51.5 20.5t-19.5 51.5q0 41 28.5 71.5t84.5 30.5q48 0 81 -37.5t33 -99.5q0 -73 -28 -134t-68 -96.5t-80.5 -60.5t-68.5 -34zM470 958 l3 14q8 3 22 9t49.5 28.5t62.5 50t49.5 75.5t22.5 102q0 18 -3.5 32t-7.5 19l-4 5q-2 -4 -7 -10t-24.5 -16.5t-45.5 -10.5q-32 0 -51.5 20.5t-19.5 51.5q0 41 28.5 71.5t84.5 30.5q48 0 81 -37.5t33 -99.5q0 -53 -15 -100t-39 -80t-53.5 -60.5t-58.5 -44.5t-53 -29t-39 -17z " />
			<glyph unicode="&#x201e;" horiz-adv-x="719" d="M-81 -316l3 13q8 3 22 9t49.5 28.5t62.5 50t49.5 75.5t22.5 102q0 18 -4 32t-8 19l-3 5q-2 -4 -7 -10t-24.5 -16t-45.5 -10q-32 0 -51.5 20t-19.5 51q0 41 28.5 71.5t84.5 30.5q49 0 82 -38t33 -99q0 -53 -15 -100t-39.5 -80t-53.5 -60.5t-58 -44t-53.5 -28.5t-39.5 -17z M222 -316l3 13q8 3 22 9t49.5 28.5t62.5 50t49.5 75.5t22.5 102q0 18 -3.5 32t-7.5 19l-4 5q-2 -4 -7 -10t-24.5 -16t-45.5 -10q-32 0 -51.5 20t-19.5 51q0 41 28.5 71.5t84.5 30.5q49 0 82 -38t33 -99q0 -53 -15 -100t-39.5 -80t-53.5 -60.5t-58 -44t-53.5 -28.5t-39.5 -17 z" />
			<glyph unicode="&#x2022;" horiz-adv-x="651" d="M71 418q0 98 70 166.5t168 68.5q77 0 126.5 -48.5t49.5 -123.5q0 -98 -70 -166.5t-168 -68.5q-77 0 -126.5 48.5t-49.5 123.5z" />
			<glyph unicode="&#x2026;" horiz-adv-x="1170" d="M-14 52q0 42 29 70.5t70 28.5q32 0 53 -20t21 -51q0 -41 -29.5 -69.5t-70.5 -28.5q-32 0 -52.5 19.5t-20.5 50.5zM376 52q0 42 29 70.5t70 28.5q32 0 53 -20t21 -51q0 -42 -29 -70t-70 -28q-32 0 -53 19.5t-21 50.5zM766 52q0 42 29 70.5t70 28.5q32 0 53 -20t21 -51 q0 -42 -29 -70t-70 -28q-32 0 -53 19.5t-21 50.5z" />
			<glyph unicode="&#x202f;" horiz-adv-x="361" />
			<glyph unicode="&#x2039;" horiz-adv-x="540" d="M34 454l391 327l16 -21l-369 -309l246 -307l-21 -18z" />
			<glyph unicode="&#x203a;" horiz-adv-x="540" d="M5 147l370 310l-247 306l22 18l263 -327l-391 -328z" />
			<glyph unicode="&#x205f;" horiz-adv-x="451" />
			<glyph unicode="&#x20ac;" horiz-adv-x="1070" d="M28 557l15 29h124q11 119 42 219h-133l15 29h127q52 163 144 295.5t210 210t238 77.5q45 0 86.5 -10.5t68.5 -25.5t48 -30.5t31 -26.5l9 -10l-14 -75l-8 16t-24.5 36t-43 46t-64 36t-86.5 16q-128 0 -242 -115t-186.5 -297t-95.5 -391h444l-15 -29h-432q-6 -67 -6 -134 q0 -421 257 -421q50 0 100 15t85.5 37t63.5 44t42 37l14 15l-17 -82q-5 -4 -15 -10.5t-41.5 -22.5t-63.5 -28.5t-78 -23t-89 -10.5q-165 0 -270 136t-105 381q0 21 2 67h-137zM432 805l3 29h437l-15 -29h-425z" />
			<glyph unicode="&#x2122;" horiz-adv-x="776" d="M132 1374v17h246v-17h-103v-289h-42v289h-101zM409 1085l47 311l138 -255l137 255l44 -311h-41l-32 221l-120 -226l-123 225l-33 -220h-17z" />
			<glyph unicode="&#xe000;" horiz-adv-x="900" d="M0 0v900h900v-900h-900z" />
		</font>
</defs>
</svg>
