
<?xml version="1.0" standalone="no"?>
<!DOCTYPE svg PUBLIC "-//W3C//DTD SVG 1.1//EN" "http://www.w3.org/Graphics/SVG/1.1/DTD/svg11.dtd" >
<svg xmlns="http://www.w3.org/2000/svg">
	<metadata></metadata>
	<defs>
		<font id="VanitasStencilBoldItalic" horiz-adv-x="1639" >
			<font-face units-per-em="2048" ascent="1638" descent="-410" />
			<missing-glyph horiz-adv-x="467" />
			<glyph unicode="AE" horiz-adv-x="1640" d="M-79 0l1165 1391h586l-5 -29h-429l-125 -638h330l-5 -29h-330l-130 -666h429l-5 -29h-586l258 1331l-633 -754h387l-5 -29h-406l-459 -548h-37z" />
			<glyph unicode="ae" horiz-adv-x="1473" d="M-12 194q0 42 11 77.5t28.5 63t49.5 53t62.5 44t81 40t91 36t105.5 36.5q72 24 109.5 40t66.5 39.5t38 52.5t9 75q0 67 -35 102t-94 35q-51 0 -102 -15t-87.5 -36t-65.5 -42.5t-44 -36.5l-14 -15l14 76q4 4 12.5 10.5t38 23t62.5 29.5t85.5 23.5t108.5 10.5 q190 0 238 -129q129 129 298 129q140 0 220 -89t80 -238q0 -26 -2.5 -53t-4.5 -42l-3 -14h-521l6 29h368q14 59 14 145q0 50 -7 88.5t-24 73.5t-51 53.5t-84 18.5q-87 0 -155.5 -59t-106.5 -151t-57 -190t-19 -191q0 -283 206 -283q52 0 102.5 17.5t86.5 43t64.5 50.5 t42.5 43l14 17l-16 -76q-4 -5 -12.5 -13.5t-38 -29.5t-62.5 -37t-86 -29.5t-109 -13.5q-64 0 -118.5 18t-101.5 56.5t-74 108.5t-27 165q0 91 24 189q22 90 22 111q-26 -35 -63.5 -57t-145.5 -66q-145 -60 -212.5 -128.5t-67.5 -182.5q0 -80 43.5 -133t117.5 -53 q123 0 222 111l10 -21q-108 -118 -280 -118q-120 0 -190.5 55t-70.5 153z" />
			<glyph unicode="OE" horiz-adv-x="2250" d="M71 553q0 170 73.5 330.5t193 276.5t279.5 186.5t326 70.5q181 0 316.5 -74.5t207.5 -208.5l51 257h764l-5 -29h-608l-265 -1362h-157l45 233q-119 -122 -274 -191t-322 -69q-83 0 -173 20l16 31q75 -22 160 -22q143 0 274 74t224 195.5t148 282.5t55 330 q0 237 -121.5 371t-338.5 134q-144 0 -275 -74.5t-223.5 -197t-147 -283.5t-54.5 -329q0 -320 205 -440l-20 -41q-163 66 -258.5 205.5t-95.5 323.5zM1502 0l5 29h510l-5 -29h-510zM1637 695l5 29h411l-5 -29h-411z" />
			<glyph unicode="oe" horiz-adv-x="1582" d="M31 348q0 142 66 272.5t184 213t256 82.5q203 0 281 -183q66 86 154.5 134.5t190.5 48.5q140 0 220 -89t80 -238q0 -26 -2.5 -53t-4.5 -42l-3 -14h-520l6 29h368q14 59 14 145q0 50 -7 88.5t-24.5 73.5t-51.5 53.5t-84 18.5q-87 0 -155.5 -59t-106.5 -151t-57 -190 t-19 -191q0 -283 207 -283q52 0 102.5 17.5t86 43t64 50.5t42.5 43l14 17l-15 -76q-4 -5 -12.5 -13.5t-38 -29.5t-62.5 -37t-86 -29.5t-109 -13.5q-64 0 -119 18t-102 56.5t-74 108.5t-27 165q0 46 22 172q6 51 6 95q0 152 -51 219.5t-135 67.5t-153.5 -56t-112 -143.5 t-65.5 -187.5t-23 -196q0 -140 50.5 -215.5t140.5 -75.5q150 0 247 149l13 -33q-99 -144 -266 -144q-145 0 -237 97.5t-92 264.5z" />
			<glyph unicode="&#xfb01;" horiz-adv-x="1037" d="M85 0l169 870h-154l6 29h153l21 105q20 104 55.5 180.5t73.5 119t87.5 67.5t89 32t86.5 7q119 0 196 -54q-17 -18 -31 -36q-7 7 -19.5 17t-54.5 27t-87 17q-82 0 -142 -61.5t-90 -214.5l-40 -206h291l-6 -29h-291l-169 -870h-144zM620 0l174 899h145l-175 -899h-144z" />
			<glyph unicode="&#xfb02;" horiz-adv-x="1022" d="M85 0l169 870h-154l6 29h153l21 105q79 406 439 406q60 0 113 -8.5t86 -20.5t57.5 -24t34.5 -21l11 -8l-258 -1328h-145l266 1364q-66 17 -136 17q-37 0 -67.5 -4.5t-70 -21.5t-69.5 -45.5t-56.5 -81t-40.5 -123.5l-40 -206h251l-6 -29h-251l-169 -870h-144z" />
			<glyph unicode="&#xfb03;" horiz-adv-x="1571" d="M85 0l169 870h-154l6 29h153l21 105q20 104 55.5 180.5t73.5 119t87.5 67.5t89 32t86.5 7q119 0 196 -54q-17 -18 -31 -36q-7 7 -19.5 17t-54.5 27t-87 17q-82 0 -142 -61.5t-90 -214.5l-40 -206h291l-6 -29h-291l-169 -870h-144zM620 0l194 1004q20 104 55.5 180.5 t73.5 119t87.5 67.5t89 32t86.5 7q120 0 197 -54q-18 -18 -32 -36q-7 7 -19.5 17t-54.5 27t-87 17q-82 0 -141.5 -61.5t-89.5 -214.5l-40 -206h291l-6 -29h-291l-169 -870h-144zM1154 0l174 899h146l-176 -899h-144z" />
			<glyph unicode="&#xfb04;" horiz-adv-x="1557" d="M85 0l169 870h-154l6 29h153l21 105q20 104 55.5 180.5t73.5 119t87.5 67.5t89 32t86.5 7q119 0 196 -54q-17 -18 -31 -36q-7 7 -19.5 17t-54.5 27t-87 17q-82 0 -142 -61.5t-90 -214.5l-40 -206h291l-6 -29h-291l-169 -870h-144zM620 0l194 1004q79 406 439 406 q60 0 113 -8.5t86 -20.5t57.5 -24t34.5 -21l11 -8l-258 -1328h-144l265 1364q-66 17 -136 17q-37 0 -67.5 -4.5t-69.5 -21.5t-69 -45.5t-56.5 -81t-40.5 -123.5l-40 -206h251l-6 -29h-251l-169 -870h-144z" />
			<glyph horiz-adv-x="0" />
			<glyph horiz-adv-x="2048" />
			<glyph unicode="&#xd;" horiz-adv-x="682" />
			<glyph unicode=" "  horiz-adv-x="467" />
			<glyph unicode="&#x09;" horiz-adv-x="467" />
			<glyph unicode="&#xa0;" horiz-adv-x="467" />
			<glyph unicode="!" horiz-adv-x="391" d="M-16 54q0 42 29.5 71.5t71.5 29.5q33 0 54.5 -20.5t21.5 -52.5q0 -42 -30 -71t-72 -29q-33 0 -54 20t-21 52zM105 312l151 1034q10 71 66 71q30 0 46 -18.5t16 -41.5q0 -17 -4 -34l-245 -1011h-30z" />
			<glyph unicode="&#x22;" horiz-adv-x="531" d="M180 957l45 415q5 56 55 56q24 0 38 -15t14 -39q0 -10 -5 -28l-112 -389h-35zM413 957l45 415q5 56 54 56q24 0 38 -15t14 -39q0 -10 -5 -28l-112 -389h-34z" />
			<glyph unicode="#" horiz-adv-x="1191" d="M-42 -68l272 466h-225l93 161h227l101 174h33l-102 -174h576l-94 -161h-227l-272 -466h-33l273 466h-317l-272 -466h-33zM258 831l94 161h227l273 466h33l-274 -466h317l273 466h33l-273 -466h226l-94 -161h-227l-102 -174h-33l103 174h-576z" />
			<glyph unicode="$" horiz-adv-x="1009" d="M-9 109l13 68q4 -5 11.5 -13.5t34 -31.5t56 -42.5t76 -39.5t96.5 -30l162 562l24 -20l-158 -546q30 -4 61 -4q156 0 248 90t92 231q0 40 -9 75.5t-24 64t-43 60.5t-56.5 59t-73.5 65l-75 63t-62.5 55.5t-55.5 55.5t-41.5 52t-33.5 56.5t-17.5 57t-7.5 64.5 q0 105 61 185.5t160.5 122t218.5 41.5q16 0 32 -1l51 175h30l-52 -177q54 -5 103 -18.5t72 -24.5l22 -11l-12 -63q-1 1 -4 3.5t-12.5 10t-20 14.5t-28 16.5t-35.5 17t-43 14.5t-51 10l-128 -439l-23 18l123 425q-17 1 -35 1q-131 0 -214 -68.5t-83 -192.5q0 -23 2.5 -42.5 t11 -38.5t14.5 -33t23.5 -33t28 -30.5t37 -34t41 -34t49.5 -39.5q45 -35 72 -57t64.5 -55.5t59.5 -58t46.5 -59t37.5 -66t22 -70t9 -80.5q0 -78 -28.5 -145t-76.5 -114t-111.5 -80.5t-134 -49.5t-143.5 -16q-33 0 -67 4l-52 -181h-29l53 184q-48 8 -94.5 22.5t-78 30.5 t-56.5 31t-37 24z" />
			<glyph unicode="%" horiz-adv-x="1587" d="M130 1006q0 157 120 280t282 123q124 0 202 -77t78 -200q0 -102 -53.5 -195t-147 -150.5t-200.5 -57.5q-31 0 -52 4l15 27q15 -4 38 -4q66 0 120.5 39t86.5 100t49.5 129.5t17.5 134.5q0 33 -3.5 61.5t-14 59.5t-27 52.5t-45 35.5t-65.5 14q-53 0 -99 -26t-77.5 -68 t-54 -95.5t-33 -108.5t-10.5 -106q0 -101 33 -157l-29 -56q-62 35 -96.5 97.5t-34.5 143.5zM188 -100l1178 1592h33l-1178 -1592h-33zM775 258q0 157 120.5 280.5t282.5 123.5q124 0 201.5 -77.5t77.5 -200.5q0 -102 -53.5 -195t-147 -150t-200.5 -57q-30 0 -51 4l14 26 q15 -4 38 -4q66 0 120.5 39t86.5 100.5t49.5 130t17.5 134.5q0 223 -154 223q-66 0 -120.5 -39.5t-87 -101t-50 -130.5t-17.5 -134q0 -100 33 -156l-29 -57q-62 35 -96.5 97.5t-34.5 143.5z" />
			<glyph unicode="&#x26;" horiz-adv-x="1284" d="M-33 300q0 88 28.5 159.5t93 137.5t144 121.5t205.5 127.5l-6 10q-77 131 -77 256q0 130 79 217.5t211 87.5q106 0 162 -49.5t56 -133.5q0 -85 -48.5 -151.5t-140.5 -129.5l-21 34q121 119 121 263q0 139 -125 139q-82 0 -125.5 -61.5t-43.5 -155.5q0 -99 73 -224 l406 -687q141 171 193 404h28q-55 -249 -205 -429l140 -236h-175l-486 819q-169 -110 -247 -226.5t-78 -265.5q0 -47 7 -89t27 -86.5t52.5 -76.5t88.5 -52.5t129 -20.5q177 0 328 89l14 -23q-164 -95 -358 -95q-213 0 -331.5 84.5t-118.5 242.5z" />
			<glyph unicode="'" horiz-adv-x="299" d="M180 957l45 415q5 56 55 56q24 0 38 -15t14 -39q0 -10 -5 -28l-112 -389h-35z" />
			<glyph unicode="(" horiz-adv-x="585" d="M35 227q0 130 20 253.5t54.5 221.5t78.5 187.5t93 157.5t98 125.5t93 97t78.5 67.5t54.5 41l20 13h42q-10 -8 -28 -23t-68.5 -70t-97 -118.5t-103 -169.5t-97 -222t-68.5 -276.5t-28 -332.5q0 -132 13 -247.5t32 -185.5t37.5 -121.5t31.5 -72.5l13 -21h-41q-9 9 -24.5 27 t-55 82.5t-69.5 138.5t-54.5 195t-24.5 253z" />
			<glyph unicode=")" horiz-adv-x="585" d="M-172 -469q10 8 27.5 23t68.5 70t97 118.5t102.5 169t97 221.5t68.5 276.5t28 332.5q0 132 -13 247.5t-31.5 186t-37.5 122t-32 72.5l-13 21h41q9 -9 24.5 -27t55 -83t69.5 -139t55 -195t25 -253q0 -130 -20 -253.5t-54.5 -221.5t-78.5 -187.5t-93 -157t-98 -125.5 t-93 -97.5t-78.5 -67t-54.5 -40.5l-20 -13h-42z" />
			<glyph unicode="*" horiz-adv-x="916" d="M158 975q0 44 50 54l307 63l-265 174q-28 20 -28 48q0 21 14.5 35.5t36.5 14.5q26 0 50 -28l205 -230l20 317q1 27 16.5 40t34.5 13q22 0 38 -14t16 -38q0 -8 -4 -22l-102 -299l284 140q15 7 29 7q22 0 36 -14t14 -38q0 -42 -44 -51l-312 -64l257 -170q35 -22 35 -51 q0 -21 -15.5 -37t-37.5 -16t-40 20l-212 240l-19 -314q-2 -57 -52 -57q-22 0 -38 12.5t-16 34.5q0 14 6 32l99 296l-270 -135q-25 -12 -44 -12q-22 0 -35.5 14.5t-13.5 34.5z" />
			<glyph unicode="+" horiz-adv-x="1122" d="M67 466l5 29h434l85 436h30l-85 -436h435l-5 -29h-436l-84 -434h-29l84 434h-434z" />
			<glyph unicode="," horiz-adv-x="428" d="M-15 52q0 44 29.5 74t81.5 30q50 0 80 -36t30 -92q0 -59 -20.5 -111.5t-50 -84.5t-59 -56t-50.5 -34l-20 -10l2 14q6 4 15 10.5t32.5 29.5t41.5 49t33 67t15 84q0 13 -1.5 23t-3.5 14l-2 4q-2 -5 -7.5 -12.5t-26.5 -20t-48 -12.5q-33 0 -52 19t-19 51z" />
			<glyph unicode="-" horiz-adv-x="830" d="M60 434l6 29h607l-5 -29h-608z" />
			<glyph unicode="." horiz-adv-x="393" d="M-14 54q0 42 29.5 71.5t71.5 29.5q33 0 54.5 -20.5t21.5 -52.5q0 -42 -30 -71t-72 -29q-33 0 -54 20t-21 52z" />
			<glyph unicode="/" horiz-adv-x="832" d="M-96 -152l991 1695h34l-991 -1695h-34z" />
			<glyph unicode="0" horiz-adv-x="1178" d="M78 489q0 138 36 276.5t100 254t145.5 205.5t178.5 141t192 51q160 0 266 -136.5t106 -380.5q0 -173 -57 -343.5t-147.5 -298t-209.5 -206.5t-238 -79q-67 0 -135 29l20 34q44 -34 108 -34q89 0 170 60t141.5 160t106 226t68.5 262.5t23 264.5q0 205 -52 309.5 t-164 104.5q-111 0 -209.5 -93t-162 -237t-100.5 -314.5t-37 -330.5q0 -191 43 -290l-39 -67q-153 138 -153 432z" />
			<glyph unicode="1" horiz-adv-x="1053" d="M-108 0l6 29h431l241 1241l-314 -190l7 36l493 301l-271 -1388h431l-5 -29h-1019z" />
			<glyph unicode="2" horiz-adv-x="1007" d="M-95 0q84 53 199 145h738l-83 -145h-854zM213 1148l17 100q5 7 14 18.5t42 40.5t71 51t101.5 40.5t132.5 18.5q83 0 146 -25t100 -69t55 -99t18 -120q0 -101 -44 -210.5t-108.5 -199t-153.5 -180.5t-161.5 -152t-149.5 -118h-72q101 90 187 184t168.5 211.5t130 249 t47.5 259.5q0 55 -8.5 96t-29 75t-58.5 52t-94 18q-61 0 -120 -25t-99 -60t-71 -70.5t-46 -60.5z" />
			<glyph unicode="3" horiz-adv-x="1060" d="M-16 104l13 63q4 -7 13 -18t41.5 -39.5t69.5 -50t99.5 -39.5t130.5 -18q188 0 307 124.5t119 328.5q0 174 -90 258q43 12 96 37q73 -48 114.5 -126.5t41.5 -180.5q0 -93 -36.5 -176.5t-105.5 -149.5t-179 -105t-246 -39q-78 0 -147 13.5t-111 32.5t-73 38.5t-44 32.5z M244 1149l18 91q4 7 11.5 19t37 42.5t66 54t100 42.5t137.5 19q150 0 229.5 -70.5t79.5 -183.5q0 -186 -167 -307t-429 -121l20 29q90 47 207 47q102 50 162 143t60 215q0 99 -46 159.5t-139 60.5q-61 0 -119 -24.5t-97.5 -60t-70.5 -71t-46 -59.5z" />
			<glyph unicode="4" horiz-adv-x="1223" d="M-2 429l979 989l-187 -960h324l-5 -29h-325l-83 -429h-156l227 1171l-709 -713h472l-6 -29h-531z" />
			<glyph unicode="5" horiz-adv-x="1064" d="M-1 98l13 67q4 -7 11.5 -18t35 -39t61 -49.5t90.5 -39t121 -17.5q139 0 243.5 77.5t158 211.5t53.5 305t-65.5 256.5t-207.5 85.5q-111 0 -211 -51l11 33q99 47 217 47q188 0 301 -109t113 -287q0 -81 -24.5 -164.5t-75 -161.5t-120 -138.5t-169 -97t-212.5 -36.5 q-67 0 -127.5 13t-98.5 31.5t-66 36.5t-40 31zM132 775l210 615h663l-80 -146h-606l-156 -469h-31z" />
			<glyph unicode="6" horiz-adv-x="1119" d="M31 421q0 114 34.5 226.5t92.5 206t134 179t160.5 151t170.5 116t164 80t142 37.5l-6 -26q-98 -24 -202 -88t-200.5 -162t-173 -216t-122.5 -263t-46 -290q0 -77 13.5 -141t42 -116.5t79 -82.5t118.5 -30q96 0 178.5 57t136 148t84 199t30.5 214q0 152 -63 235t-186 83 q-92 0 -171 -48l31 49q79 28 157 28q168 0 278.5 -104.5t110.5 -292.5q0 -122 -50 -233.5t-131 -190.5t-187 -126t-216 -47q-83 0 -154.5 27.5t-127.5 81t-88.5 140.5t-32.5 199z" />
			<glyph unicode="7" horiz-adv-x="1045" d="M94 0l864 1391h160l-863 -1391h-161zM221 1362l5 29h634l-17 -29h-622z" />
			<glyph unicode="8" horiz-adv-x="1145" d="M-6 294q0 270 380 441l35 -26q-125 -73 -200.5 -178.5t-75.5 -237.5q0 -142 86.5 -216.5t231.5 -74.5q183 0 301 109.5t118 254.5q0 71 -33 130.5t-85.5 102.5t-116 82t-127 78.5t-116 82t-85.5 102t-33 129.5q0 148 125.5 246t300.5 98q151 0 236 -74.5t85 -181.5 q0 -169 -221 -292l-39 24q167 109 167 273q0 108 -63.5 165.5t-167.5 57.5q-123 0 -205.5 -73.5t-82.5 -182.5q0 -52 21 -96t56 -77t81 -63.5t96.5 -58.5t101 -57.5t96.5 -65t81 -76.5t56 -97t21 -122q0 -189 -158.5 -318t-421.5 -129q-205 0 -325 83.5t-120 237.5z" />
			<glyph unicode="9" horiz-adv-x="1119" d="M101 820q0 122 50 233.5t131 190.5t187 126t216 47q83 0 154.5 -27.5t128 -80.5t89 -140t32.5 -199q0 -133 -46 -262.5t-122 -233.5t-171.5 -195t-196.5 -154t-194.5 -102.5t-168.5 -49.5l7 27q97 24 201.5 88t200.5 162.5t172.5 216.5t122.5 261t46 284q0 80 -13.5 146 t-42 119t-78.5 82.5t-119 29.5q-96 0 -178.5 -57t-136 -148t-84 -199t-30.5 -214q0 -152 63 -235t186 -83q95 0 177 51q-8 -14 -33 -50q-81 -30 -161 -30q-168 0 -278.5 104t-110.5 292z" />
			<glyph unicode=":" horiz-adv-x="394" d="M-14 54q0 42 29.5 71.5t71.5 29.5q33 0 54.5 -20.5t21.5 -52.5q0 -42 -30 -71t-72 -29q-33 0 -54 20t-21 52zM134 816q0 42 30 71t72 29q33 0 54 -20t21 -52q0 -42 -29.5 -71.5t-71.5 -29.5q-33 0 -54.5 20.5t-21.5 52.5z" />
			<glyph unicode=";" horiz-adv-x="428" d="M-15 52q0 44 29.5 74t81.5 30q50 0 80 -36t30 -92q0 -59 -20.5 -111.5t-50 -84.5t-59 -56t-50.5 -34l-20 -10l2 14q6 4 15 10.5t32.5 29.5t41.5 49t33 67t15 84q0 13 -1.5 23t-3.5 14l-2 4q-2 -5 -7.5 -12.5t-26.5 -20t-48 -12.5q-33 0 -52 19t-19 51zM134 816 q0 42 30 71t72 29q33 0 54 -20t21 -52q0 -42 -29.5 -71.5t-71.5 -29.5q-33 0 -54.5 20.5t-21.5 52.5z" />
			<glyph unicode="&#x3c;" horiz-adv-x="1084" d="M36 465l6 30l967 387l-7 -33l-931 -371l787 -373l-5 -27z" />
			<glyph unicode="=" horiz-adv-x="1115" d="M37 308l5 29h892l-5 -29h-892zM98 625l6 28h892l-6 -28h-892z" />
			<glyph unicode="&#x3e;" horiz-adv-x="1084" d="M-8 78l6 33l932 370l-788 373l5 28l818 -387l-7 -30z" />
			<glyph unicode="?" horiz-adv-x="948" d="M146 54q0 42 30 71.5t72 29.5q33 0 54.5 -20.5t21.5 -52.5q0 -42 -30 -71t-72 -29q-33 0 -54.5 20.5t-21.5 51.5zM153 1148l17 92q5 7 15.5 19t47.5 42.5t80.5 54t116.5 42.5t154 19q96 0 169 -26.5t117.5 -74t66.5 -108t22 -133.5q0 -89 -31.5 -170t-79 -139t-113 -109 t-124.5 -83t-123 -58.5t-98.5 -37t-61.5 -17.5l-29 -149h-31l34 172q10 3 28 10t69 32t97.5 55.5t103.5 82.5t98 111.5t69 143.5t28 177q0 62 -10.5 110t-36 91.5t-76 67.5t-123.5 24q-74 0 -142 -25t-112 -60t-78 -70.5t-49 -60.5z" />
			<glyph unicode="@" horiz-adv-x="1649" d="M85 445q0 169 67.5 323t181 264.5t269 175.5t325.5 65q194 0 340.5 -83t221.5 -222t75 -311q0 -139 -49.5 -253t-139.5 -180.5t-204 -66.5q-203 0 -203 160q0 54 29.5 174t29.5 179q0 72 -32.5 125t-101.5 53q-76 0 -136 -68t-89.5 -165.5t-29.5 -197.5q0 -200 128 -200 q64 0 120 54l5 -45q-71 -69 -167 -69q-98 0 -157.5 68t-59.5 199q0 119 52 228.5t139 176t183 66.5q45 0 79 -14.5t52 -35.5t29 -50.5t14 -53t3 -48.5l55 181h123l-122 -398q-37 -122 -37 -170q0 -102 114 -102q96 0 172 66.5t116 172.5t40 228q0 166 -77 297t-211 202.5 t-301 71.5q-204 0 -371 -101t-263.5 -282t-96.5 -405q0 -139 40.5 -253.5t118.5 -200t201 -132.5t280 -47q91 0 179.5 18t151 43.5t111.5 51.5t73 44l24 18l15 -22q-10 -8 -28.5 -21.5t-79 -47.5t-125 -59.5t-162 -47t-194.5 -21.5q-206 0 -369 80.5t-257 233.5t-94 354z " />
			<glyph unicode="A" horiz-adv-x="1257" d="M-67 0l838 1426l283 -1426h-156l-235 1186l-424 -723h467l5 -29h-490l-254 -434h-34z" />
			<glyph unicode="B" horiz-adv-x="1082" d="M-5 0l269 1391h272q183 0 286.5 -65t103.5 -193q0 -118 -87 -207.5t-230 -127.5q160 -21 258 -109.5t98 -234.5q0 -136 -85.5 -241t-223 -159t-299.5 -54h-107l5 29h89q212 0 333.5 126t121.5 319q0 140 -73.5 220.5t-236.5 80.5h-90l7 29h32q167 0 255 94t88 244 q0 104 -52 162t-182 58h-132l-263 -1362h-157z" />
			<glyph unicode="C" horiz-adv-x="1390" d="M71 547q0 179 70 340.5t188 277.5t279.5 184t338.5 68q238 0 407 -98l-15 -73q-72 68 -174 105.5t-220 37.5q-140 0 -269 -64.5t-225.5 -176.5t-153.5 -273t-57 -343q0 -160 53 -281t152 -185l-23 -48q-163 64 -257 204.5t-94 324.5zM521 -10l17 33q68 -21 138 -21 q133 0 262 50.5t233 135.5l-15 -78q-210 -137 -482 -137q-71 0 -153 17z" />
			<glyph unicode="D" horiz-adv-x="1312" d="M-5 0l270 1391h317q147 0 272.5 -45t212 -123.5t135.5 -186.5t49 -231q0 -115 -34 -221.5t-95 -195t-147.5 -161t-190 -122.5t-223.5 -77.5t-247 -27.5h-64l5 29h72q113 0 222 32.5t206 99.5t170.5 161t116.5 225t43 283q0 259 -134 395.5t-365 136.5h-170l-264 -1362 h-157z" />
			<glyph unicode="E" horiz-adv-x="998" d="M-5 0l270 1391h765l-5 -29h-608l-265 -1362h-157zM250 0l5 29h510l-5 -29h-510zM385 695l5 29h411l-5 -29h-411z" />
			<glyph unicode="F" horiz-adv-x="967" d="M-5 0l270 1391h765l-5 -29h-608l-265 -1362h-157zM385 695l5 29h411l-5 -29h-411z" />
			<glyph unicode="G" horiz-adv-x="1483" d="M71 547q0 179 70 340.5t188 277.5t279.5 184t338.5 68q130 0 249.5 -30.5t200.5 -83.5l-15 -73q-70 75 -188 117t-249 42q-140 0 -269 -64.5t-225.5 -176.5t-153.5 -273t-57 -343q0 -160 53 -281t152 -185l-23 -48q-163 64 -257 204.5t-94 324.5zM521 -10l17 33 q68 -21 138 -21q233 0 406 90l120 618h156l-114 -584q-242 -153 -570 -153q-71 0 -153 17z" />
			<glyph unicode="H" horiz-adv-x="1369" d="M-5 0l270 1391h155l-270 -1391h-155zM383 695l5 29h702l130 667h154l-270 -1391h-155l135 695h-701z" />
			<glyph unicode="I" horiz-adv-x="439" d="M6 0l270 1391h157l-270 -1391h-157z" />
			<glyph unicode="J" horiz-adv-x="439" d="M-366 -496l6 29q56 33 95 62t89.5 83.5t87 121t73 171.5t62.5 238l229 1182h157l-215 -1106q-22 -111 -55.5 -209t-72.5 -169.5t-83.5 -132t-88 -101t-85.5 -72t-78 -49.5t-63 -29.5t-42 -14.5z" />
			<glyph unicode="K" horiz-adv-x="1206" d="M-5 0l270 1391h158l-270 -1391h-158zM367 588l9 48l730 755h39l-506 -522l398 -869h-168l-343 754z" />
			<glyph unicode="L" horiz-adv-x="901" d="M-5 0l270 1391h157l-270 -1391h-157zM250 0l5 29h437l-5 -29h-437z" />
			<glyph unicode="M" horiz-adv-x="1891" d="M-26 0l484 1414l404 -1279l-109 -159l-365 1145l-382 -1121h-32zM926 279l786 1135l-65 -1414h-159l51 1115l-601 -870z" />
			<glyph unicode="N" horiz-adv-x="1315" d="M-5 0l274 1414l820 -1220l-42 -218l-797 1185l-225 -1161h-30zM1095 381l196 1010h30l-203 -1046z" />
			<glyph unicode="O" d="M71 553q0 170 73.5 330.5t193 276.5t279.5 186.5t326 70.5q178 0 320.5 -74t224 -208t81.5 -302q0 -115 -34 -226.5t-93.5 -205t-143 -174t-179.5 -136t-205 -87t-218 -31.5q-83 0 -173 20l16 31q75 -22 160 -22q143 0 274 74t224 195.5t148 282.5t55 330 q0 237 -121.5 371t-338.5 134q-144 0 -275 -74.5t-223.5 -197t-147 -283.5t-54.5 -329q0 -320 205 -440l-20 -41q-163 66 -258.5 205.5t-95.5 323.5z" />
			<glyph unicode="P" horiz-adv-x="1028" d="M-5 0l270 1391h350q88 0 161.5 -18.5t132 -56t91.5 -101t33 -148.5q0 -100 -45.5 -182t-123 -135.5t-179 -82.5t-215.5 -29h-97l5 29h79q198 0 305 118.5t107 307.5q0 62 -13 108.5t-43.5 84t-86 57t-134.5 19.5h-176l-265 -1362h-156z" />
			<glyph unicode="Q" d="M71 553q0 170 73.5 330.5t193 276.5t279.5 186.5t326 70.5q178 0 320.5 -74t224 -208t81.5 -302q0 -129 -43 -254t-118 -227t-176 -182.5t-217 -129.5q36 0 70 -13l538 -217h-85l-466 190q-43 17 -89 17q-27 0 -53 -8q-114 -36 -234 -36q-83 0 -173 20l16 31 q75 -22 160 -22q143 0 274 74t224 195.5t148 282.5t55 330q0 237 -121.5 371t-338.5 134q-144 0 -275 -74.5t-223.5 -197t-147 -283.5t-54.5 -329q0 -319 205 -440l-20 -41q-163 67 -258.5 205.5t-95.5 323.5z" />
			<glyph unicode="R" horiz-adv-x="1105" d="M-5 0l270 1391h366q88 0 161.5 -18.5t132 -56t91.5 -101t33 -148.5q0 -100 -45.5 -182t-123.5 -135.5t-179.5 -82.5t-215.5 -29h-52l-32 29h71q198 0 305.5 118.5t107.5 307.5q0 128 -62 198.5t-216 70.5h-191l-138 -712l667 -650h-41l-633 617l-120 -617h-156z" />
			<glyph unicode="S" horiz-adv-x="1005" d="M-24 109l14 68q5 -7 15.5 -18t46 -39.5t75.5 -50t103 -39.5t130 -18q159 0 255 90t96 229q0 50 -13 91t-42.5 81t-64.5 74t-93 81q-52 43 -76.5 63t-64 55.5t-57 55.5t-42 51t-34.5 56.5t-18 57t-8 64.5q0 105 62.5 185.5t164 122t223.5 41.5q70 0 136 -14t96 -28l31 -15 l-12 -63q-4 4 -11 10t-32.5 21.5t-53.5 27.5t-72.5 22t-91.5 10q-134 0 -221 -68.5t-87 -186.5q0 -46 11 -81t41.5 -71t64 -64t98.5 -77q64 -48 99.5 -77t83.5 -76t72.5 -86.5t43 -93.5t18.5 -113q0 -96 -44.5 -174.5t-117.5 -127.5t-162 -75t-182 -26q-65 0 -128 13 t-106.5 31t-78 36.5t-51.5 31.5z" />
			<glyph unicode="T" horiz-adv-x="1176" d="M215 1362l5 29h1007l-5 -29h-425l-266 -1362h-155l265 1362h-426z" />
			<glyph unicode="U" horiz-adv-x="1207" d="M72 386q0 126 32 285l141 720h156l-151 -777q-38 -192 -38 -313q0 -153 77.5 -224.5t206.5 -71.5q195 0 331 116q91 78 138 188.5t76 257.5l161 824h31l-161 -827q-32 -166 -81 -274.5t-144 -190.5q-142 -123 -354 -123q-203 0 -312 102t-109 308z" />
			<glyph unicode="V" horiz-adv-x="1241" d="M196 1391h155l245 -1220l-115 -195zM667 347l616 1044h33l-641 -1087z" />
			<glyph unicode="W" horiz-adv-x="2039" d="M206 1391h154l210 -1201l-117 -214zM641 382l573 1032l237 -1228l-113 -210l-231 1188l-457 -829zM1522 378l550 1013h32l-574 -1061z" />
			<glyph unicode="X" horiz-adv-x="1200" d="M-60 0l518 607l13 -28l-494 -579h-37zM214 1391h169l260 -567l483 567h38l-508 -595l368 -796h-169z" />
			<glyph unicode="Y" horiz-adv-x="1191" d="M198 1391h160l298 -768l-120 -623h-157l120 617zM722 742l506 649h37l-531 -680z" />
			<glyph unicode="Z" horiz-adv-x="1059" d="M-69 0l979 1362h-630l5 29h817l-1001 -1391h-170zM211 0l20 29h626l-5 -29h-641z" />
			<glyph unicode="[" horiz-adv-x="542" d="M-115 -469l362 1860h377l-6 -29h-232l-351 -1802h232l-5 -29h-377z" />
			<glyph unicode="\" horiz-adv-x="832" d="M193 1543h29l336 -1695h-30z" />
			<glyph unicode="]" horiz-adv-x="542" d="M-172 -469l5 29h233l351 1802h-233l5 29h377l-361 -1860h-377z" />
			<glyph unicode="^" horiz-adv-x="588" d="M119 881l315 533l108 -533h-125l-68 332l-197 -332h-33z" />
			<glyph unicode="_" horiz-adv-x="1172" d="M-13 0l5 29h929l-6 -29h-928z" />
			<glyph unicode="`" horiz-adv-x="544" d="M226 1284q0 22 14.5 36t37.5 14q32 0 58 -40l173 -257l-34 -5l-219 198q-30 28 -30 54z" />
			<glyph unicode="a" horiz-adv-x="987" d="M-12 194q0 42 11 77.5t28.5 63t49.5 53t62.5 44t81 40t91 36t105.5 36.5q72 24 109.5 40t66.5 39.5t38 52.5t9 75q0 67 -35 102t-94 35q-50 0 -100.5 -15t-85 -34t-66 -42.5t-44 -35.5t-17.5 -18l14 76q4 4 12.5 10.5t38 23t62.5 29.5t85.5 23.5t108.5 10.5q74 0 126 -19 t78.5 -52.5t37.5 -69.5t11 -80q0 -43 -13 -108l-64 -329q-14 -73 -14 -122q0 -107 68 -107q13 0 25.5 4t18.5 8l6 4l-4 -25q-23 -20 -73 -20q-30 0 -57.5 9.5t-54 31.5t-42.5 65.5t-16 102.5q0 57 15 134l47 235q9 45 11 56q-26 -35 -63.5 -57t-145.5 -66 q-145 -60 -212.5 -128.5t-67.5 -182.5q0 -80 43.5 -133t117.5 -53q87 0 172 66l7 -23q-94 -71 -227 -71q-120 0 -190.5 55t-70.5 153z" />
			<glyph unicode="b" horiz-adv-x="1050" d="M-9 0l270 1391h145l-121 -623q120 148 307 148q150 0 246 -104t96 -270q0 -106 -37 -206.5t-101 -178t-157 -124.5t-198 -47q-126 0 -197 67l12 59q57 -98 173 -98q107 0 191 81t127 207t43 269q0 91 -18.5 155.5t-51 98.5t-68.5 48.5t-78 14.5q-70 0 -130 -35.5 t-102.5 -97.5t-72 -137t-46.5 -162l-88 -456h-144z" />
			<glyph unicode="c" horiz-adv-x="927" d="M22 371q0 147 72 272t197.5 199t275.5 74q80 0 146 -22t92 -44l26 -21l-15 -73q-2 5 -7.5 14t-25.5 32t-44.5 40t-67.5 31.5t-93 14.5q-124 0 -220 -82.5t-143.5 -206t-47.5 -260.5q0 -151 59 -233l-35 -66q-82 47 -125.5 132.5t-43.5 198.5zM287 1l19 38q55 -25 120 -25 q53 0 102.5 14.5t82.5 35t59 41.5t38 35l12 15l-18 -88q-13 -9 -36.5 -22.5t-99.5 -36t-154 -22.5q-68 0 -125 15z" />
			<glyph unicode="d" horiz-adv-x="1050" d="M22 360q0 142 62 269t176.5 207t253.5 80q214 0 270 -196l131 671h145l-270 -1391h-145l80 412q19 102 19 168q0 149 -55.5 228.5t-162.5 79.5t-191 -81t-126.5 -206.5t-42.5 -269.5q0 -91 18.5 -155.5t50.5 -98.5t68 -48.5t78 -14.5q101 0 183 77l-11 -58 q-85 -47 -189 -47q-150 0 -246 104t-96 270z" />
			<glyph unicode="e" horiz-adv-x="962" d="M22 362q0 107 40.5 208t108.5 177t163.5 122.5t200.5 46.5q152 0 233.5 -95.5t81.5 -249.5l-6 -91h-561l5 29h409q9 46 9 123q0 57 -7 99.5t-24.5 80t-52.5 57t-86 19.5q-101 0 -186 -76.5t-134 -208t-49 -287.5q0 -30 3 -58.5t10.5 -65t23 -66.5t37.5 -56t58 -41t81 -15 q59 0 115.5 17.5t95.5 43t69 51t44 42.5l15 18l-16 -77q-5 -5 -14 -13.5t-40.5 -29.5t-66 -37t-88.5 -29.5t-109 -13.5q-169 0 -266 102t-97 274z" />
			<glyph unicode="f" horiz-adv-x="695" d="M85 0l169 870h-154l6 29h154l23 116q19 95 52 168t70.5 115t84 68t86 35t82.5 9q40 0 78 -9.5t56 -18.5l19 -10l-12 -60l-5 7.5t-15 16.5t-27 21t-40.5 16.5t-55.5 7.5q-74 0 -126.5 -57t-80.5 -199l-45 -226h270l-6 -29h-270l-169 -870h-144z" />
			<glyph unicode="g" horiz-adv-x="1026" d="M-140 -256q0 62 50.5 116t134.5 90l87 -22q-62 -34 -97.5 -82t-35.5 -103q0 -85 81 -141.5t211 -56.5q152 0 260.5 73.5t108.5 172.5q0 74 -68 120.5t-164.5 66.5t-193 34t-164.5 37.5t-68 62.5q0 80 322 106q-109 24 -173 101t-64 186q0 165 135 288t322 123q32 0 56 -4 l-14 -28q-17 4 -44 4q-76 0 -136.5 -36.5t-97 -96.5t-55.5 -132.5t-19 -149.5q0 -234 186 -234q97 0 168 62t104.5 155t33.5 201q0 122 -50 179l25 50q78 -34 123 -100q50 40 69 147h131q-11 -54 -65.5 -102.5t-119.5 -68.5q32 -64 32 -141q0 -125 -75.5 -223.5 t-191.5 -145.5q-31 -13 -69.5 -23t-62.5 -14.5t-63 -10.5t-45 -7q-41 -7 -68.5 -12.5t-65.5 -16t-58 -25t-20 -31.5q0 -27 48 -47t120 -31t156 -29t156 -40t120 -66.5t48 -105.5q0 -78 -73.5 -142t-190 -99t-246.5 -35q-176 0 -303 63.5t-127 163.5z" />
			<glyph unicode="h" horiz-adv-x="1003" d="M-9 0l270 1391h145l-271 -1391h-144zM383 774l8 43q104 99 247 99q51 0 90.5 -13t65.5 -35t42.5 -53t23.5 -65.5t7 -74.5q0 -68 -23 -188l-95 -487h-145l112 573q23 122 23 172q0 143 -130 143q-125 0 -226 -114z" />
			<glyph unicode="i" horiz-adv-x="419" d="M3 0l175 899h145l-176 -899h-144zM216 1156q0 42 28.5 69.5t69.5 27.5q32 0 53 -19.5t21 -50.5q0 -42 -28.5 -70t-69.5 -28q-32 0 -53 20t-21 51z" />
			<glyph unicode="j" horiz-adv-x="419" d="M-312 -469l4 23q89 67 128 109q124 134 197 425q17 69 32 148l129 663h145l-115 -588q-19 -96 -44.5 -181t-50.5 -148.5t-59.5 -121t-61.5 -96t-66.5 -75.5t-63.5 -57t-64 -43.5t-57 -32t-53 -25.5zM216 1156q0 42 28.5 69.5t69.5 27.5q32 0 53 -19.5t21 -50.5 q0 -42 -28.5 -70t-69.5 -28q-32 0 -53 20t-21 51z" />
			<glyph unicode="k" horiz-adv-x="949" d="M-9 0l270 1391h145l-271 -1391h-144zM310 391l9 46l485 462h40l-340 -324l284 -575h-158l-231 476z" />
			<glyph unicode="l" horiz-adv-x="419" d="M3 0l270 1391h145l-271 -1391h-144z" />
			<glyph unicode="m" horiz-adv-x="1579" d="M-9 0l175 899h144l-175 -899h-144zM384 779l9 43q97 94 224 94q117 0 175.5 -63t58.5 -180q0 -47 -12 -112l-110 -561h-144l111 573q20 109 20 158q0 74 -28 115.5t-99 41.5q-111 0 -205 -109zM939 767q111 149 273 149q117 0 175.5 -63t58.5 -180q0 -47 -12 -112 l-110 -561h-144l111 573q20 109 20 158q0 74 -28 115.5t-99 41.5q-132 0 -239 -152z" />
			<glyph unicode="n" horiz-adv-x="1003" d="M-9 0l175 899h144l-175 -899h-144zM383 774l8 43q104 99 247 99q51 0 90.5 -13t65.5 -35t42.5 -53t23.5 -65.5t7 -74.5q0 -68 -23 -188l-95 -487h-145l112 573q23 122 23 172q0 143 -130 143q-125 0 -226 -114z" />
			<glyph unicode="o" horiz-adv-x="1015" d="M22 353q0 150 68 279t188 206.5t264 77.5q163 0 259.5 -103t96.5 -264q0 -150 -68 -279t-188 -206.5t-264 -77.5q-46 0 -94 10l16 33q37 -15 76 -15q87 0 160 51t119.5 133.5t72 182.5t25.5 203q0 133 -51 218.5t-158 85.5q-87 0 -160 -51t-119.5 -133.5t-72 -182.5 t-25.5 -203q0 -144 53 -222l-32 -63q-80 46 -123 129.5t-43 190.5z" />
			<glyph unicode="p" horiz-adv-x="1050" d="M-100 -469l266 1368h144l-25 -131q120 148 307 148q150 0 246 -104t96 -270q0 -106 -37 -206.5t-101 -178t-157 -124.5t-198 -47q-126 0 -197 67l12 59q57 -98 173 -98q107 0 191 81t127 207t43 269q0 91 -18.5 155.5t-51 98.5t-68.5 48.5t-78 14.5q-70 0 -130 -35.5 t-102.5 -97.5t-72 -137t-46.5 -162l-179 -925h-144z" />
			<glyph unicode="q" horiz-adv-x="1050" d="M22 360q0 142 62 269t176.5 207t253.5 80q214 0 270 -196l36 179h145l-267 -1368h-144l171 881q19 102 19 168q0 149 -55.5 228.5t-162.5 79.5t-191 -81t-126.5 -206.5t-42.5 -269.5q0 -91 18.5 -155.5t50.5 -98.5t68 -48.5t78 -14.5q101 0 183 77l-11 -58 q-85 -47 -189 -47q-150 0 -246 104t-96 270z" />
			<glyph unicode="r" horiz-adv-x="665" d="M-9 0l175 899h144l-61 -316q48 127 136 215q120 120 257 120l-18 -95q-147 0 -262 -123t-151 -308l-76 -392h-144z" />
			<glyph unicode="s" horiz-adv-x="867" d="M-32 86l16 75q3 -4 8.5 -11.5t26 -27.5t44 -37t62.5 -35t81 -27l-17 -30q-46 6 -85.5 18t-63 24.5t-41 24t-24.5 18.5zM96 666q0 80 54 138.5t135 85t175 26.5q76 0 142.5 -18t95.5 -36l29 -18l-13 -68q-4 5 -11 12.5t-31.5 26.5t-52 34t-71.5 27t-90 12 q-102 0 -175.5 -47.5t-73.5 -120.5q0 -46 37 -78.5t143 -82.5q48 -22 73 -34t63.5 -33t59 -36.5t46 -38.5t37.5 -45t21 -51t9 -61q0 -120 -104 -196.5t-294 -77.5l15 28q123 4 186 58.5t63 127.5q0 35 -14 63t-46 52.5t-63 43t-85 46.5l-12 6q-43 22 -66 35t-57 34t-52 38.5 t-37.5 41t-27.5 50t-8 56.5z" />
			<glyph unicode="t" horiz-adv-x="684" d="M100 870l5 29h154l44 225l164 103l-65 -328h261l-6 -29h-260l-104 -535q-26 -137 -26 -182q0 -133 116 -133q17 0 33.5 3t25.5 6l8 3l-7 -29q-31 -11 -86 -11q-217 0 -217 222q0 66 25 198l89 458h-154z" />
			<glyph unicode="u" horiz-adv-x="1003" d="M41 224q0 63 24 188l95 487h144l-111 -573q-24 -127 -24 -172q0 -67 29.5 -103.5t100.5 -36.5q126 0 226 113l-8 -43q-103 -98 -247 -98q-63 0 -109 19t-71.5 52.5t-37 74.5t-11.5 92zM598 0l175 899h145l-176 -899h-144z" />
			<glyph unicode="v" horiz-adv-x="929" d="M100 899h146l185 -755l-105 -166zM498 308l376 591h35l-402 -634z" />
			<glyph unicode="w" horiz-adv-x="1526" d="M109 899h145l141 -748l-111 -173zM468 317l391 604l206 -770l-100 -173l-199 747l-290 -449zM1128 316l337 583h33l-359 -620z" />
			<glyph unicode="x" horiz-adv-x="927" d="M-73 0l352 367l13 -25l-327 -342h-38zM100 899h161l192 -351l337 351h37l-360 -377l286 -522h-162z" />
			<glyph unicode="y" horiz-adv-x="933" d="M16 -469l309 486l-215 882h145l184 -755l-388 -613h-35zM503 298l382 601h34l-407 -641z" />
			<glyph unicode="z" horiz-adv-x="825" d="M-67 0l667 870h-454l7 29h629l-689 -899h-160zM215 0l23 29h393l-5 -29h-411z" />
			<glyph unicode="{" horiz-adv-x="539" d="M-94 -204q0 67 27.5 137t67 129t78.5 114.5t66.5 112.5t27.5 104q0 42 -20 57q-21 -6 -42 -6q-15 0 -26.5 2t-15.5 4l-4 3l3 16q18 8 47 8q23 0 41 -7q54 24 54 132q0 76 -36.5 213t-36.5 218q0 82 25.5 145.5t66.5 102.5t98.5 64.5t115.5 35.5t123 10h55l-6 -28 q-87 0 -144 -15.5t-102 -57.5t-65.5 -120.5t-20.5 -200.5q0 -21 1 -90.5t1 -91.5q0 -273 -109 -328q40 -31 40 -110q0 -61 -25.5 -139t-56 -142t-56 -146.5t-25.5 -150.5q0 -96 49.5 -155.5t161.5 -59.5l-5 -25q-63 0 -120.5 12.5t-112 40.5t-87.5 82.5t-33 129.5z" />
			<glyph unicode="|" horiz-adv-x="354" d="M-55 -427l387 1990h29l-387 -1990h-29z" />
			<glyph unicode="}" horiz-adv-x="539" d="M-172 -469l5 28q87 0 144 15.5t102 57.5t66 120.5t21 200.5q0 21 -1 90t-1 91q0 273 108 329q-40 28 -40 109q0 61 25.5 139t56 142.5t56 147t25.5 150.5q0 96 -49.5 155.5t-161.5 59.5l5 25q63 0 120.5 -12.5t112.5 -41t88 -83t33 -129.5q0 -67 -27.5 -137t-67 -129 t-79 -114.5t-67 -112.5t-27.5 -104q0 -41 20 -56q17 5 43 5q15 0 26.5 -2t15.5 -4l4 -2l-3 -16q-18 -9 -47 -9q-21 0 -42 8q-53 -25 -53 -133q0 -76 36 -213t36 -218q0 -82 -25.5 -145.5t-66.5 -102.5t-98.5 -64.5t-115.5 -35t-123 -9.5h-54z" />
			<glyph unicode="~" horiz-adv-x="1178" d="M51 385q9 21 19.5 39.5t34 47t51.5 48t73 34.5t97 15q55 0 120.5 -23.5t116 -51t111.5 -51t107 -23.5q49 0 92 17t70.5 44t44 50t25.5 44h30q-79 -184 -274 -184q-55 0 -120.5 23.5t-116 51.5t-111.5 51.5t-107 23.5q-49 0 -91.5 -17t-70 -45t-43.5 -50t-27 -44h-31z" />
			<glyph unicode="&#xa1;" horiz-adv-x="390" d="M-86 -435q0 17 4 34l245 1010h30l-151 -1033q-10 -72 -66 -72q-30 0 -46 19t-16 42zM137 840q0 42 30 71t72 29q33 0 54 -20.5t21 -52.5q0 -42 -29.5 -71t-71.5 -29q-33 0 -54.5 20.5t-21.5 52.5z" />
			<glyph unicode="&#xa2;" horiz-adv-x="927" d="M22 371q0 147 72 272t197.5 199t275.5 74q27 0 39 -1l-17 -27h-11q-124 0 -220 -82.5t-143.5 -206t-47.5 -260.5q0 -136 47 -215l581 906h31l-92 -143q29 -11 53.5 -25.5t34.5 -23.5l9 -9l-15 -73q-3 7 -10 18t-33.5 37.5t-58.5 43.5l-631 -985h-32l118 184 q-71 50 -109 131.5t-38 185.5zM287 1l22 36q54 -23 117 -23q51 0 100.5 15t80 32t60.5 42t37.5 33.5t15.5 17.5l-18 -87q-13 -9 -36.5 -22.5t-99.5 -36t-154 -22.5q-68 0 -125 15z" />
			<glyph unicode="&#xa3;" horiz-adv-x="1167" d="M-89 0q13 5 34.5 15.5t79 48t104.5 81.5h848l-84 -145h-982zM117 681l6 29h180q-4 24 -13.5 75.5t-15 82.5t-10 74.5t-4.5 78.5q0 99 32.5 176.5t88.5 124.5t125.5 71t147.5 24q68 0 127.5 -19.5t95 -46.5t61 -54.5t36.5 -46.5l10 -20l-13 -82q-3 10 -9 26t-31 57.5 t-57 73.5t-90.5 58t-127.5 26q-248 0 -248 -332q0 -65 13 -191t15 -156h355l-7 -29h-347q1 -20 1 -32q0 -235 -158 -405h-62q104 141 104 301q0 40 -14 136h-191z" />
			<glyph unicode="&#xa4;" horiz-adv-x="894" d="M122 391l153 153q-57 63 -57 151q0 87 56 151l-152 153l21 21l153 -153q66 58 151 58q84 0 152 -58l153 153l21 -21l-153 -153q57 -63 57 -151q0 -86 -57 -151l153 -153l-21 -20l-153 152q-65 -57 -152 -57q-38 0 -74 12l18 19q25 -9 56 -9q84 0 142.5 61.5t58.5 145.5 t-58.5 145.5t-142.5 61.5t-142 -61.5t-58 -145.5q0 -93 67 -154l-171 -170z" />
			<glyph unicode="&#xa5;" horiz-adv-x="1130" d="M101 482l7 29h342l19 104l-52 151h-260l5 29h245l-209 596h157l270 -771l-20 -109h353l-6 -29h-353l-93 -482h-156l93 482h-342zM685 737l483 654h35l-440 -596h250l-5 -29h-267l-45 -60z" />
			<glyph unicode="&#xa6;" horiz-adv-x="354" d="M-55 -427l157 813h30l-158 -813h-29zM171 735l161 828h29l-160 -828h-30z" />
			<glyph unicode="&#xa7;" horiz-adv-x="985" d="M-23 -426l13 62q4 -4 11 -10t31.5 -21.5t51.5 -27.5t69 -22t85 -10q130 0 213.5 77t83.5 192q0 78 -50 156t-185 220q-63 66 -93.5 99.5t-72 85.5t-60 87.5t-32.5 81.5t-14 92q0 149 124 253q11 -35 35 -79q-20 -48 -20 -113q0 -89 43 -154.5t176 -199.5q57 -58 84 -86.5 t71 -82t64 -92.5t36.5 -92.5t16.5 -107.5q0 -164 -121 -264.5t-307 -100.5q-68 0 -131.5 14.5t-92.5 28.5zM214 1069q0 151 121.5 246t305.5 95q70 0 133.5 -14t91.5 -28l29 -15l-12 -63q-4 4 -10.5 10t-31 21.5t-52 27.5t-71.5 22t-91 10q-126 0 -207.5 -64.5t-81.5 -186.5 q0 -76 43.5 -140.5t190.5 -220.5q53 -56 78.5 -83.5t64.5 -73t56.5 -74t38 -66.5t28 -73.5t7.5 -74.5q0 -152 -126 -254q-10 35 -34 82q21 48 21 107q0 47 -10.5 83.5t-42.5 82t-64 81t-103 108.5q-54 56 -83.5 88t-71.5 84.5t-63.5 92t-37.5 90t-16 100.5z" />
			<glyph unicode="&#xa8;" horiz-adv-x="707" d="M207 1149q0 40 28 67t67 27q31 0 51 -19t20 -48q0 -40 -28 -67.5t-67 -27.5q-31 0 -51 19.5t-20 48.5zM516 1149q0 40 28 67t67 27q31 0 51 -19t20 -48q0 -40 -28 -67.5t-67 -27.5q-31 0 -51 19.5t-20 48.5z" />
			<glyph unicode="&#xa9;" horiz-adv-x="1652" d="M85 695q0 205 99.5 371t269 258.5t372.5 92.5t373 -92.5t269.5 -258.5t99.5 -371t-99.5 -371t-269.5 -258.5t-373 -92.5t-372.5 92.5t-269 258.5t-99.5 371zM115 695q0 -196 96 -358t258.5 -253t356.5 -91t356.5 91t258.5 253t96 358t-96 358.5t-259 253.5t-356 91 t-356 -91t-259 -253.5t-96 -358.5zM384 695q0 191 128 314.5t324 123.5q152 0 269 -68v-47q-50 45 -123 70.5t-146 25.5q-159 0 -256 -116.5t-97 -302.5q0 -185 97 -302.5t256 -117.5q81 0 161 31.5t129 87.5v-42q-52 -45 -129 -70t-162 -25q-194 0 -322.5 123.5 t-128.5 314.5z" />
			<glyph unicode="&#xaa;" horiz-adv-x="727" d="M122 925q0 31 8.5 56.5t30 47t42.5 37t62.5 32.5t72 28t87.5 30q82 28 106.5 52t24.5 73q0 52 -26 82t-79 30q-54 0 -99.5 -25.5t-64.5 -50.5l-19 -25l12 62q6 7 18 17.5t58 28t103 17.5q108 0 157.5 -53t49.5 -125q0 -33 -8 -79l-40 -206q-10 -51 -10 -85q0 -72 52 -72 q8 0 15.5 2.5t10.5 4.5l4 2l-3 -16q-14 -14 -54 -14q-131 0 -131 155q0 44 10 97l34 174q-14 -18 -35 -31t-83 -37q-106 -41 -151 -88t-45 -116q0 -64 30.5 -100t81.5 -36q40 0 80 21l8 -17q-55 -29 -122 -29q-91 0 -139.5 42.5t-48.5 113.5z" />
			<glyph unicode="&#xab;" horiz-adv-x="925" d="M34 454l391 327l16 -21l-369 -309l246 -307l-21 -18zM419 454l391 327l16 -21l-369 -309l246 -307l-21 -18z" />
			<glyph unicode="&#xac;" horiz-adv-x="1122" d="M67 466l5 29h899l-68 -350h-30l63 321h-869z" />
			<glyph unicode="&#xad;" horiz-adv-x="830" d="M60 434l6 29h607l-5 -29h-608z" />
			<glyph unicode="&#xae;" horiz-adv-x="731" d="M167 1141q0 115 80.5 195.5t195.5 80.5q116 0 196.5 -79.5t80.5 -196.5q0 -115 -81 -196t-196 -81t-195.5 81t-80.5 196zM194 1141q0 -106 73 -182.5t176 -76.5t176.5 76.5t73.5 182.5q0 103 -74 180.5t-176 77.5q-103 0 -176 -76t-73 -182zM355 990v305h84 q48 0 77 -23.5t29 -60.5q0 -36 -29 -59t-77 -23h-40l165 -139h-17l-154 130v-130h-38zM393 1142h34q75 0 75 69q0 72 -75 72h-34v-141z" />
			<glyph unicode="&#xaf;" horiz-adv-x="707" d="M183 1098l11 54h496l-10 -54h-497z" />
			<glyph unicode="&#xb0;" horiz-adv-x="646" d="M182 1169q0 101 74 172.5t186 71.5q100 0 158 -48.5t58 -137.5q0 -101 -76.5 -172.5t-187.5 -71.5l-21 1l12 25q76 0 127.5 67t51.5 165q0 60 -30.5 104t-84.5 44q-73 0 -123.5 -68.5t-50.5 -166.5q0 -49 23 -92l-27 -51q-89 49 -89 158z" />
			<glyph unicode="&#xb1;" horiz-adv-x="1135" d="M-13 0l5 29h892l-5 -29h-892zM95 560l6 29h430l83 430h31l-83 -430h431l-6 -29h-431l-73 -374h-30l72 374h-430z" />
			<glyph unicode="&#xb2;" horiz-adv-x="552" d="M96 983q53 36 121 96h362l-54 -96h-429zM248 1546l11 60q2 4 6 10t19 21t33.5 27t49 21.5t65.5 9.5q83 0 126 -48t43 -119q0 -178 -262 -383h-53q207 211 207 407q0 118 -83 118q-26 0 -52 -13t-45 -31t-34 -36t-23 -31z" />
			<glyph unicode="&#xb3;" horiz-adv-x="608" d="M165 1032l9 45q2 -3 7 -9t21 -20t34.5 -25t48 -20t61.5 -9q86 0 137.5 60.5t51.5 147.5q0 68 -26 117q44 15 78 36q58 -50 58 -138q0 -104 -78 -175.5t-208 -71.5q-59 0 -107.5 15.5t-67.5 30.5zM295 1549l10 62q2 3 7 9t21.5 20.5t35.5 25.5t51.5 20t67.5 9 q76 0 112.5 -36.5t36.5 -92.5q0 -67 -48.5 -118.5t-115 -75.5t-136.5 -26l11 27q39 21 98 24q46 26 72.5 72t26.5 106q0 95 -79 95q-29 0 -57.5 -12.5t-48 -30t-35 -35.5t-23.5 -30z" />
			<glyph unicode="&#xb4;" horiz-adv-x="544" d="M169 1037l267 265q32 32 62 32q50 0 50 -48q0 -35 -48 -64l-298 -190z" />
			<glyph unicode="&#xb6;" horiz-adv-x="1326" d="M119 981q0 199 152.5 304.5t400.5 105.5h337l-347 -1781l-173 -79l357 1831h-150q-112 0 -193.5 -30.5t-128.5 -87t-68.5 -128.5t-21.5 -163q0 -55 14 -102t44.5 -88.5t85 -67.5t129.5 -31l-20 -26q-118 4 -210.5 42.5t-150 116t-57.5 184.5zM812 -321l333 1712h260 l-25 -29h-85l-312 -1603z" />
			<glyph unicode="&#xb7;" horiz-adv-x="394" d="M60 434q0 42 30 71.5t72 29.5q33 0 54.5 -20.5t21.5 -52.5q0 -42 -30 -71.5t-72 -29.5q-33 0 -54.5 20.5t-21.5 52.5z" />
			<glyph unicode="&#xb8;" horiz-adv-x="510" d="M-105 -351q42 -22 96 -22q67 0 104.5 38t37.5 93q0 56 -40 89t-101 33l173 128h38l-120 -105q53 0 98 -40t45 -101q0 -70 -62.5 -115.5t-160.5 -45.5q-29 0 -56 6t-39 11l-13 6v25z" />
			<glyph unicode="&#xb9;" horiz-adv-x="648" d="M135 983l5 25h197l110 570l-135 -83l6 34l269 166l-133 -687h197l-5 -25h-511z" />
			<glyph unicode="&#xba;" horiz-adv-x="717" d="M128 1016q0 159 108.5 280t255.5 121q110 0 179 -70.5t69 -183.5q0 -160 -107.5 -280t-256.5 -120q-21 0 -31 1l12 23h18q60 0 108.5 41t76.5 104.5t43 132t15 131.5q0 40 -4.5 71t-17 61.5t-38.5 47.5t-65 17q-60 0 -108.5 -41.5t-76.5 -106t-43 -133t-15 -131.5 q0 -89 23 -134l-26 -52q-57 31 -88 88.5t-31 132.5z" />
			<glyph unicode="&#xbb;" horiz-adv-x="925" d="M5 147l370 310l-247 306l22 18l263 -327l-391 -328zM390 147l370 310l-247 306l22 18l263 -327l-391 -328z" />
			<glyph unicode="&#xbc;" horiz-adv-x="1594" d="M79 694l5 25h197l110 570l-135 -83l6 34l268 166l-133 -687h198l-5 -25h-511zM274 -100l1175 1592h36l-1176 -1592h-35zM868 179l528 534l-99 -509h140l-5 -25h-140l-35 -179h-115l101 523l-317 -319h188l-4 -25h-242z" />
			<glyph unicode="&#xbd;" horiz-adv-x="1616" d="M79 694l5 25h197l110 570l-135 -83l6 34l268 166l-133 -687h198l-5 -25h-511zM274 -100l1175 1592h36l-1176 -1592h-35zM969 0q53 36 121 96h361l-53 -96h-429zM1120 563l12 60q2 4 6 10t19 21t33.5 27t49 21.5t65.5 9.5q83 0 126 -48t43 -119q0 -177 -263 -383h-53 q207 211 207 407q0 118 -83 118q-26 0 -52 -13t-45 -31t-34 -36t-23 -31z" />
			<glyph unicode="&#xbe;" horiz-adv-x="1460" d="M109 743l9 45q2 -3 7 -8.5t21 -20t34.5 -25t48 -19.5t61.5 -9q86 0 137 60t51 147q0 70 -25 117q42 14 77 36q59 -51 59 -138q0 -104 -78 -175.5t-208 -71.5q-59 0 -107.5 15.5t-67.5 31.5zM140 -100l1175 1592h36l-1176 -1592h-35zM239 1261l10 61q2 3 7 9t21.5 20.5 t35.5 25.5t51.5 20t67.5 9q76 0 112.5 -36.5t36.5 -92.5q0 -67 -48.5 -118.5t-115 -75.5t-136.5 -26l11 27q39 21 98 24q45 25 71.5 71.5t26.5 106.5q0 95 -78 95q-29 0 -57.5 -12.5t-48 -30t-35 -35t-23.5 -29.5zM734 179l528 534l-99 -509h140l-6 -25h-139l-35 -179h-115 l101 523l-317 -319h188l-4 -25h-242z" />
			<glyph unicode="&#xbf;" horiz-adv-x="948" d="M-102 -154q0 89 31.5 170t79 139t113 109.5t124.5 83.5t123 58.5t99 37t61 17.5l29 148h31l-34 -172q-10 -3 -28 -9.5t-69 -32t-97.5 -55.5t-103.5 -82.5t-98 -111.5t-69 -143t-28 -177q0 -62 10.5 -110t36 -91.5t76 -67.5t123.5 -24q74 0 142 25t112.5 60t78 70.5 t49.5 60.5l15 25l-18 -92q-5 -7 -15.5 -19t-47.5 -43t-80.5 -54.5t-116.5 -42.5t-154 -19q-96 0 -169 26.5t-117.5 74t-66.5 108t-22 133.5zM534 840q0 42 29.5 71t71.5 29q33 0 54.5 -20.5t21.5 -52.5q0 -42 -30 -71t-72 -29q-33 0 -54 20.5t-21 52.5z" />
			<glyph unicode="&#xc0;" horiz-adv-x="1257" d="M-67 0l838 1426l283 -1426h-156l-235 1186l-424 -723h467l5 -29h-490l-254 -434h-34zM609 1755q0 22 14.5 36t36.5 14q33 0 59 -40l173 -257l-34 -5l-219 198q-30 28 -30 54z" />
			<glyph unicode="&#xc1;" horiz-adv-x="1257" d="M-67 0l838 1426l283 -1426h-156l-235 1186l-424 -723h467l5 -29h-490l-254 -434h-34zM683 1508l267 265q32 32 62 32q50 0 50 -48q0 -35 -48 -64l-298 -190z" />
			<glyph unicode="&#xc2;" horiz-adv-x="1257" d="M-67 0l838 1426l283 -1426h-156l-235 1186l-424 -723h467l5 -29h-490l-254 -434h-34zM557 1508l285 287l174 -287l-27 -5l-166 146l-236 -146z" />
			<glyph unicode="&#xc3;" horiz-adv-x="1257" d="M-67 0l838 1426l283 -1426h-156l-235 1186l-424 -723h467l5 -29h-490l-254 -434h-34zM508 1530q7 74 51 122.5t131 48.5q59 0 151.5 -34.5t134.5 -34.5q82 0 108 82h25q-8 -76 -53 -125.5t-132 -49.5q-59 0 -151.5 34.5t-135.5 34.5q-82 0 -105 -78h-24z" />
			<glyph unicode="&#xc4;" horiz-adv-x="1257" d="M-67 0l838 1426l283 -1426h-156l-235 1186l-424 -723h467l5 -29h-490l-254 -434h-34zM574 1620q0 40 28 67t68 27q31 0 50.5 -19t19.5 -48q0 -40 -28 -67.5t-67 -27.5q-31 0 -51 19.5t-20 48.5zM884 1620q0 40 28 67t67 27q31 0 51 -19t20 -48q0 -40 -28.5 -67.5 t-67.5 -27.5q-31 0 -50.5 19.5t-19.5 48.5z" />
			<glyph unicode="&#xc5;" horiz-adv-x="1257" d="M-67 0l838 1426l283 -1426h-156l-235 1186l-424 -723h467l5 -29h-490l-254 -434h-34zM642 1616q0 69 56 111.5t136 42.5q66 0 108 -28t42 -79q0 -69 -54.5 -111.5t-135.5 -42.5q-65 0 -108.5 28.5t-43.5 78.5zM731 1603q0 -35 16.5 -53t45.5 -18q44 0 73 41t29 104 q0 69 -60 69q-43 0 -73.5 -40.5t-30.5 -102.5z" />
			<glyph unicode="&#xc7;" horiz-adv-x="1390" d="M71 547q0 179 70 340.5t188 277.5t279.5 184t338.5 68q238 0 407 -98l-15 -73q-72 68 -174 105.5t-220 37.5q-140 0 -269 -64.5t-225.5 -176.5t-153.5 -273t-57 -343q0 -193 77 -327.5t217 -180.5l-39 -28q-194 50 -309 198.5t-115 352.5zM406 -351q42 -22 96 -22 q67 0 104.5 38t37.5 93q0 56 -40 89t-101 33l166 122h7q133 0 262 50.5t233 135.5l-15 -78q-210 -137 -482 -137l-80 -70q53 0 98 -40t45 -101q0 -70 -62.5 -115.5t-160.5 -45.5q-29 0 -56 6t-40 11l-12 6v25z" />
			<glyph unicode="&#xc8;" horiz-adv-x="998" d="M-5 0l270 1391h765l-5 -29h-608l-265 -1362h-157zM250 0l5 29h510l-5 -29h-510zM385 695l5 29h411l-5 -29h-411zM502 1755q0 22 14.5 36t36.5 14q32 0 58 -40l173 -257l-33 -5l-220 198q-29 27 -29 54z" />
			<glyph unicode="&#xc9;" horiz-adv-x="998" d="M-5 0l270 1391h765l-5 -29h-608l-265 -1362h-157zM250 0l5 29h510l-5 -29h-510zM385 695l5 29h411l-5 -29h-411zM522 1508l268 265q32 32 61 32q50 0 50 -48q0 -35 -48 -64l-298 -190z" />
			<glyph unicode="&#xca;" horiz-adv-x="998" d="M-5 0l270 1391h765l-5 -29h-608l-265 -1362h-157zM250 0l5 29h510l-5 -29h-510zM385 695l5 29h411l-5 -29h-411zM460 1508l284 287l175 -287l-27 -5l-166 146l-237 -146z" />
			<glyph unicode="&#xcb;" horiz-adv-x="998" d="M-5 0l270 1391h765l-5 -29h-608l-265 -1362h-157zM250 0l5 29h510l-5 -29h-510zM385 695l5 29h411l-5 -29h-411zM477 1620q0 40 28 67t67 27q31 0 51 -19t20 -48q0 -40 -28 -67.5t-67 -27.5q-31 0 -51 19.5t-20 48.5zM786 1620q0 40 28 67t68 27q31 0 50.5 -19t19.5 -48 q0 -40 -28 -67.5t-67 -27.5q-31 0 -51 19.5t-20 48.5z" />
			<glyph unicode="&#xcc;" horiz-adv-x="439" d="M6 0l270 1391h157l-270 -1391h-157zM196 1755q0 22 14.5 36t36.5 14q32 0 58 -40l173 -257l-34 -5l-219 198q-29 27 -29 54z" />
			<glyph unicode="&#xcd;" horiz-adv-x="439" d="M6 0l270 1391h157l-270 -1391h-157zM278 1508l267 265q32 32 61 32q50 0 50 -48q0 -35 -48 -64l-298 -190z" />
			<glyph unicode="&#xce;" horiz-adv-x="439" d="M6 0l270 1391h157l-270 -1391h-157zM147 1508l285 287l174 -287l-26 -5l-166 146l-237 -146z" />
			<glyph unicode="&#xcf;" horiz-adv-x="439" d="M6 0l270 1391h157l-270 -1391h-157zM165 1620q0 40 28 67t67 27q31 0 51 -19t20 -48q0 -40 -28 -67.5t-67 -27.5q-31 0 -51 19.5t-20 48.5zM474 1620q0 40 28 67t67 27q31 0 51 -19t20 -48q0 -40 -28 -67.5t-67 -27.5q-31 0 -51 19.5t-20 48.5z" />
			<glyph unicode="&#xd0;" horiz-adv-x="1323" d="M-2 695l5 29h142l130 667h317q196 0 349.5 -77t237 -210.5t83.5 -298.5q0 -115 -34 -221.5t-95 -195t-147.5 -161t-190 -122.5t-223.5 -77.5t-247 -27.5h-65l5 29h72q113 0 222 32.5t206.5 99.5t171 161t116.5 225t43 283q0 259 -134 395.5t-366 136.5h-170l-124 -638 h401l-5 -29h-402l-134 -695h-157l135 695h-142z" />
			<glyph unicode="&#xd1;" horiz-adv-x="1315" d="M-5 0l274 1414l820 -1220l-42 -218l-797 1185l-225 -1161h-30zM553 1530q7 74 51 122.5t131 48.5q59 0 151.5 -34.5t134.5 -34.5q82 0 108 82h25q-8 -76 -53 -125.5t-132 -49.5q-59 0 -151.5 34.5t-135.5 34.5q-81 0 -104 -78h-25zM1095 381l196 1010h30l-203 -1046z" />
			<glyph unicode="&#xd2;" d="M71 553q0 170 73.5 330.5t193 276.5t279.5 186.5t326 70.5q178 0 320.5 -74t224 -208t81.5 -302q0 -115 -34 -226.5t-93.5 -205t-143 -174t-179.5 -136t-205 -87t-218 -31.5q-83 0 -173 20l16 31q75 -22 160 -22q143 0 274 74t224 195.5t148 282.5t55 330 q0 237 -121.5 371t-338.5 134q-144 0 -275 -74.5t-223.5 -197t-147 -283.5t-54.5 -329q0 -320 205 -440l-20 -41q-163 66 -258.5 205.5t-95.5 323.5zM826 1755q0 22 14.5 36t37.5 14q32 0 58 -40l173 -257l-34 -5l-219 198q-30 28 -30 54z" />
			<glyph unicode="&#xd3;" d="M71 553q0 170 73.5 330.5t193 276.5t279.5 186.5t326 70.5q178 0 320.5 -74t224 -208t81.5 -302q0 -115 -34 -226.5t-93.5 -205t-143 -174t-179.5 -136t-205 -87t-218 -31.5q-83 0 -173 20l16 31q75 -22 160 -22q143 0 274 74t224 195.5t148 282.5t55 330 q0 237 -121.5 371t-338.5 134q-144 0 -275 -74.5t-223.5 -197t-147 -283.5t-54.5 -329q0 -320 205 -440l-20 -41q-163 66 -258.5 205.5t-95.5 323.5zM847 1508l267 265q32 32 62 32q50 0 50 -48q0 -35 -48 -64l-298 -190z" />
			<glyph unicode="&#xd4;" d="M71 553q0 170 73.5 330.5t193 276.5t279.5 186.5t326 70.5q178 0 320.5 -74t224 -208t81.5 -302q0 -115 -34 -226.5t-93.5 -205t-143 -174t-179.5 -136t-205 -87t-218 -31.5q-83 0 -173 20l16 31q75 -22 160 -22q143 0 274 74t224 195.5t148 282.5t55 330 q0 237 -121.5 371t-338.5 134q-144 0 -275 -74.5t-223.5 -197t-147 -283.5t-54.5 -329q0 -320 205 -440l-20 -41q-163 66 -258.5 205.5t-95.5 323.5zM748 1508l284 287l174 -287l-26 -5l-166 146l-237 -146z" />
			<glyph unicode="&#xd5;" d="M71 553q0 170 73.5 330.5t193 276.5t279.5 186.5t326 70.5q178 0 320.5 -74t224 -208t81.5 -302q0 -115 -34 -226.5t-93.5 -205t-143 -174t-179.5 -136t-205 -87t-218 -31.5q-83 0 -173 20l16 31q75 -22 160 -22q143 0 274 74t224 195.5t148 282.5t55 330 q0 237 -121.5 371t-338.5 134q-144 0 -275 -74.5t-223.5 -197t-147 -283.5t-54.5 -329q0 -320 205 -440l-20 -41q-163 66 -258.5 205.5t-95.5 323.5zM699 1530q7 73 51.5 122t131.5 49q59 0 151 -34.5t134 -34.5q83 0 109 82h24q-8 -76 -53 -125.5t-132 -49.5 q-59 0 -151.5 34.5t-135.5 34.5q-81 0 -104 -78h-25z" />
			<glyph unicode="&#xd6;" d="M71 553q0 170 73.5 330.5t193 276.5t279.5 186.5t326 70.5q178 0 320.5 -74t224 -208t81.5 -302q0 -115 -34 -226.5t-93.5 -205t-143 -174t-179.5 -136t-205 -87t-218 -31.5q-83 0 -173 20l16 31q75 -22 160 -22q143 0 274 74t224 195.5t148 282.5t55 330 q0 237 -121.5 371t-338.5 134q-144 0 -275 -74.5t-223.5 -197t-147 -283.5t-54.5 -329q0 -320 205 -440l-20 -41q-163 66 -258.5 205.5t-95.5 323.5zM765 1620q0 40 28 67t67 27q31 0 51 -19t20 -48q0 -40 -28 -67.5t-67 -27.5q-31 0 -51 19.5t-20 48.5zM1074 1620 q0 40 28 67t67 27q31 0 51 -19t20 -48q0 -40 -28 -67.5t-67 -27.5q-31 0 -51 19.5t-20 48.5z" />
			<glyph unicode="&#xd7;" horiz-adv-x="952" d="M3 135l412 347l-276 346l21 19l276 -346l411 346l19 -20l-412 -348l276 -345l-21 -19l-277 346l-410 -346z" />
			<glyph unicode="&#xd8;" d="M71 553q0 170 73.5 330.5t193 276.5t279.5 186.5t326 70.5q86 0 164 -18l-17 -30q-77 20 -150 20q-144 0 -275 -74.5t-223.5 -197t-147 -283.5t-54.5 -329q0 -315 200 -437l865 1476h31l-108 -185q157 -69 249 -208t92 -318q0 -115 -34 -226.5t-93.5 -205t-143 -174 t-179.5 -136t-205 -87t-218 -31.5q-73 0 -158 17l17 28q64 -16 144 -16q143 0 274 74t224 195.5t148 282.5t55 330q0 151 -50.5 261.5t-146.5 171.5l-859 -1468h-32l104 178q-160 68 -252.5 206t-92.5 320z" />
			<glyph unicode="&#xd9;" horiz-adv-x="1207" d="M72 386q0 126 32 285l141 720h156l-151 -777q-38 -192 -38 -313q0 -153 77.5 -224.5t206.5 -71.5q195 0 331 116q91 78 138 188.5t76 257.5l161 824h31l-161 -827q-32 -166 -81 -274.5t-144 -190.5q-142 -123 -354 -123q-203 0 -312 102t-109 308zM586 1755q0 22 14.5 36 t36.5 14q32 0 58 -40l173 -257l-33 -5l-220 198q-29 27 -29 54z" />
			<glyph unicode="&#xda;" horiz-adv-x="1207" d="M72 386q0 126 32 285l141 720h156l-151 -777q-38 -192 -38 -313q0 -153 77.5 -224.5t206.5 -71.5q195 0 331 116q91 78 138 188.5t76 257.5l161 824h31l-161 -827q-32 -166 -81 -274.5t-144 -190.5q-142 -123 -354 -123q-203 0 -312 102t-109 308zM654 1508l268 265 q32 32 61 32q50 0 50 -48q0 -35 -48 -64l-298 -190z" />
			<glyph unicode="&#xdb;" horiz-adv-x="1207" d="M72 386q0 126 32 285l141 720h156l-151 -777q-38 -192 -38 -313q0 -153 77.5 -224.5t206.5 -71.5q195 0 331 116q91 78 138 188.5t76 257.5l161 824h31l-161 -827q-32 -166 -81 -274.5t-144 -190.5q-142 -123 -354 -123q-203 0 -312 102t-109 308zM571 1508l285 287 l174 -287l-26 -5l-166 146l-237 -146z" />
			<glyph unicode="&#xdc;" horiz-adv-x="1207" d="M72 386q0 126 32 285l141 720h156l-151 -777q-38 -192 -38 -313q0 -153 77.5 -224.5t206.5 -71.5q195 0 331 116q91 78 138 188.5t76 257.5l161 824h31l-161 -827q-32 -166 -81 -274.5t-144 -190.5q-142 -123 -354 -123q-203 0 -312 102t-109 308zM588 1620q0 40 28 67 t67 27q31 0 51 -19t20 -48q0 -40 -28.5 -67.5t-67.5 -27.5q-31 0 -50.5 19.5t-19.5 48.5zM897 1620q0 40 28 67t67 27q31 0 51 -19t20 -48q0 -40 -28 -67.5t-67 -27.5q-31 0 -51 19.5t-20 48.5z" />
			<glyph unicode="&#xdd;" horiz-adv-x="1191" d="M198 1391h160l298 -768l-120 -623h-157l120 617zM711 1508l267 265q32 32 61 32q24 0 37.5 -12.5t13.5 -35.5q0 -20 -11.5 -34t-37.5 -30l-298 -190zM722 742l506 649h37l-531 -680z" />
			<glyph unicode="&#xde;" horiz-adv-x="1028" d="M-5 0l270 1391h155l-49 -255h155q208 0 333 -89t125 -255q0 -79 -31 -146.5t-84.5 -115t-125 -81.5t-152.5 -50t-168 -16h-100l5 29h50q441 0 441 406q0 161 -83.5 225t-246.5 64h-124l-215 -1107h-155z" />
			<glyph unicode="&#xdf;" horiz-adv-x="1043" d="M-9 0l180 925q44 227 170.5 356t312.5 129q122 0 177 -52.5t55 -137.5q0 -64 -29.5 -115.5t-72 -85t-84.5 -64t-71.5 -66.5t-29.5 -78t30.5 -85t74 -84t87 -88t74 -114t30.5 -144q0 -148 -100.5 -231t-256.5 -83q-52 0 -95.5 11t-69 26.5t-44 31.5t-25.5 27l-7 11l15 81 q2 -7 5.5 -17.5t20 -38t38.5 -48.5t62.5 -38.5t89.5 -17.5q101 0 154 69.5t53 177.5q0 62 -18.5 116.5t-46 92t-60 76t-60 69.5t-46 71.5t-18.5 82.5q0 45 20.5 82t53 63.5t72 50.5t79.5 48.5t72.5 52.5t53 68.5t20.5 89.5q0 75 -46 118t-135 43q-274 0 -358 -432l-184 -949 h-143z" />
			<glyph unicode="&#xe0;" horiz-adv-x="987" d="M-12 194q0 42 11 77.5t28.5 63t49.5 53t62.5 44t81 40t91 36t105.5 36.5q72 24 109.5 40t66.5 39.5t38 52.5t9 75q0 67 -35 102t-94 35q-50 0 -100.5 -15t-85 -34t-66 -42.5t-44 -35.5t-17.5 -18l14 76q4 4 12.5 10.5t38 23t62.5 29.5t85.5 23.5t108.5 10.5q74 0 126 -19 t78.5 -52.5t37.5 -69.5t11 -80q0 -43 -13 -108l-64 -329q-14 -73 -14 -122q0 -107 68 -107q13 0 25.5 4t18.5 8l6 4l-4 -25q-23 -20 -73 -20q-30 0 -57.5 9.5t-54 31.5t-42.5 65.5t-16 102.5q0 57 15 134l47 235q9 45 11 56q-26 -35 -63.5 -57t-145.5 -66 q-145 -60 -212.5 -128.5t-67.5 -182.5q0 -80 43.5 -133t117.5 -53q87 0 172 66l7 -23q-94 -71 -227 -71q-120 0 -190.5 55t-70.5 153zM392 1284q0 22 14.5 36t36.5 14q33 0 59 -40l173 -257l-34 -5l-219 198q-30 28 -30 54z" />
			<glyph unicode="&#xe1;" horiz-adv-x="987" d="M-12 194q0 42 11 77.5t28.5 63t49.5 53t62.5 44t81 40t91 36t105.5 36.5q72 24 109.5 40t66.5 39.5t38 52.5t9 75q0 67 -35 102t-94 35q-50 0 -100.5 -15t-85 -34t-66 -42.5t-44 -35.5t-17.5 -18l14 76q4 4 12.5 10.5t38 23t62.5 29.5t85.5 23.5t108.5 10.5q74 0 126 -19 t78.5 -52.5t37.5 -69.5t11 -80q0 -43 -13 -108l-64 -329q-14 -73 -14 -122q0 -107 68 -107q13 0 25.5 4t18.5 8l6 4l-4 -25q-23 -20 -73 -20q-30 0 -57.5 9.5t-54 31.5t-42.5 65.5t-16 102.5q0 57 15 134l47 235q9 45 11 56q-26 -35 -63.5 -57t-145.5 -66 q-145 -60 -212.5 -128.5t-67.5 -182.5q0 -80 43.5 -133t117.5 -53q87 0 172 66l7 -23q-94 -71 -227 -71q-120 0 -190.5 55t-70.5 153zM404 1037l268 265q32 32 61 32q50 0 50 -48q0 -35 -48 -64l-298 -190z" />
			<glyph unicode="&#xe2;" horiz-adv-x="987" d="M-12 194q0 42 11 77.5t28.5 63t49.5 53t62.5 44t81 40t91 36t105.5 36.5q72 24 109.5 40t66.5 39.5t38 52.5t9 75q0 67 -35 102t-94 35q-50 0 -100.5 -15t-85 -34t-66 -42.5t-44 -35.5t-17.5 -18l14 76q4 4 12.5 10.5t38 23t62.5 29.5t85.5 23.5t108.5 10.5q74 0 126 -19 t78.5 -52.5t37.5 -69.5t11 -80q0 -43 -13 -108l-64 -329q-14 -73 -14 -122q0 -107 68 -107q13 0 25.5 4t18.5 8l6 4l-4 -25q-23 -20 -73 -20q-30 0 -57.5 9.5t-54 31.5t-42.5 65.5t-16 102.5q0 57 15 134l47 235q9 45 11 56q-26 -35 -63.5 -57t-145.5 -66 q-145 -60 -212.5 -128.5t-67.5 -182.5q0 -80 43.5 -133t117.5 -53q87 0 172 66l7 -23q-94 -71 -227 -71q-120 0 -190.5 55t-70.5 153zM310 1037l285 287l174 -287l-27 -5l-165 146l-237 -146z" />
			<glyph unicode="&#xe3;" horiz-adv-x="987" d="M-12 194q0 42 11 77.5t28.5 63t49.5 53t62.5 44t81 40t91 36t105.5 36.5q72 24 109.5 40t66.5 39.5t38 52.5t9 75q0 67 -35 102t-94 35q-50 0 -100.5 -15t-85 -34t-66 -42.5t-44 -35.5t-17.5 -18l14 76q4 4 12.5 10.5t38 23t62.5 29.5t85.5 23.5t108.5 10.5q74 0 126 -19 t78.5 -52.5t37.5 -69.5t11 -80q0 -43 -13 -108l-64 -329q-14 -73 -14 -122q0 -107 68 -107q13 0 25.5 4t18.5 8l6 4l-4 -25q-23 -20 -73 -20q-30 0 -57.5 9.5t-54 31.5t-42.5 65.5t-16 102.5q0 57 15 134l47 235q9 45 11 56q-26 -35 -63.5 -57t-145.5 -66 q-145 -60 -212.5 -128.5t-67.5 -182.5q0 -80 43.5 -133t117.5 -53q87 0 172 66l7 -23q-94 -71 -227 -71q-120 0 -190.5 55t-70.5 153zM278 1059q7 74 51 122.5t131 48.5q59 0 151 -34.5t134 -34.5q83 0 109 82h25q-8 -76 -53.5 -125.5t-132.5 -49.5q-59 0 -151 34.5 t-135 34.5q-82 0 -105 -78h-24z" />
			<glyph unicode="&#xe4;" horiz-adv-x="987" d="M-12 194q0 42 11 77.5t28.5 63t49.5 53t62.5 44t81 40t91 36t105.5 36.5q72 24 109.5 40t66.5 39.5t38 52.5t9 75q0 67 -35 102t-94 35q-50 0 -100.5 -15t-85 -34t-66 -42.5t-44 -35.5t-17.5 -18l14 76q4 4 12.5 10.5t38 23t62.5 29.5t85.5 23.5t108.5 10.5q74 0 126 -19 t78.5 -52.5t37.5 -69.5t11 -80q0 -43 -13 -108l-64 -329q-14 -73 -14 -122q0 -107 68 -107q13 0 25.5 4t18.5 8l6 4l-4 -25q-23 -20 -73 -20q-30 0 -57.5 9.5t-54 31.5t-42.5 65.5t-16 102.5q0 57 15 134l47 235q9 45 11 56q-26 -35 -63.5 -57t-145.5 -66 q-145 -60 -212.5 -128.5t-67.5 -182.5q0 -80 43.5 -133t117.5 -53q87 0 172 66l7 -23q-94 -71 -227 -71q-120 0 -190.5 55t-70.5 153zM327 1149q0 40 28 67t67 27q31 0 51 -19t20 -48q0 -40 -28.5 -67.5t-67.5 -27.5q-31 0 -50.5 19.5t-19.5 48.5zM636 1149q0 40 28 67 t67 27q31 0 51 -19t20 -48q0 -40 -28 -67.5t-67 -27.5q-31 0 -51 19.5t-20 48.5z" />
			<glyph unicode="&#xe5;" horiz-adv-x="987" d="M-12 194q0 42 11 77.5t28.5 63t49.5 53t62.5 44t81 40t91 36t105.5 36.5q72 24 109.5 40t66.5 39.5t38 52.5t9 75q0 67 -35 102t-94 35q-50 0 -100.5 -15t-85 -34t-66 -42.5t-44 -35.5t-17.5 -18l14 76q4 4 12.5 10.5t38 23t62.5 29.5t85.5 23.5t108.5 10.5q74 0 126 -19 t78.5 -52.5t37.5 -69.5t11 -80q0 -43 -13 -108l-64 -329q-14 -73 -14 -122q0 -107 68 -107q13 0 25.5 4t18.5 8l6 4l-4 -25q-23 -20 -73 -20q-30 0 -57.5 9.5t-54 31.5t-42.5 65.5t-16 102.5q0 57 15 134l47 235q9 45 11 56q-26 -35 -63.5 -57t-145.5 -66 q-145 -60 -212.5 -128.5t-67.5 -182.5q0 -80 43.5 -133t117.5 -53q87 0 172 66l7 -23q-94 -71 -227 -71q-120 0 -190.5 55t-70.5 153zM394 1145q0 69 56 111.5t136 42.5q66 0 108 -28t42 -79q0 -69 -54.5 -111.5t-135.5 -42.5h-14l12 23q45 0 74 41t29 104q0 69 -60 69 q-43 0 -73.5 -40.5t-30.5 -102.5q0 -25 7 -40l-20 -41q-76 27 -76 94z" />
			<glyph unicode="&#xe7;" horiz-adv-x="927" d="M22 371q0 147 72 272t197.5 199t275.5 74q80 0 146 -22t92 -44l26 -21l-15 -73q-2 5 -7.5 14t-25.5 32t-44.5 40t-67.5 31.5t-93 14.5q-124 0 -220 -82.5t-143.5 -206t-47.5 -260.5q0 -210 115 -287l-46 -34q-102 41 -158 133.5t-56 219.5zM116 -351q42 -22 96 -22 q67 0 104.5 38t37.5 93q0 56 -40 89t-101 33l182 135q10 -1 31 -1q51 0 100.5 15t80 32t60.5 42t37.5 33.5t15.5 17.5l-18 -87q-5 -3 -13.5 -8.5t-37.5 -19.5t-60.5 -24.5t-81 -19.5t-100.5 -9h-11l-94 -83q53 0 98 -40t45 -101q0 -70 -62.5 -115.5t-160.5 -45.5 q-29 0 -56 6t-40 11l-12 6v25z" />
			<glyph unicode="&#xe8;" horiz-adv-x="962" d="M22 362q0 107 40.5 208t108.5 177t163.5 122.5t200.5 46.5q152 0 233.5 -95.5t81.5 -249.5l-6 -91h-561l5 29h409q9 46 9 123q0 57 -7 99.5t-24.5 80t-52.5 57t-86 19.5q-101 0 -186 -76.5t-134 -208t-49 -287.5q0 -30 3 -58.5t10.5 -65t23 -66.5t37.5 -56t58 -41t81 -15 q59 0 115.5 17.5t95.5 43t69 51t44 42.5l15 18l-16 -77q-5 -5 -14 -13.5t-40.5 -29.5t-66 -37t-88.5 -29.5t-109 -13.5q-169 0 -266 102t-97 274zM410 1284q0 22 14.5 36t36.5 14q32 0 58 -40l173 -257l-34 -5l-219 198q-29 27 -29 54z" />
			<glyph unicode="&#xe9;" horiz-adv-x="962" d="M22 362q0 107 40.5 208t108.5 177t163.5 122.5t200.5 46.5q152 0 233.5 -95.5t81.5 -249.5l-6 -91h-561l5 29h409q9 46 9 123q0 57 -7 99.5t-24.5 80t-52.5 57t-86 19.5q-101 0 -186 -76.5t-134 -208t-49 -287.5q0 -30 3 -58.5t10.5 -65t23 -66.5t37.5 -56t58 -41t81 -15 q59 0 115.5 17.5t95.5 43t69 51t44 42.5l15 18l-16 -77q-5 -5 -14 -13.5t-40.5 -29.5t-66 -37t-88.5 -29.5t-109 -13.5q-169 0 -266 102t-97 274zM416 1037l267 265q32 32 61 32q24 0 37.5 -12.5t13.5 -35.5q0 -20 -11.5 -34t-37.5 -30l-297 -190z" />
			<glyph unicode="&#xea;" horiz-adv-x="962" d="M22 362q0 107 40.5 208t108.5 177t163.5 122.5t200.5 46.5q152 0 233.5 -95.5t81.5 -249.5l-6 -91h-561l5 29h409q9 46 9 123q0 57 -7 99.5t-24.5 80t-52.5 57t-86 19.5q-101 0 -186 -76.5t-134 -208t-49 -287.5q0 -30 3 -58.5t10.5 -65t23 -66.5t37.5 -56t58 -41t81 -15 q59 0 115.5 17.5t95.5 43t69 51t44 42.5l15 18l-16 -77q-5 -5 -14 -13.5t-40.5 -29.5t-66 -37t-88.5 -29.5t-109 -13.5q-169 0 -266 102t-97 274zM326 1037l284 287l174 -287l-26 -5l-166 146l-237 -146z" />
			<glyph unicode="&#xeb;" horiz-adv-x="962" d="M22 362q0 107 40.5 208t108.5 177t163.5 122.5t200.5 46.5q152 0 233.5 -95.5t81.5 -249.5l-6 -91h-561l5 29h409q9 46 9 123q0 57 -7 99.5t-24.5 80t-52.5 57t-86 19.5q-101 0 -186 -76.5t-134 -208t-49 -287.5q0 -30 3 -58.5t10.5 -65t23 -66.5t37.5 -56t58 -41t81 -15 q59 0 115.5 17.5t95.5 43t69 51t44 42.5l15 18l-16 -77q-5 -5 -14 -13.5t-40.5 -29.5t-66 -37t-88.5 -29.5t-109 -13.5q-169 0 -266 102t-97 274zM342 1149q0 40 28 67t67 27q31 0 51 -19t20 -48q0 -40 -28 -67.5t-67 -27.5q-31 0 -51 19.5t-20 48.5zM651 1149q0 40 28 67 t67 27q31 0 51 -19t20 -48q0 -40 -28 -67.5t-67 -27.5q-31 0 -51 19.5t-20 48.5z" />
			<glyph unicode="&#xec;" horiz-adv-x="419" d="M3 0l175 899h145l-176 -899h-144zM132 1284q0 22 14.5 36t36.5 14q33 0 59 -40l173 -257l-34 -5l-219 198q-30 28 -30 54z" />
			<glyph unicode="&#xed;" horiz-adv-x="419" d="M3 0l175 899h145l-176 -899h-144zM138 1037l268 265q32 32 61 32q50 0 50 -48q0 -35 -48 -64l-298 -190z" />
			<glyph unicode="&#xee;" horiz-adv-x="419" d="M3 0l175 899h145l-176 -899h-144zM47 1037l285 287l174 -287l-27 -5l-166 146l-236 -146z" />
			<glyph unicode="&#xef;" horiz-adv-x="419" d="M3 0l175 899h145l-176 -899h-144zM63 1149q0 40 28 67t68 27q31 0 50.5 -19t19.5 -48q0 -40 -28 -67.5t-67 -27.5q-31 0 -51 19.5t-20 48.5zM373 1149q0 40 28 67t67 27q31 0 51 -19t20 -48q0 -40 -28.5 -67.5t-67.5 -27.5q-31 0 -50.5 19.5t-19.5 48.5z" />
			<glyph unicode="&#xf0;" horiz-adv-x="1012" d="M22 353q0 150 68 279t188 206.5t264 77.5q38 0 68 -6l13 -36q-40 14 -78 14q-87 0 -160.5 -51t-120 -133t-72 -181t-25.5 -200q0 -65 11 -118.5t35 -97.5t66.5 -68.5t100.5 -24.5q106 0 191 79t133.5 220.5t48.5 316.5q0 309 -170 539l-288 -138l-11 28l279 135 q-45 56 -96.5 101t-80.5 63l-29 17l24 15q14 -5 39 -16t92.5 -52.5t124.5 -92.5l333 161l11 -28l-321 -155q241 -231 241 -565q0 -186 -66.5 -335.5t-186.5 -235t-270 -85.5q-163 0 -259.5 103t-96.5 264z" />
			<glyph unicode="&#xf1;" horiz-adv-x="1003" d="M-9 0l175 899h144l-175 -899h-144zM302 1059q7 74 51 122.5t131 48.5q59 0 151.5 -34.5t134.5 -34.5q83 0 109 82h24q-8 -76 -53 -125.5t-132 -49.5q-59 0 -151.5 34.5t-135.5 34.5q-81 0 -104 -78h-25zM383 774l8 43q104 99 247 99q51 0 90.5 -13t65.5 -35t42.5 -53 t23.5 -65.5t7 -74.5q0 -68 -23 -188l-95 -487h-145l112 573q23 122 23 172q0 143 -130 143q-125 0 -226 -114z" />
			<glyph unicode="&#xf2;" horiz-adv-x="1015" d="M22 353q0 150 68 279t188 206.5t264 77.5q163 0 259.5 -103t96.5 -264q0 -150 -68 -279t-188 -206.5t-264 -77.5q-46 0 -94 10l16 33q37 -15 76 -15q87 0 160 51t119.5 133.5t72 182.5t25.5 203q0 133 -51 218.5t-158 85.5q-87 0 -160 -51t-119.5 -133.5t-72 -182.5 t-25.5 -203q0 -144 53 -222l-32 -63q-80 46 -123 129.5t-43 190.5zM454 1284q0 22 14.5 36t36.5 14q32 0 58 -40l173 -257l-34 -5l-219 198q-29 27 -29 54z" />
			<glyph unicode="&#xf3;" horiz-adv-x="1015" d="M22 353q0 150 68 279t188 206.5t264 77.5q163 0 259.5 -103t96.5 -264q0 -150 -68 -279t-188 -206.5t-264 -77.5q-46 0 -94 10l16 33q37 -15 76 -15q87 0 160 51t119.5 133.5t72 182.5t25.5 203q0 133 -51 218.5t-158 85.5q-87 0 -160 -51t-119.5 -133.5t-72 -182.5 t-25.5 -203q0 -144 53 -222l-32 -63q-80 46 -123 129.5t-43 190.5zM403 1037l268 265q32 32 61 32q50 0 50 -48q0 -35 -48 -64l-298 -190z" />
			<glyph unicode="&#xf4;" horiz-adv-x="1015" d="M22 353q0 150 68 279t188 206.5t264 77.5q163 0 259.5 -103t96.5 -264q0 -150 -68 -279t-188 -206.5t-264 -77.5q-46 0 -94 10l16 33q37 -15 76 -15q87 0 160 51t119.5 133.5t72 182.5t25.5 203q0 133 -51 218.5t-158 85.5q-87 0 -160 -51t-119.5 -133.5t-72 -182.5 t-25.5 -203q0 -144 53 -222l-32 -63q-80 46 -123 129.5t-43 190.5zM345 1037l285 287l174 -287l-27 -5l-166 146l-236 -146z" />
			<glyph unicode="&#xf5;" horiz-adv-x="1015" d="M22 353q0 150 68 279t188 206.5t264 77.5q163 0 259.5 -103t96.5 -264q0 -150 -68 -279t-188 -206.5t-264 -77.5q-46 0 -94 10l16 33q37 -15 76 -15q87 0 160 51t119.5 133.5t72 182.5t25.5 203q0 133 -51 218.5t-158 85.5q-87 0 -160 -51t-119.5 -133.5t-72 -182.5 t-25.5 -203q0 -144 53 -222l-32 -63q-80 46 -123 129.5t-43 190.5zM302 1059q7 74 51 122.5t131 48.5q59 0 151.5 -34.5t134.5 -34.5q83 0 109 82h24q-8 -76 -53 -125.5t-132 -49.5q-59 0 -151.5 34.5t-135.5 34.5q-81 0 -104 -78h-25z" />
			<glyph unicode="&#xf6;" horiz-adv-x="1015" d="M22 353q0 150 68 279t188 206.5t264 77.5q163 0 259.5 -103t96.5 -264q0 -150 -68 -279t-188 -206.5t-264 -77.5q-46 0 -94 10l16 33q37 -15 76 -15q87 0 160 51t119.5 133.5t72 182.5t25.5 203q0 133 -51 218.5t-158 85.5q-87 0 -160 -51t-119.5 -133.5t-72 -182.5 t-25.5 -203q0 -144 53 -222l-32 -63q-80 46 -123 129.5t-43 190.5zM361 1149q0 40 28 67t68 27q31 0 50.5 -19t19.5 -48q0 -40 -28 -67.5t-67 -27.5q-31 0 -51 19.5t-20 48.5zM671 1149q0 40 28 67t67 27q31 0 51 -19t20 -48q0 -40 -28.5 -67.5t-67.5 -27.5 q-31 0 -50.5 19.5t-19.5 48.5z" />
			<glyph unicode="&#xf7;" horiz-adv-x="1122" d="M67 466l5 29h899l-5 -29h-899zM357 143q0 49 33 81t81 32q37 0 60 -22.5t23 -57.5q0 -49 -33 -81t-80 -32q-37 0 -60.5 22.5t-23.5 57.5zM482 785q0 49 33 81t81 32q37 0 60 -22.5t23 -57.5q0 -49 -33 -80.5t-80 -31.5q-37 0 -60.5 22t-23.5 57z" />
			<glyph unicode="&#xf8;" horiz-adv-x="1015" d="M-4 -130l148 193q-122 102 -122 290q0 150 68 279t188 206.5t264 77.5q67 0 124 -18l-27 -35q-45 25 -95 25q-87 0 -160 -51t-119.5 -133.5t-72 -182.5t-25.5 -203q0 -113 32 -184l691 896h34l-149 -193q123 -103 123 -288q0 -150 -68 -279t-188 -206.5t-264 -77.5 q-66 0 -123 17l27 34q43 -23 94 -23q87 0 160 51t119.5 133.5t72 182.5t25.5 203q0 109 -33 182l-690 -896h-34z" />
			<glyph unicode="&#xf9;" horiz-adv-x="1003" d="M41 224q0 63 24 188l95 487h144l-111 -573q-24 -127 -24 -172q0 -67 29.5 -103.5t100.5 -36.5q126 0 226 113l-8 -43q-103 -98 -247 -98q-63 0 -109 19t-71.5 52.5t-37 74.5t-11.5 92zM462 1284q0 22 14.5 36t36.5 14q32 0 58 -40l173 -257l-33 -5l-219 198 q-30 28 -30 54zM598 0l175 899h145l-176 -899h-144z" />
			<glyph unicode="&#xfa;" horiz-adv-x="1003" d="M41 224q0 63 24 188l95 487h144l-111 -573q-24 -127 -24 -172q0 -67 29.5 -103.5t100.5 -36.5q126 0 226 113l-8 -43q-103 -98 -247 -98q-63 0 -109 19t-71.5 52.5t-37 74.5t-11.5 92zM415 1037l267 265q32 32 61 32q24 0 37.5 -12.5t13.5 -35.5q0 -20 -11.5 -34 t-37.5 -30l-298 -190zM598 0l175 899h145l-176 -899h-144z" />
			<glyph unicode="&#xfb;" horiz-adv-x="1003" d="M41 224q0 63 24 188l95 487h144l-111 -573q-24 -127 -24 -172q0 -67 29.5 -103.5t100.5 -36.5q126 0 226 113l-8 -43q-103 -98 -247 -98q-63 0 -109 19t-71.5 52.5t-37 74.5t-11.5 92zM336 1037l285 287l174 -287l-27 -5l-166 146l-236 -146zM598 0l175 899h145 l-176 -899h-144z" />
			<glyph unicode="&#xfc;" horiz-adv-x="1003" d="M41 224q0 63 24 188l95 487h144l-111 -573q-24 -127 -24 -172q0 -67 29.5 -103.5t100.5 -36.5q126 0 226 113l-8 -43q-103 -98 -247 -98q-63 0 -109 19t-71.5 52.5t-37 74.5t-11.5 92zM353 1149q0 40 28 67t68 27q31 0 50.5 -19t19.5 -48q0 -40 -28 -67.5t-67 -27.5 q-31 0 -51 19.5t-20 48.5zM598 0l175 899h145l-176 -899h-144zM663 1149q0 40 28 67t67 27q31 0 50.5 -19t19.5 -48q0 -40 -28 -67.5t-67 -27.5q-31 0 -50.5 19.5t-19.5 48.5z" />
			<glyph unicode="&#xfd;" horiz-adv-x="933" d="M16 -469l309 486l-215 882h145l184 -755l-388 -613h-35zM474 1037l267 265q32 32 62 32q50 0 50 -48q0 -35 -48 -64l-298 -190zM503 298l382 601h34l-407 -641z" />
			<glyph unicode="&#xfe;" horiz-adv-x="1050" d="M-100 -469l361 1860h145l-121 -623q120 148 307 148q150 0 246 -104t96 -270q0 -106 -37 -206.5t-101 -178t-157 -124.5t-198 -47q-126 0 -197 67l12 59q57 -98 173 -98q107 0 191 81t127 207t43 269q0 91 -18.5 155.5t-51 98.5t-68.5 48.5t-78 14.5q-70 0 -130 -35.5 t-102.5 -97.5t-72 -137t-46.5 -162l-179 -925h-144z" />
			<glyph unicode="&#xff;" horiz-adv-x="933" d="M16 -469l309 486l-215 882h145l184 -755l-388 -613h-35zM359 1149q0 40 28 67t68 27q31 0 50.5 -19t19.5 -48q0 -40 -28 -67.5t-67 -27.5q-31 0 -51 19.5t-20 48.5zM503 298l382 601h34l-407 -641zM669 1149q0 40 28 67t67 27q31 0 51 -19t20 -48q0 -40 -28.5 -67.5 t-67.5 -27.5q-31 0 -50.5 19.5t-19.5 48.5z" />
			<glyph unicode="&#x178;" horiz-adv-x="1191" d="M198 1391h160l298 -768l-120 -623h-157l120 617zM569 1620q0 40 28 67t68 27q31 0 50.5 -19t19.5 -48q0 -40 -28 -67.5t-67 -27.5q-31 0 -51 19.5t-20 48.5zM722 742l506 649h37l-531 -680zM879 1620q0 40 28 67t67 27q31 0 50.5 -19t19.5 -48q0 -40 -28 -67.5t-67 -27.5 q-31 0 -50.5 19.5t-19.5 48.5z" />
			<glyph unicode="&#x2c6;" horiz-adv-x="669" d="M172 1037l285 287l174 -287l-27 -5l-166 146l-236 -146z" />
			<glyph unicode="&#x2dc;" horiz-adv-x="776" d="M176 1059q7 74 51 122.5t131 48.5q59 0 151.5 -34.5t134.5 -34.5q83 0 109 82h24q-8 -76 -53 -125.5t-132 -49.5q-59 0 -151.5 34.5t-135.5 34.5q-81 0 -104 -78h-25z" />
			<glyph unicode="&#x2000;" horiz-adv-x="902" />
			<glyph unicode="&#x2001;" horiz-adv-x="1805" />
			<glyph unicode="&#x2002;" horiz-adv-x="902" />
			<glyph unicode="&#x2003;" horiz-adv-x="1805" />
			<glyph unicode="&#x2004;" horiz-adv-x="601" />
			<glyph unicode="&#x2005;" horiz-adv-x="451" />
			<glyph unicode="&#x2006;" horiz-adv-x="300" />
			<glyph unicode="&#x2007;" horiz-adv-x="300" />
			<glyph unicode="&#x2008;" horiz-adv-x="225" />
			<glyph unicode="&#x2009;" horiz-adv-x="361" />
			<glyph unicode="&#x200a;" horiz-adv-x="100" />
			<glyph unicode="&#x2010;" horiz-adv-x="830" d="M60 434l6 29h607l-5 -29h-608z" />
			<glyph unicode="&#x2011;" horiz-adv-x="830" d="M60 434l6 29h607l-5 -29h-608z" />
			<glyph unicode="&#x2012;" horiz-adv-x="830" d="M60 434l6 29h607l-5 -29h-608z" />
			<glyph unicode="&#x2013;" horiz-adv-x="1152" d="M60 434l6 29h928l-5 -29h-929z" />
			<glyph unicode="&#x2014;" horiz-adv-x="1730" d="M60 434l6 29h1507l-5 -29h-1508z" />
			<glyph unicode="&#x2018;" horiz-adv-x="419" d="M170 1098q0 52 15.5 98.5t40 79.5t54.5 60t60 44t54.5 28.5t39.5 16.5l16 5l-4 -15q-8 -3 -22.5 -9.5t-50.5 -29.5t-63.5 -50.5t-50 -73.5t-22.5 -97q0 -19 3.5 -33t7.5 -19l4 -5q2 4 7.5 10.5t25 17.5t43.5 11q32 0 53 -22t21 -53q0 -42 -29 -73t-85 -31 q-51 0 -84.5 38.5t-33.5 101.5z" />
			<glyph unicode="&#x2019;" horiz-adv-x="422" d="M167 958l3 15q9 3 23 9.5t50 29.5t64 50.5t50.5 73.5t22.5 97q0 19 -4 33t-8 19l-3 5q-2 -4 -7.5 -10.5t-25 -17.5t-43.5 -11q-32 0 -53.5 22t-21.5 53q0 42 29 73t86 31q51 0 84 -38.5t33 -101.5q0 -52 -15.5 -98.5t-40 -79.5t-54 -60t-59.5 -44t-54.5 -28.5 t-40.5 -16.5z" />
			<glyph unicode="&#x201a;" horiz-adv-x="422" d="M-81 -316l3 14q9 3 23 9.5t50 29.5t64 50.5t50.5 73.5t22.5 97q0 19 -4 33t-8 19l-3 5q-2 -4 -7.5 -10.5t-25 -17.5t-43.5 -11q-32 0 -53.5 22t-21.5 53q0 42 29 73t86 31q51 0 84.5 -38.5t33.5 -101.5q0 -52 -15.5 -98.5t-40 -79t-54.5 -60t-60 -44t-54.5 -28.5 t-40.5 -17z" />
			<glyph unicode="&#x201c;" horiz-adv-x="732" d="M170 1098q0 52 15.5 98.5t40 79.5t54.5 60t60 44t54.5 28.5t39.5 16.5l16 5l-4 -15q-8 -3 -22.5 -9.5t-50.5 -29.5t-63.5 -50.5t-50 -73.5t-22.5 -97q0 -19 3.5 -33t7.5 -19l4 -5q2 4 7.5 10.5t25 17.5t43.5 11q32 0 53 -22t21 -53q0 -42 -29 -73t-85 -31 q-51 0 -84.5 38.5t-33.5 101.5zM479 1098q0 52 15.5 98.5t40 79.5t54.5 60t60 44t54.5 28.5t40.5 16.5l15 5l-3 -15q-9 -3 -23 -9.5t-50 -29.5t-64 -50.5t-50.5 -73.5t-22.5 -97q0 -19 4 -33t8 -19l3 -5q2 4 7.5 10.5t25 17.5t43.5 11q32 0 53.5 -22t21.5 -53q0 -42 -29 -73 t-86 -31q-51 0 -84.5 38.5t-33.5 101.5z" />
			<glyph unicode="&#x201d;" horiz-adv-x="732" d="M167 958l3 15q9 3 23 9.5t50 29.5t64 50.5t50.5 73.5t22.5 97q0 19 -4 33t-8 19l-3 5q-2 -4 -7.5 -10.5t-25 -17.5t-43.5 -11q-32 0 -53.5 22t-21.5 53q0 42 29 73t86 31q51 0 84 -38.5t33 -101.5q0 -52 -15.5 -98.5t-40 -79.5t-54 -60t-59.5 -44t-54.5 -28.5 t-40.5 -16.5zM476 958l3 15q9 3 23 9.5t50 29.5t64 50.5t50.5 73.5t22.5 97q0 19 -3.5 33t-7.5 19l-4 5q-2 -4 -7.5 -10.5t-25 -17.5t-43.5 -11q-32 0 -53.5 22t-21.5 53q0 42 29 73t86 31q51 0 84.5 -38.5t33.5 -101.5q0 -52 -15.5 -98.5t-40 -79.5t-54.5 -60t-60 -44 t-54.5 -28.5t-39.5 -16.5z" />
			<glyph unicode="&#x201e;" horiz-adv-x="731" d="M-81 -316l3 14q9 3 23 9.5t50 29.5t64 50.5t50.5 73.5t22.5 97q0 19 -4 33t-8 19l-3 5q-2 -4 -7.5 -10.5t-25 -17.5t-43.5 -11q-32 0 -53.5 22t-21.5 53q0 42 29 73t86 31q51 0 84.5 -38.5t33.5 -101.5q0 -52 -15.5 -98.5t-40 -79t-54.5 -60t-60 -44t-54.5 -28.5 t-40.5 -17zM227 -316l3 14q9 3 23 9.5t50 29.5t64 50.5t50.5 73.5t22.5 97q0 19 -4 33t-8 19l-3 5q-2 -4 -7.5 -10.5t-25 -17t-43.5 -10.5q-33 0 -54 21.5t-21 52.5q0 42 29 73t86 31q51 0 84.5 -38.5t33.5 -101.5q0 -52 -15.5 -98.5t-40 -79t-54.5 -60t-60 -44t-54.5 -28.5 t-40.5 -17z" />
			<glyph unicode="&#x2022;" horiz-adv-x="674" d="M71 416q0 104 74.5 177t178.5 73q82 0 134 -51.5t52 -131.5q0 -104 -74.5 -177t-178.5 -73q-82 0 -134 51.5t-52 131.5z" />
			<glyph unicode="&#x2026;" horiz-adv-x="1179" d="M-14 54q0 42 29.5 71.5t71.5 29.5q33 0 54.5 -20.5t21.5 -52.5q0 -42 -30 -71t-72 -29q-33 0 -54 20t-21 52zM379 54q0 42 29.5 71.5t71.5 29.5q33 0 54.5 -20.5t21.5 -52.5q0 -42 -29.5 -71t-71.5 -29q-33 0 -54.5 20.5t-21.5 51.5zM772 54q0 42 29.5 71.5t71.5 29.5 q33 0 54.5 -20.5t21.5 -52.5q0 -42 -29.5 -71t-71.5 -29q-33 0 -54.5 20.5t-21.5 51.5z" />
			<glyph unicode="&#x202f;" horiz-adv-x="361" />
			<glyph unicode="&#x2039;" horiz-adv-x="540" d="M34 454l391 327l16 -21l-369 -309l246 -307l-21 -18z" />
			<glyph unicode="&#x203a;" horiz-adv-x="540" d="M5 147l370 310l-247 306l22 18l263 -327l-391 -328z" />
			<glyph unicode="&#x205f;" horiz-adv-x="451" />
			<glyph unicode="&#x20ac;" horiz-adv-x="1070" d="M28 557l15 29h124q11 119 42 219h-133l15 29h127q80 250 246 416.5t348 166.5q44 0 85 -10.5t68 -25.5t48 -30.5t31 -26.5l9 -10l-14 -75l-8 16t-24.5 36t-43 46t-63 36t-84.5 16q-79 0 -151 -48t-126 -128t-98 -185t-71.5 -216.5t-41.5 -225.5h405l-15 -29h-394 q-9 -84 -9 -161q0 -208 63 -301t169 -93q44 0 91 15t82 37t63.5 44t43.5 37l15 15l-17 -82q-5 -4 -15 -10.5t-41 -22.5t-63 -28.5t-77.5 -23t-88.5 -10.5q-165 0 -271 136t-106 381q0 21 2 67h-137zM471 805l3 29h398l-15 -29h-386z" />
			<glyph unicode="&#x2122;" horiz-adv-x="776" d="M132 1374v17h246v-17h-98v-289h-51v289h-97zM409 1085l47 311l141 -249l134 249l44 -311h-50l-30 207l-113 -212l-125 215l-31 -210h-17z" />
			<glyph unicode="&#xe000;" horiz-adv-x="900" d="M0 0v900h900v-900h-900z" />
		</font>
</defs>
</svg>
